<mxfile host="app.diagrams.net" modified="2023-06-27T14:25:05.541Z" agent="Mozilla/5.0 (X11; Linux aarch64) AppleWebKit/537.36 (KHTML, like Gecko) Chrome/86.0.4240.198 Safari/537.36" etag="0npGaY7tU38ISjv7ZlR0" version="21.4.0" type="github">
  <diagram name="Page-1" id="Rq0Gl51y1HAh-TcglBKv">
    <mxGraphModel dx="1369" dy="783" grid="1" gridSize="10" guides="1" tooltips="1" connect="1" arrows="1" fold="1" page="1" pageScale="1" pageWidth="827" pageHeight="1169" math="0" shadow="0">
      <root>
        <mxCell id="0" />
        <mxCell id="1" parent="0" />
        <mxCell id="4XN7BtDAy905C1iOqgJM-1" value="" style="shape=image;verticalLabelPosition=bottom;labelBackgroundColor=default;verticalAlign=top;aspect=fixed;imageAspect=0;image=data:image/png,iVBORw0KGgoAAAANSUhEUgAAAYQAAAFpCAAAAAC5DABTAAAgAElEQVR4AQzBx5ZkaYIg5P//r9batHBzFVpkZmRmyazOnqlpwSCaM4fVbNnDigdgwyPwABwWA4cDDEz39HRXV3WJ1JGhPDxcmrubvnaVXa0vfB/8c13ENnetn6pFnX59Jitc2//nNcRIoqFxEpCisygpSa4aVoHwclWSrTaLAVrwLp0Cynq6yEoAAU4SSDggXYIpAVdmlW95BdUZthhKYHEyu34b9fv4KiQN5AJNbpI4C1cuZDGktOvVDsQuevRUL//uZYX6x9Za79MsufMwOt2aAdX99Lnm/HHae9Cm8m++cWsC1QWq8wpChLU/eRK89jSm9q6jB5/h300lHceK6TxvGsiQSYHkiVhFvhvC9kE2S/NCpK1dDQE/1u1tUKsfD/MYkuEyz8IqCwpIcsr9I52sPCtkZKLeXM+CuqikfRXEqSI0tNiU1fq2kgQqnQeqiFgi8MvGWiNtoMLFIilb+2JghaVf4OKwb98lzOi4vnnvNnRZYxSlGpldSClxSM4++BWpGFhURX5ewv8mLqsg6D+OX7m5U+o0dtB8b9eSLkhg6ZTqveq9K2tkTgwUO/BmET0ZUHUCsPVNyijdXjWbbSHKa5KRdDVPaSyzSsDJ2SqCxoTzK1FCFY2vzh1abnxkdJBJDY3G24aFX5ZhghkdOohk1sz2x+nV9xYuTMa+3R4Ap0EUh202KwsS6mdP/VfgnuGF9O3bgBXpaBNXBdsu7Uz/+Hg2w3so9S9m4gvlYmfIkG6upyVqUoADWGGjZ2JgL82i/ci/DjJg6O4yQ1R/X3TmZj54ISUhziduEcRUuvYrWCP5+ce0Od0muI5Zlp1jhCBqLZ6MbaJN4WwV3tz6GEUh26n1odrHTD+H/l2ituhs4xRQHyM7yIu8KjF1LzMzJLR1+uyioqoSIqw1KR2qQ0I5fHNVNFS3nThZCYoI7uEy38R57uwaDCGsYrRqE2KTfbaxl9tCfizPre44rwHe8Zal62N7HKqzyDc9btxjBORdTIs6rzFhJHs1BijWtAN1gDkU3+Lt84Aky1IYs+ubEKGaOhoVZ3G7zxd+Xm0AtTZxTeJptt2trBq9OU0pY9/Ay4aktu+a4RGzDQrbJsSyN4nPBk+qH6aq4GQ4LqfXdkl89Dya+0InX2V8l8Tqi5fYM20TczTBFZc3NcOkUU2JeNF/LgSOuU7UPXcR5TjfgeuY0Xsyima3yeERkbuogye7LWrVd9dR3dTs/jPJXFg20Kg8tjJCOxhQEFVFBTWxDpPwg5kVVVXnAG/3cJYtKkwqzmc4xcJdmNeMCrOyygEOSszoBn6Fc6q+fZeQDNmEOd1la2lChOn8zIcErYqJHVN6ZsMjbQ+u7pwaFA2AqMFIUFSZ8nHbM50yTeR7g52pdwipyUfo+22ZUIodIDJcB0TvgRBTdbrbLIMCI7qjykYYJg6jq5k8pmudx5P5iVM2FdB+MbJfLQhADR7y1g82LYkkBKknGu6c4khSafFUHVrLtxHbHQyYpgLx8myLjZ4w06aTzZnHYlGZJ+iIfzXl95gyLCeGc+bv/ZLZbAjN+nFbMSwn70uX1X1q5VWApNzLNRRU3nPIyQAT1drzsiIVRHuXZznZhinGCSwFc8dpWny5m2EPtHBq9o6xxdtl2TTM4FkvOb2wgcip+Y1H9e+3sLwsoYBDInOjaOWnRZ5XgND32bWDS6I2LM/fRpRGJbuwABRBoiIjZIEuW3uWXRcYz2wvA0rrUlYIcJLijWbjZVlN0aDkCc8n1NSGf63o5ZvTmMftCiASw2ECUTF+wS1nAU/mrDwGFslQiB8c+f/PJSJb1OqupnK3VLUBY5csS1Vn8xjKfTYNC5xReuGdM+kCxAFYbn9cVmSLah7I3tWaINtHg+bmJBfwvChTvrvH3G0EIS4UDXpBvLmNMc0gpQ4eVY11GUHjuLylj8Gb+uNBna/OC2M8f5W0BADQwU/Y93d7yvztRmvdTosGNnjnV0dO1CnvAqwh4OJyh3BOzt368Jkh1OYqYfhKQmaKhR5L+0hgSYImmgYwWJHOT8HTyfal8+BTznp3Wdcl0zk4lr//yoZSX/XuvJIyBmrdFEigqzQqsSoM0zoOi0Zqc8nKBYx6NNydbQqkidA2E4DhBKxzVhsNIUtufcxPKNpd7Sph0i0rMt5lZY1STGRpAlQhQYR+g5UW/Be6BD+8S5gmLCAiKAWFRq8RFWx9UY2pFAEVcxJYNsLR4O57i2yr/iph4DbhujjOxFVLl7Hl3MpEgayiXKIJ0bSYj4SoYcqquH0V4pP79QxHnp3wpNpRccfDVCYIgnr4yNj+sIBJgPX2kOfbs5QS6CSCHToE91iPalhucckcCzcb/YHBetfo3sT7X85EFjEUM1azvDHvNvWYvPJAU2PtFwfRIpQoNxc4pro88xGARJWD7oORDlbLXJVxtbSKJk74cEa3eVTVTUMrHZTGVz9mDx7f/Rg//EUrPnkXQ0Dx3OD48rug1j/Rrm/XZomxoqg0HAdSLxCH2C5BEpuu1gQbOX6JcGaoRwmXWKxKBm4By6wuK4yT7h3C0N41fGFXXBXvQu5oUCUMYc3chKIokqVwhJco2RUEkVlwvzcQpy/9pqkBoHhOTdPjT0k7BsG7YADTukCwyeJEMugmr1OoVCtfHmY3Hjck05qSVJYHmzsbKCyZp0wLz6tlqD7FHEwD2+tbuzE+l+fXFRFHpFHVEELESLJMoRIxcnlxEqZuzh0c8eX27YqUJWhtco6ostEeLyq95tvX8PnD/P1Oa5dF2jpo7f7jG5wpIFUE2NhwL3OhrS1PIgD58cMD+5u7evCkXlOGWJ+8jgHCQV5CddDXmSBXlcKjkJ/kgKKstdAms7gKfHxySMfWm1P8k8/tr5dHX/Sq6+99mgBVjE2Am8WdT4WL6c2qAIDUeiyPR2kc0BM2rMj+BJy+SzHPTDCsaSi+e69987JsCWxRoMTyo5KRpIeD4GaZ0yKRhA3ZlKV20PYXWQ+7vokYEWU1wfEQkJlbkk2cQVk/lleX26JGeIOUMT/bMg/bBSWS5+d1liAKLwk8Ktrt0hN6VZgFVjM8rG6um/uGbbF7UpQnsyUctqnYKntdKg68Wu9GDqZSFz+GNdr7ND1bYgrh80YeZ5HbcK2W1NaBG9bbs1pBO1t/PpLxxW+mtCoSiZNWOBaA0ZjUxtjFm+jpQToLiGCV7d3rIuC+2Ta4jHybO1CX19yD1u7lZYq1nvfF+A9nOf3i59mbsi9m796lCKNBVpLdocw2Wf+5tDnzQJE1DNf4AUmAAsedDToYUN7pO7/1V4/j373Z/6LbWF/5Bua521QfidVu7xC++3EZAwCJTo+FSYLqXdPn8hLrjoLpzK/zOMexLAfs0xfqN3+oe4NusUJo5zkJKxlPqbvpDpGUTrlZk0SofyTtFmm/tT5dkx2miiuBzTKU5wivCgyKnKqR6XxdEjxK9E+z19ucoglpdMTevFqUgppHtEyxQyWxEZ7sooxQJu1kPkf3xdmsNFpZbF0nD37OLN7Psb2JkHiMJpRWngN29i4EqLNXbUO+S9qIxinGOndwRWE1KTULuql0jQ7e0490lrn8D2vEKAzU9KWJZXlXyQGjk0t3jzJxhZi9y4/vkQUKl1XD7mXnS/5g7N2UMu+eWYX2Lw8z63KaVOpn7dUb5ogu355mEKdQQ2r9FhHHzZOP6dnVqsZwmsWTPPBDyPdwxyLbLO68uSQ/+ZIJTr5XfnYA1y/Ro+rd3EmJXgeRE233/UldZjXiRzoZ7EgReC6jsRkQmXCzCBqSk6itXTHdSR/9/px8eMC7J6nIAXdH0uPHwZUNhay8b+x23q3TyAqJ4Zgk1tezWtHFLBfRzo4SQFM4Q0AJAnVPn58mOE8E+v5mnlRVTWnPPtGcv31H9Iy1jVpDRRdK1zT9DJRiu6Nnm1IaUOb1bdQdoPkN/eufe//p6x3VP5QTl7/X2c5hGPHgbFngrCRQvMIli1JWZPLuzZZSyQLWeSYPO6oCEu8iGMhE/v5dTmJsBY6f+ndRTrL2OqMO1KJSqoBh8ZVJ3ufSJjTZI6bmorenuXIoJsnGissM3P8rPdlVyIooNF2X7X06eX9ZIFplMEpmmHQd0A+em9/uWEHmWSpLg5sV6vbaRZCzWAHiDzfqkzZGBC+9px+xN++7X8K/PXcqRIrtsVYsF6PPrb+/Qf0uibKUZyvnLtJ7ZANzz7IKJB4MnXeueDgiG//C1fc72fx1SGoGihE+7G8WWL+d1CM+WJ69D2oKFVSrI8Fm5QFMa4NCwsLVOiox3mALaKSQa7X88wRggO4kmxRhqKL0x8es+c2tOqyudzXbpaGmJW4DfN8Cmtxus4jS2XD64wU5kYNUHMnrb1c13dlXc6cZH2c3uzgUR+Yrm6LFYUci8tVGmvCRdbMALTmNiiKr2Af35CZyzBu31Y6my4JVxNwK9n+OFm6l8ed35P3RnYMJeF0EJF8bgyLOlvnkHt7UwfSVBQY9Glud+zgl7X+mWTuZr8vtqxvVIDTKuXIxTuziUVaXoRsUSOuZd6h1MOBQnUXTs/zwoUZ5Fc0kflkt1iTjy8fM5bXyqL+bch+Jv53GFOlX9w7r5Uz97z9e/++/qzpGBnBEonh6FpMHYyHxnKIJOG4ifHid9h6rVV1GoY/fh5tXdkOKiixhGrvcqROjYtk6PPt+kdYEShttbCSBD0jA6hQmQHcTN2kgtMsAHpqIQjQRBhUkdX7ml1BoE7l6aFSnpx7bK3aApZpN3D9qgM6U1omNM52jCYWxeO2+/i5iGLYzqq7O3IZvG5LOpz52pFpLJ+UOwLfvoDYca1S+W0dqK5/NPbKtN2FS5lECJs/UPPQX02R8GLw1G6ZjpDOn85my2vBDfro4+Jve3//7NaDoIlMHjMr7WZGKLSYmiyL+cJ2LhkjalyE/0sSJ/mE97FLl1bt6jDKFXKwaVmJoEIVBvNtVdYODusbVe2MGgnR7NmM/PmSqiOBJ362zKEO7O/aJsbkghwfc7R2mAsj2+MVOpVfni4f/3UH0pz8lqpSUpNjUzh+XJK0cH9V3rjR0o6RDnbzOFIUoWK2YmsTn4/Lr67oB/OEBzeUupDlG0QrXupimOI7iXUEpQgY4gaorSlQJexqpanpH9q0tPLJrUDScVpY0T3teFZfqc2GZqLq8/G6FabXSk8H8JOk+oDWqZIKbBtiZ8vE+FS0LsF55UU3rD4yzP/h465hujA7jeb0RsP246TKnf9j1DrpM5WeJmYA8zPiuUOVZ1sDUz9n9bl2D8Ha3d1jd2VElCvFd1Ho4AinN46bz/G86P/yPLytaEQnEsRye5oWhlbZDiZpkXiwbxFDOAu/qAs0L16v+AHhmAOhGVKvrDMdIiqVr08wqIV2loAE0b0wEjCUz+/SOOThgKkDhlRNjScjyybrqToprvNPjNq8t4cEjsaBJROwuTs3Ov9Gz81eeoJQ1okli/Y/ZUyNkjovzrXKYLuKDzuabW1iWJS0QTop99in5T++aqsIHjzt0BJndHfOpsVyulqHc1/z5PAB4BcRelyhzIA2yNx/qVgvN6uP4Er7wnKREhK5LPJ7cJnLm9R/Xl8uS+bR1+nWlNi1NG2YvTZLHJ5THNAldnF+Dv/iCnn3l0DSdeV4OVW1zkUC9DYVhX0ocvkXGcVC2FfPVtTQUi6WnUZerkutpQhMRlB/WLBH7Kd2iORWztoxMlWlY0XAzw/t7Qz6PSwFfsF+M/vQ/n+P9Z8fRt1uCpTAG9mXfjuhRB8t2l2YFy60/7COcIorblXZY3XpNxWsdwbvkjMhM5RG/nOXaI/zVeYyEUV8X/S1JVsHVGtAqSwgciKwMpLXRAVEuHrIOIXJodZqK934S/5AeHanF5upE+ZiwfjjzSJYTJEah7VP+sB1n9PZ0y3QaU3i2B87ez3wY1ySNEvyTz8vfn8ISQMF40LYbafN2/wvccecLz7i3t74N13ZZQaGtgxInOdY6t2ucZQrqwHDhf72d2gXAVF0yxORyoxDVqFPOfkyIzx9t3qqaaQfqZyNYLF57QyFgBQyzplvw7BfG6o8Ox+p0ZtlFGUVRjXi6VO8fKalbkdTOCcnDTr2+LERsc5buKbeWcDgmnEX9SJ7Pd7jMVGHIa22hjtyqxskmZ8jCjWmlo8OFzbX1mzuFvLiyhC8/oS9/c1uRykgp8SbLINmmHCRNLQV4d9XDXlo2ILgL6H61DitieCTC9a0xsl+7TFdL3XTwRDC/W/EHE4kl7A9O2hROVCGMEUUO85dpXZMtLQ3lXkfGcBpPr+9y8eho9nvr+FO2bm43Q2q1mHpZhdGDez0uN3eMyNZRejNPCbwU7j/QuWL9/WpSLEtKFQlNsE8vsoYAFRw/Xd0QGfgv9+wKcy9Pm47m4O3NWQAxjKQQwXN4tvSbpiE5xAwe9uC/jm7WGYR6C/Va+XItM5hE8tHvrcHPu4urfezDh4juHH/W3v7uPEf4sJV5ZqBOeI0yTxIa0/el7G5ueUUOcYbBpL1jOffzmIw2mXzYIcOZA5LVMhu3QqKr5vNbt/uLnvn6Ipb7TOXXWhtPwryMAIcaRapzVAOpiz6cAmWim1Fw6ycHv+7GN7+5qLhnL5prLwnimhQzV5gUIQeWK2K/U1dJ1thhDmGeN/jhM77eTvXx9cscxwSyyLUxSzkWbBsiQ4QfTixIFCkmqQJWVkQwLxDNEKWXdB7yhMqzVHw3LyUV316Ee0freV2RbA7qyl9lgBk+2Ye350FdAFQVUQ5QQz/4iAOMgK/eGFJaAlkhwp3jTmcNjtJGPbKui2b0b9lrug2nX22FKukdJR+2VdNAguF4VBRuhDDAMilSnz2Fv0y9IMtKro21OrGbjmg/QHvwq/nzZ3C2anN3bzKS1n45ydcn73dCn9oGUPjoF2xmvXqDqaQ0MuDt1dwvCpyi+R7FD0RYARuKvsl2NCJfr/I42Jb9EYs38ewy4AefHJevvnHle3QcJqxQRiFRbwOxzXUGnOMkiOj00h+/DtufiTv7NsLu/9xI1//xFD79F53zN1ntQx4WVjx6IazW21Uq6hpN5DuFCy6tBgAM636kA9/k1OlaRU4UI4oiGq0Tr8ruiCfw+T/dsO3aU54dEs5qW4XLSjJYe+XV+n3gc0pnIEe3leYvkhzvYG8WaQ3R8CkVLs89XN8/7lVnL908rxGsIIHVjfT8kWthnR72JuqoMKPYZmNBbDsN8wrrcGx455f6Z+y6+4Bdfuv2m600BjdTv8IphqHYpsjTADAkVoRA0rrwbxoIk8sVqzKs4eTKoLqeMo+o9/N2C+KIlLY/7EiWP7rfBpt/ek+1qR2hKP/q2XpNTH9HKALH86m7u93mGSIIdUCWjCgTdJg/JL+yjT5Zhn4QRiHZNjBz6TgJr7Qmx8Liq5nyS2rm7kqQJblALU3q3p4x1MwTE2Finzp5ueP2tXDrFPIvXwjZ+m9foy+eRm/WFEeOut7sNn38mXjz9syFokgybdoa9u0/zSpEtYWstccWMcmGGZ64qyXR4TzPOCovttII4kfwby9b+0kw+emw9JbXYXibixoXrfxG6oRWznRfPGe3qbw+AxxRLq79rKmppw9ze33r8vdGmoZuv18nCfj/QYYua+VRa7OtxZ7ohp12ZQUgMsFQKnfmKmy9AEE23ySkLrKTPcKc1hNkVjwy328AJasoB3gDqDKjCc9JNLWp4P/QQBi8u1W6vJdY8OAgn17hGlh5RcF92l/laLqoceXTxzLm//Mfy/a+lib0s/Q3+BNgxrnQ4WsnLey8cH0IFAHltSCTPKg+Uv9u0d5DGUHH5qbSFNp5M89JmcUZ+f6gOr1i/lq/vVlHZeIXmmZOm8+e8ark/HBHChT051bN9eTaXqL+x4+F3P3663TA7HxAS8K94+LmffjkHrp+eVUiXiiyVqvsj+N/mhGccaBdrXodokRknmXuyo6kCWc56h6YmRUMyI/V7+fjPa8YPu7A3D6znJsEI6QJt02JdGMXgH38qebYEowJ4Iee65WyiEu5C5pgy98baRxcfzfLIJmnFcGLLKpIuioAojgB4/VmdhXEWe+ZWGXb893hUzwP5ruswoRei0j8hNWJsiHr9dstyYsqVYRJIxh0gZXX03r0WI7g/5Sn3iYsuTZ+dZm2ntwLrrekuYjKqiKftc6LHumvc/7FMxWEH77xjQHvLkpybgsPjcqa43t7yPEhL4dTmxT5MAxrliFIshkYp5GsoEoSqs0yZcRqdh1jLTWJMeHxsDy3238lX5xZoLI3Raufv08f7TcNjjZrok3Gy5jlCVJgi6XW7naYYD7z49zyS0qmXOXzvez1+qBfnX27RaQohGF3XCl79W+trtpt0fOXmSJWeQx4PrxxCEnCAc5jABbbRcwcy3NnrAVIP1BrkF5Nt2aSVdKXj1yvXF54TY3aB8zCZPt9bjfLyCIknj4sz79d0T3mMt97cYDWV2fb5uDh9iITJJlvZitcJrKooFsM3uPMy3WKH/yE8P3lVfToGVuvZpAoAiQDvyBInqUlCkuX5xGHCFlly9WaGRgYyK/e1Y++6Kfwv42yYKeLGLV7s+LHB8fZtS9cvylQ1QCKyKF2XzIDmsRaXd078RBCoR2kWU0xnBqvUvloiHxKE8xvq8eH0eXSKWmOBE2Jc4yA1RBxHBFvPa/I3BS2HqWXGT04Vu13+eFn5dsNbhSLZdrrJ2cRSRaZcoTmtihjCd8n40yRUa2JOJnenOQdpVzdht3PqW92P+nnt35X3X3/LidZlsrBwTiiZesMjGRJAsHl1Q4gVOJah3FtmCS0asB12lFX72Kuw++KAZXixhjzGMKa2X7m7ojPf8Elu9lFKtMlze7uHGy4z19fYypLMIfPsG//ac3sC+92oy+fVxdXtl90D5NFLTEI5vMN3cbcTYR4Uj7sJLezgHz+cT27nlngo4/o7HIm6+m2wXIfchJLUhobuTYUGs/DeFVaXZSdPo+K5WnU/dW9HE4Ksi2KAqrfn1SdzvAYrDL2+qsYNaCpAYnDwVGcK8Ubv/+ZujYdSGS+m1YAq1CLtz209wmb0gitviJ+NVzMPK9WyDTL8kYYGmmcN5zOV4E9NbMGiY8evHtPtPe6SnSSteXVjOwYmbnJDMX9EFYAkN1DeDOXDR6Jo8JJiI7CUERpTs9s3tAF3LWUfzlcXtKVX5ESZn09JykSL0DnPu3T8bbiEWQ1ugmuruyKJAllTy3s0Ax1UWxug+G++9JjdRigTpYzo64zF4aMv8vw3Qe//8vjZjOfg70OnpmzpVepB+z7O6C1VIza505fxmK3vIoPP+9XW7uBtgNkimSxpKoQQWG75SbOSrz/pFVvry3lJ/vhVydBRT99TERXy/YgsFkaZSkUaIIU6us1+OhJbZ9/CAUjMStOEmmyMm3QfVRApqH3DvkGea+X4p7cGpF5XWxfrQsMVEnNsGWhiaREXs6x4YQ0c9Jxs6RoAKrpYXs7LdRPBohsoPM6GdQuQTWsDtxtmDKDPvA8v+yM+SZdf9gCDBgf9c9e4R1d6tGbtAojQkH5bteQUr2+TnESYyUB+S7fCDrVgtuwkEZ6Fd6erArEiIYkU7Z79FN8sVuuubaOFpcIK+rSxQ91PxKLQpHWLs7yGmGfz1xAysNJFZWZ7agURVib3oPq/YyUK7th0lI41pZ35KERZIxGX1/DzgDPdqtstC9X9nKxSPgBc7NuhF4P8wh8vWS6mneW39uHNNwlgb0j2i2aJ+OGayuVPdsAfHuX9u7r9e7anTznLr9a14A52IeJm7cl1xM1AXhOgzG86ryx2J98zoO7fzgteR4gmuEwXISRExAYJBvIKbrCbz6kgw7dN8i6xqF3Ocso6AcVg+cZIau94DwVO52A3vvTmwICAChOHpbXK8Dff0glJU94m9mm6XcFmuWKZZiK++wqKAM4lrMmXSwbogJ7n7av/s5nKakjg3hbt/dIc35nUf2uu7ypu3rTNAzPJssroKldqQi8bLRfWqeXCU6xWkekKysYPCqb4mYp9HrEdkPQeeMuCT26LTo6Pxrb3xcEo6KFF68Keu8B42ZUY5osxnDOlfhUWnwoeZTWwMuFB6JlIxUPic5Qti89AAoCmk73gQHTfHGZ0CxbRSVgu1IQhlYsHurWSfVkEAqkv1k7gBJaqkjFqTwQU3NTy3J0auK0xKQbNJG9q02QAbarNg0lSbm5o1SNMG98JPb2tq8C5XDIacWf3pa8SNEkTVUhJSHvzGEh1SAEqOFgeY3vcYmmaiTiiMK7mnNsuLVqkgV+fXDgn6ARSTWjn/+H/zMHGGRHQ5zbvbZIoy2COBU1Or+9SwW5J0pSsSkB12ejuA61vndZIj/CqhwdPlXO/t8tolURI8MtNTxiwrv3C9DrxBsL3x+CNNOMFjj7/RaQ3YkMoojWYDSd1zwvMHiNJwExYl2K8SLB6NCZVXBEY66b0jShrgh7z6pTN6qAtSGHSSrui3ZK0Km9wUWmNJf8Q3V1WoisTCSbiN6nogahoDB6Oh2uzBzsEujHXF+pGyZeFRxiyKawUmEAzVVc0z0hmAs/NWaQbdxNTBOY1NMJc4bvyTszMnpCutiubKlNFQisXZJLtwUv4yTBanRoFQDimblNCX2vtzxrDCmte+p8TskiT9RYnUeAwFfXqQDFgmFLrCvdWuwA20K23eKJLOGCKS4W1iInKAXbTj766hX/GGXG5/f/j/8txxitP6LXFVj7hFBEoEgomRPxhQmh1Jtgt2tClRUGNEkzNDavU4PIXCttuk+k0z/GlCTjJRZtc7rd41YnHmSFJgrR4Fhp0rYqNO7V+TJXD0QB4OmtB/NGkvFiYycsRgoq9AJMVFlGZBuvYilsZ8dpYJUczgyPgVds8/h2x98XMRZbXdd9HRabTCarykdaOdsSnChxiQ8ItipIAi+wsVG4RRkkZLwt0gSwTUoaYlmLbJUn8Q+YULIAACAASURBVHoHdcL0awQQWaT7v6behhzPVYBPA2rYpcwzV2F3TjPuZF6azxbakYKCiynsD4CbsTxDlBUkiBI1kbuxckhpPXzuIAUEld5LI07RmBrgUQBKzzFT+hAOM1nPK75cl6zOrncVM+rXptPhljkDfR/jGZqqD15893/FbVX+5OGrfzflj3pCFe8WMSMJTb52AcR1DVG06QEvGXzanN/i4x6brM1EPu7aF+hAzW+vs5zbU1bTglOFGrGRuU2YluwsckKUychKes86ZdBuEZWXld66ULtCifzfX1JSd8Jm9vt1Tct9pYwCH7TEvCZYiuCEClR5ViSOR1CUpNchKOv4KmSPhyp28ScH9I5l6Nk+cdiPwsDclhxHkyJeYzDCCBJyhtDidpezXcr3yblX16Ba5fxei6kJWFcwXl5HGEgqRDQ5RhQPvkzfbiEcdGgiCzFdEPPNrsiCnBtjU0c2ppet+zrun17V3QFHQExgG2+9wfYNUKWbu2WKCEZt4gqxoKxVJUM0J8KaofMo9OfLHOt8CZ+UBr8JcKzCCKM3vwrxwYBemf2Wta2bCkl6O98U916g76YeJvTMr1bUs0/oxFxeuxXWPYDRnV2Q3T01DWCOER/MzgtpeU0cdrnk9G1M8kyZCPeM/PymQqJO+U4t9HUAmMiaWTUnVxnGDCfk9sQa3KNdZ3TMVrNznxHY0RGxdtz3FzUtdlrc7mRW8K1BO7teQ8mw5zXAhU5XwmOCquokshOCVYTCAgxZnG74o5Gc/emkhp0xiyf2jPrrUby5mMe42pMrVaq8jdPqUAE76ZEgv/72TWg87c3uCrZD/RC2nxtYtl0U0rh78ftNA+oaY5uEbNftT5OTeZhrPQrWgGChICIa3yzYI81+Gz/QXr6ljvoyPnuzEVo9FRYUC3dXF+iTB2GB+ebSigvESyJZE6gCOFlQvCDAqkEcObuYJSV++GfwIRRDM8EIBif6D7dvPbotEavqUF8vSywBgm40XkYJNAJp6NxMK6Q96FAotk62DRA7NB6vc31sYNZt3tkD38zbP+1sL5Q9mU1evwlqABvI9pV47jZ8y2gcB/SftJOg8Z3ZtmRbLZWBWh9f3+5oLto4nWc6XH93lnGjXz+xbms8Nd21h4x91r7aaZO2Uv5w3r4nvD6p6obp6xyXsBqN56m5LUmBx2KcZYE5Kw2Rbm4uA34sAKG0b9GfP2zOXpq1+ngsl5DF5++t7ogywWRAp8ns+/cZ1dP9bSXf732/Gv/cyK2355Vw/+nlby2AFRXisAS0aOkxdnOzSzCirBAhaBTFDh9MrN8Xx4J9Ek16b36bTfZbUvruXW7sa3GAcVw2vYQPRz6r1qkzn/sV0e+ROaKaOMUgpxsaVfqFCM9f5S2y1J7BvSKPgSDGSUn0HqGbQCYQiCmdjvwcJj6paeU2IhBJFRiWRJYbEy2d56jiw20FACe3+EjWmCZcXfj9++iHjf4z5c48HJPl7AczbyAOG0JmYidHUqcFrSX67FP8dhOFruVXYv94jHa1LBd+nGTOwoa9Lpe/vyvYRz/f/Rg+6iDc/mB65eiY3yylYxVPXtoPxuX3rzIASInFRMTIMo8lTs1iKEswSebJwlzlaaPWVsG2sQQvd8vk4LF68e2OPz4ieLYiafPKZJXSKYVuF9+e3eZklRR5BuWPH7//UX0xidc/3ADjafvtu5qr3RixdBYiobXXyrxgt4sRmZTKgK+ojz5ueT+eEAJh7xRj/tvsvhEqwuy06HapyC1oFvOXjcEmvSMytjZXdgFbXTyuaTGxCpLVD4Z0FgDS/vHWeKHEuQqPtknDPB3dXUW4OOBRprqppOF2yNIlAEFSlvYOiYKS+yJHcsXlaYlLepdPLtagrHFG7HbGQh1ub6YeOSGmO/ZA9YUjtrLezBEoxR4XR3kVpLSm9Dvx9Bb7yyf2ydoLYz+Bkn5vUqwTQSHitM63N16OWENY2nD0l/j/fc38ZEzAtZPNTGp4VN8VGqqoWDig3fcfggbHIKDbAqyQKAMwNMp8u2VGe1I6s4t6aUk4kGmM8HfRzi2k/X2wiIQOFVQlqQFrl+LQ97NMfDjavnSGI7S4szOovPh49g927zG2vNzi40/yt2Fb2773ICPXPtERRRWrk8jyu2AaKiOu0D7uF/PZnYO3OUjCyx/AZ9R7aRKsa44AWZJDiiPsnAHl0Sdgfrax4pLea6WbDJMKq8ABvf+ITRu8uXoX7v2slQUc/Nw0K/1n/cVpgec4fZTRC0+7z96u6LaEgcA2txEpUixnbro6BbDdKw8gZqBm86AuG6LJmdH4kei/f2/HcICZKdYZYr1+ktk/2AoJJ8/g3WLmV0x7PLmnXnx3Sv9VZ3WX2l7mZYDX+t3Cinmqdpsxe/3eByU2Hp77ws9+Of1fTfnFPbjaqPr564DcH7vrKAT9/kRvNjczJ6WxpJInUlrkJUZqHaHKQxefHInzb+ABdr5icJyhSGKzDJKSUYzDPggLSIZzT+6EVkUwWLS2I+rjJ3ffZk9faObpbYgL+xP3H6fMUN6tfDg8CLbisXDzzRYwfbFku6BhmyoME9ZYn8fcSAGDp2g+v9v6VLun4LvTD5VGuoPneLTzvBxDDcQYOfAYGps8CV/96AEA9c/2/OUyKOMY4SAnj/pNWYQLlxweSRUhwy/yu7D3C/HG6qClCZ82K6tQ7jF3y1LT6SKHOwdodE4WU3MwgSXRXK/JakfIdFLWJQRpBjpdXcDOPuSAPiy3CXk0ioxug8zfrmm2/XAv+bCxfLrDKo+OmNMfr5QvcitG27qw80zrinWcJDqem+zn8vVXFh5V+3sftvKfv7j+d1vp/qPmKjzozr+9K/l7/GKb1OrRPRU6m8DdYamL6wZbozKw66GUlFidYQoVzdyjZ7tX1Z6RLAuVXM3CRjg0iHYHd3bIqG48EVkhhisd/O5qjX96ePJD+eSLQXizSAgCCtGbFaVoxGqNDXU7aj/gzNNVqU7aFRQhJJtse+XI3Wq2o9oyOdhPrs3A3WaYoCpsdLkpAHX8mdpYFzc+FIkio/TSJQ1a3TNfXpQI4srTg05wMQ/spCHwHBg6iIIww0SZRlRbh8+IddD+JXkW35dm7+Fzb5qRere+syqYQ1ztk2nDVxXjnbnyiMcxLMuV4gdHkEkMgMT3stZP8N+kn0anqX4wmm0AMVFmrWMiX7y6yrinx0Y1c0FOsqY76DHhKh/tvY5IIlLhDkbDiX+xLon7bJx3DrDdmReehUZ/ZeUPX/hfOdxoRG5hV3VfncVUz3D8IiX2n7TIeLVL891t2jfCSmDLMk65yolxkhEkxr0mBg+oadkfxR9gp1jfOvXgGUpJPbqt9XtquPNuLYCYo0f45uJd/VQ6uUh7n+zVflSj2E6BnxCsrgcz1EdTt/VAR8nOZ2UsxPmq5PHk6rWn77fzsOEElsoXJiYVN9u8hvKxuriJaubBR108mn6YlRrv7AiFiguGFnv+6bKCAAkH3Qf02YddlENBhIRQbu0M0BwJ0oJuybCFJwW7z27SoWxeVXJVMXKPtTcpKKKEHffwNMGDWsHuVqQ8UCBBQlTffqi6HRzmm5Xb9LXZTPxr6iR/2LdnBU+1wA/EM8mb+9O1/qsR26RRXeP523fipMesxEHzDwXHo5FIAGdAvn0dcP2PMYfZYz0/xubfu7RKm1u8T+9yQRIlkiZRcH0Z8oa2C9IUe/hYgM5ZVGPurh5xd56sYBSyoiRqMIKT9X3ifY4fjGq7bJdTQQ82S7/k1DgghvFZrjz/qLmb3sUYrv30YT67OS+G+N2y0B+2qLwgcWsaUSTCqN6A8FPSOnPkXsuQonlCYSGmLFaynN4tmXFfKjJMlJB5Mms4KveLqqrJoeF7BIH0vQ6R2HfXYZvZOtCQAyvDuk/A6WUC65obax1p/aMLCKGlk1RtzW3AKUSYZCUpEVAEoAasAMMG5UmN0e2BwrrLhsLLrO6PYLBY1EnGGcGW6R+TIcunDqpnYWfANsFsuc3zAvBffuF94PZv/wAOxrLk/+N82Mmz9urV8C97dWrdhR3We3WJdw87i3bX/EMuUPz9EeWZrdlvTXa0P8nM1gAuZmbjbqDIsjOnoXCSaIF60kZhFPnblBclM8YYatRKV1OPVliWSRAIlimku4pzGxYIUTJOH3ZMK95/WL9fKULVw2/OXaxD28tcPpZur7LO/m6WghqSky9H3vtLuxGZZJsOH+lYEFCMd5vSNF4xox5XlNns3G9Yo9/bXQQSZ7lg47J8Heby3ph1fVIz4N2HTQnzvBFUAQto2SqHBiwxiczj7WVksJ5ft3VvumtGf9E5/Z1blgXR01jRP3EAPxyLFB3dLCKlg2+3BaLxpoIiwqqK69PrbVU3AMnPH9KLb3bDNvATbqSX27OrpinIVuWwOleiieSuGR5UmETXoWl5novLD/5cnNqt5nevmCcP2u35v1/KLUZ8VH/TfD4u3n69wTq8v3Uaoavtjj63votw1HmgmO+r8dnXhTIa8r4z7MLN1XWUY0Yn9dwCwgaX+zt/MoauWdIM2ejxy3h4WFZwdr3DO912CyYcjjbfL+n7rfDMF4xE1P0Ndw/bBca++VsLFydH4WLqkQ8Hl3O8v6+jDx9CFOc4AQD36a/07R8/xJA3KMfuf9KulreEXnoVWUU51+nzqPan813CdzvkbAp7sn0bVDQJy7Co+Rf7oduwMh5ajhMVRc23DNqriFWzP+bSGCObbD1LVSpPgdF2P5hl9y+erP7TJowSTDNUKrjdVuKDsYhh7vkcHY13r0y8dUier6FAUaBqHZC3N3ENKkx9PMFe/wAP+3VUULJUOrd3OcBlFUQ4nljSYzkOSEXCYpjlZJmbF/6eTuxhqyjbLHL63lgbf/j78qhbyg/527eFwZqXXl7VGNHUGAfD+/9Zeu7UdH+MXn2vj67OYaut1XbWMohkeeWV/MSw5yWb+TU56l5vhBYbuk37UHb3gt+sRvfq1L4Kano4NuAyPpjUl78zmafd8CwedCqKml0TH5N+Suubl1GN8RKhb5a11s5c0NobtPKz12FdlmWNC5/9vOX9w6uKEtpiuuA+GlSXbyuVgTgRLFNGaavkbm5HYdmbUOuLHa7ReVQQLInybVQSv/i88moI8Nr3zISlcjMncVBXETCOe42fMliycnCBhAgyXHy7Sblnn6Y/Wrud12h9HY8iy9GeGLAC8elUej5cfOXTB5+yfziBksDDunMEzy8yUJeA78n5lUnv6RhWV7jc+LfzrJH7Op4DIloqB3ieRFKPyKog46l0dlU8ZHYgCEs/qhE9UTFpftX/tTgHBrP+bsvpAkV480XKH8qO70T6IyKIoNzr0KcfBHq2ZocKimKo6Ch2bh3QPaa3d3XLvi2lh8yJiQtiHtbqE8EZMNtZyMmEf+tiyrgDp++yx38D/vSPiXi/Ey9xmierZBqIPy1vQ2Ocf1jEWF1TnXoDuXHPPk+GT/tN6BCEb3tF1gw+6Rff/VDwYouHy/x4Ai/f+HSFcWJ6FxEsrQi+VaYpOjoI3y8zhBBBkCKHgWgewtGXD4DZgKypdm4Ieq3w26sSYnhT1fzokM8TFO580qAKjEVF3kT+LhYP6XVVedti/JB0EyaxhHtiFKHm6lp+1lm8C0FnEr23YFtkq3xwP3y1JghQlySe5VGCDzskKmuBDa2FU5OdvoA7mQyCtpwmacSOmRTkGQ4jx8WP6e3dvMCSosaOP6b8ZLv65Zep2eBw/rLUaYzV85sPG/lX4/XJNKRkFhRQ0Hi+COvUcdgunSY4orvQc5wYGx8W7sIV01mm3QvPAq5v+CaQ9wiT6B/TNwuar5wtJhtCfPo6a/0b49UPIdfrNglZYqllho3xC+LK3R+R/vmVXzQIx+gHjLPHfT1V70tFY3RQEMaxtcUfH/pX15AWVB7YbmvM2xdOvi6IvnFuQwLndaYudjvqoLu6KoCfQAwnuwO62Z7viF9/JperHKvyPPJzptMJ/vQ2AxCBGhDdww5Kgu0OU3QUQ7qKK1GBy6lLUpRB7czk2Z+lpzZTB9SQdmOes26ZCet4kYOgHWDwmCnTvDfeTlPe4EHgeEEBaqgPhLqSJP/KjCqo9BQW3NosRg85r+IBVKW8RqBKgqQk+GazDhEoinr0rwaJNb3w/+JnRIIw4F5aWFEDHrdOZ/K/fhy9+WEJGAKvY8iJosBB108xjSvy3C+7VJxkDeyMi2C9wsEua7Vms6b/VFyumHarvtkqz4/CTY6qMogLjACbi4D85L5jxgXRlwDI4Po8qOHwZ4Zttbtkbl6cRBWoqae/KL/DW1cLQsBzstdpKhyEd1vmUf9iWmg4JbKJvySO9WKbBKcuOPz1xRufIPhWm689C1eaVWAodxcljqFHHwvY5Y8z8NMvhHRVUE2SpbmkUqR/+s5pEKhrAI3jPh4srZpnKVSWVZLh/Sdd7/2FVWlj3ttmz/4su1jXICzZPKLaqj8DOpvnkRl5ESTgn+OJG4iS64HOEyNafrjNAQQN2WkxvFyfT8sya/SeRNfzbVUhlc2ITl/g8KBkyMTe+IgoASyaOkEpfHEYJZn5xuk9HsOqaTLTrmS1QYV7sRT/i8+J5dvr7Q4phRPjstzS0C7KyY6Be9OblOZRAwGQO3js7FAVVwZxa1PHD6rZVhr2q9Mp8fi48WuigTBZrwARLmPycLxz4pIZtKkyL+9OU5KZDBk8YoZSvL04t4sGMJ98VMzyzExYuil5EmYcjYWbpj8Er8+EhxDIpOlZ6J5Y5ER2NSue/VfBP7+vCanTVujCD7NgVw324t8tGQ785C+H4E/f/eAo//nE3jQSiNMM9YwyjhcfTESXSVUB7miMm7OIZSgMy+M4rjD56EkrWl7MqH0j98LDo8zOqzpwTLOUdDJym5aBvKColhlBwH8rRJYDKzNE48+MrT99HeKoqaC+P5DJ7SugBUsf0/fEarbOIE38fxTBV5MlV4IY5nPSe3Mzr3dVdct1tQcaA2AGg1mu43CDCq5Iifug0Cq0P0ChF/0MhUJ/gA+SIhRSSC+7oltydjgzGAxsA91d3VVdvq43mTe9zzxHwe9DOaE92RfDbSEx4Wq2rgAYHBWe7aBc+KQZeAT6bgJ5hYYoL/KC7h7J1XI6C4Q/+1AqfXt26jaKeQwYaXePiMJAGTbJ1df3iGQpAAAhimVSUALIkZSPQ+W4GU583miUa9982Im3kGVoFt2+BzC0U3qvs7pJ2EbLpKKqnNxjoyHjlU8pvSG5vZlGCaDYnccCtXoZNXb5OFepBPFE4ftmq5q9t9RHINPEqVWqu+Q2k5hg7T//afHN9xFl9uuiwCRWGPmgdSB/8xvSZB981G/cvvryPfmTQ2/DikSUlbBRK5JwvgEiGeDST4jmAbOa5wLHMTAM4hJAgjf3Hum3X6b9AzZBdcZKOboKx2/XFU2BHCm7fXBvMeQqZzj4z7iypEpvHpTqAZ8r4bcWSaASdD/YEcHyVbexub5N1MfN8N2kNE+Ya6sUTx6rzjiTQFRtlz7Q9k3XWoQVO3oKpxZL328InqVgmpclwvXHLX+6CRP1kxFD0Fl4NyGCZVAB9dlBkUZ5ravC5ZsJYtkyzQrIwigjtQZTlMR2mdcONX+eQkDQqtHekZ1VxjIEkb6ZqFJqhcygbt2GfLfOwTDB6yXR7lS5beeEKFYFJtmSkpjmCLtv7qRHD7Af8SgRZBDH2BTts3Gh7YJQ4JaWtNcvL8akpuKo183nVx6pNhuiIALfDWIg75lX/2+saSOTHPE3r8Zss8HkWRIFgshQbB7aLtVpFD5PrachN1K364ThBSaLohwASCAgPXuy/SpTHnVIgdpcxoqYLibTGPxnzOhQTseTlCwhx8A+JrV9wXUDO2UopoEnWxIWGX/4QmOJ9VVLWd9N086Ruv7aIj/4Bfv2PlW6dXq7AlyQ8WgTdkbc/GodQ9wYVbYT0GQJNbNISBITAUXwA+I2FHS+ts9GGV9V0coPnE1YtV/0wxAzsiIyuWVlkHDWYVQxMC35pkHFcenapX4gpT7IXWzsmphV4GKKCUxas8LUkR9zbTGwI6rGVhBl5dbGPEUahpcpqnsVC09OsoIkVd67ueP2+krmh+Um7LZpXAAeLO88QHMACdXaVY53qbevEqlrIJqDOI7ikjdrNZ2IVi6CZFe7+dtIrO3okKWDjS8LoA6382WqdGokDqygUjo1hGTRu7qoajoOS8hzwE8yQACKwgXZOCreR8g4aMrR8o7QWGu6STD4z0bPdFw613fQkEEOGQTM50ZY+vd2DjmNq0Cbvls292qZxAdrphbNCnXAg80XDvf5M5QgRBK+F4QcuRWGarg+eJz88OW0gky/cb8tKkopqKYa+YwsKYDGFZxdIONBT1LhNmWJZG4jEl6t6P0D1YtlHSaEKDBs6UWrsRVnnEhA04SJHxOZXWodAkqivyDbamrlhmivU8ADKyQ0lSgoTSvjLEEULhkW5hurogpUN5DUqK++cpkPfkIDSJLYXuB2nSBK9/Z+S3bbmkplReEEDOtaEa8XViENdoT714HY05OY0FUmDTJG1xQJ+DOroPguc/pFwvCttkaEWVbwjNtRF3eblDUGNdJfR4BRVMroyPHltzNCacmwBETiZoAECDBUARi92IQF5ntqEQSsXmOsS7skaAjUB0NIccXtV9RAj9eQIcjWE2GbbqcBQmyjLusn4Kt3Ddm2mSYdxZzAGSYdptlq7mtGTO00cLh0S6oBbpvPDHgdDIp37yIMib3h2zXkTdqmdDbKuHqLRUmRl4sJ1J/WgcJkBETriw0vofut9KhWlUBU4juHEponvBO6C8tNGU3iTdb1EmwwdqKyXrW/h2c+g+fLhBcJwEiMtc54nkREowk9HxGoKBiOIUvfTpkkgqQ02FUuXwfk80+FCoCkiCvJ4KoqXf14XbKC2NtT85QEicCFt1OxnsYix2vS9jbXmvkiYI0ah7AoczRLl+58FUBjgE7Ps4KQVb3VcW69hjRTGqtbt4Cs2TVQVOQFZuS9AzEZ//gyEY+P2SAuw6CkmCwjBJGsChRu46IiGyZRrujazok0/vaO6nWSmKVgS/W/vayN6pNryBDq0X48tjYJpgl+NFJ51X835/BqgduNclU1TV0uIyC2vK+v8xwI9RpTFejBQ+vf4+e7zPkXAVlkEGDi+MNvxuzAcBxRY1MbKzpAYV4UacxyXY1ROEpEsTXdQDm4jaWHcgo5ErhjCxONz+thkvve1qMNCaA8Dgr2oO1HZDr3Dj6o2bMwXToJFCXVJINlRNUEzyNaBgpzikZlwSIKIRAD1pnlQDncxe8uMmKwA1NMVpDgRJ6h+Xzxfp5DRtvpCRhrWpZivB0XbIxaDKZA6BIGt5xhWYKMKNUkiCgaeJuNBWp1bLlZALiyOvwXyX94u6+NcXM7d9KKEJsNAvJMuM6Vdrv0ePTdnNrdp0qKjayUofOcqetsFbuOE2e5+oCJiwWxt7cjuV9ccE8eb66CKm7wt6/Q8Jn6/TvIE43H9eV7K2FqEhL398m09NYlh/xZpNbAhtmTcgLnOTiS3nzpIMiK9c4Bvdlvz//urvmM+HJBkmUJEWCePnq95du1jS9ozey9l5MNrXA3MVHoPCWQpGKYwHESv6zmM8QOmxUiAUpsO4ejF1yYVlmahlxN9SYxCjLq6IM8jKK1Iz/cyTdumqduwbItfuWUhMgTnkt1NAwgRUKYpCkEGUVxzPYuBI3denS/jDHD0xQJyxLUaD+FAlFUZQHNdoMMQ2lkumNHU7YzN0SGadBpFFVCZSeKQXrY0FiUloJGJ95qTRoSgasyM+rRnf7fML/6fdtYr6U0jXzEAVJiOEPJJluJiZ189DC4CPkyl/d60SygaQLITYWvwvU2yvOkflBtEU01DVFc/XqlPDmKZkV65jGZTx18Sv/6Nawx9R198cpl90d0gLU6qKhgXdUU4HtJXCTyjhgU2B37xwf2jz5iBUF//GG24iTr1z9mEgMYpnBjTNOtp/q44FqD/MoWBX+bpPph33+zIJxAMtiqQmLLyGeFCqP1XQaIxkhIk5yDgRuQLzqhm8YFJKHc2r05D/MgKbu/5LxN6rtF55Dwp7ncrzJX3lu8jBkSlChLtRM1zkCCGQFHKUQRlnjavfXZRltDQRauM0gyipFPw92hdeERPEuydK1bg/54Sp9o45ukeYyuJxHkB8dG7lg+ZiqhUcNeqTLxNgCNlpDbd47QkEmUQbo9Kr5O/lr41Zft3fg0KRguNjR/FXKNnhxcr3l+ZXFPHsOJWywDftTFng8IklNMnmPTdZA7m6zRLzbUjpqsfNm+R2avS1Wk+4e51iGq4TPw2+/ggBFNxTpL6s/3OH+T8YDXFhfF3g5PRuuFFXCGAnA2u8nrB5kv45IzlZ2Wu6Zq4MdvV4gziapMI6w3ez2V9oteM/j2nkZBlgtPusLiVQWmHqWxMcUDSgw89QiPZ1sIgH6ok37Mk2mQmk+8pVcEpEhjbu/p6W208vJS+NPD8M4vUaXuFNZ1rr3oM+tW7YuvKJEK/TAndp8q66mbs6zEFbSQWYXAMNXFmqnXDDXI0hsXVfLPP/vVr7Pec+7NNRIEulbTa3S8saYuw0YxZnda40kJyN5Rl3JuN7TJCjUBFAgi1465TlvIpneJbKggTxiCbvgv1b8W/79Xo8fg93epJHFtNbtfE62BFEw2VDuc1D9SsiBGbol8WpayokKcoUNKJbY+nt+EWq+yqOP64q1NYUTLet1g0eY+1dsMMlrwh+/gAAJOyDy22e7WyolH0SL/6hT09jpKYU3uM4GVJCafjumh6jBKnAmDOu+vErYvrb+9LAgKgorka90GQ+umsxUk+zKksiAm+7uYdCc58DzMUjnHZwlATG83PF8iDEnF7BhJAAGomCP5fBGXidbNPHS8e70Jbj2M0JMX2e2GrsuK4i0mObez1yVlhndbCwAAIABJREFU79tZvSXaVzex8HhEb6+mVZ1nKWyM8usqT3j9fEqZNZXbRu46x1X3f+r+z38A2vHo/vtc6XRkRhTibUAUs1VSAoy1nr+BFKG1W7J74dcasGAoksYlKFLEmG0xmK4wL7IYVbCMYLDW/onwby/aH7Nvxx6UWirO3RBrbT5MStji/boSFHRU8u3g6zWjC7BMKFOrckmJvCK897gGFeW6Wm6snKJoTjd1KgoALXKQotHm/Qbuw6KEPK8INCXRbsTqXPrtDcHpR13aul5pJolpidoE7Va4LB2XlntDcuaUZG+Yf/0qBoCkEH/4RNw4ENKWSygcRmKRFZAHsVisSS3ZAFXAhOVglmH4RnjmY4KTRVpv0X5YyqI5DO/uthUcDhybOxQu1/7CRxgNTqJlwLR2FHJrWxUUpBpJoJiqt4H9w1msPmmWm+sF3eeIKpJ2gY3CpKLWPqXXKJiQcxdh8NP/4dX/HpWVOEhuC+XxLk3C3FsHlC7640kKMSmQ7QG3DaCmuJeJaZQhpnkJF4zAkiVrSrEbAYgwgCWovARXzG71zZIfKKnvV1wd+zkkIWMyGcVDqalVU48TPXC0t/nmnc8ZIkiBIlQhFgqP3GHclSgRzhqarL0FNKl0xSwIWU1kYIlK92pGwhcMEYasxhS5D3WqpBSFfntbVtKjPrTu834Np5gTMsoE9ta+LxqKoLGhH7rE0xPvh6sM4aog2vu0XVAxjyDNUAzB0RK3XnilKtc53/flppRv74Ld/WhtI3+RAE5RGMDrWhnmmt7mEuv9rBJ3dRv1Wqtzr/SsDBHDtpeVSNxRYB4EgAVhGGC9V+elxDm/zzovxNXFPOKaKiwSkmNFGILc2+S0QaeVqDhWDMAvPvni6sPNea6Km6L+vIU5IrMmPhS6yvJsjQAG9T8aocXEIyl7Wag6UZKMzGEkyDwOMl6jSYwyJ+foAuIwocgq9+9DKCpMHiGCKBAl0RnUJIjYuBgcuVeVxFKNETV7ferRjTqPKgLlcUrjyPiTxuKu2FNnX6TDujPPKbrWSm63WG8qEihQ6U2mEP45x7mLSsaOHxCtLhEUfL+6X9nKx61o5koNPs8BzyHA5FtrGbT2aK+Q4GodVUefDtLXsyRZhES9VdgET/GiHM8CihUbQ3G1TCvxaFdBt1dQI3zLqg5PqtnV1smKStKpkhJUU6YTZJpl4U7WlaDBontU/XhbkqHlIPmE2ZhwlYgSyZKI4rONFwC1p1BUmS+n6d6T+PVVCgjR4GmAyd4oP/PIaBWTEkiYTrtcr4JCNlzy0+v3RLc2DRvPWxwjZBfjisxUk3Av1wnS/vghTDfTeVlGOSULLCmoMk4AwxKJ51aKoUtlMt42+1wZ+hnFR7azDBDDcSCiYYGUbju68uW2QpaWXTuAFqlz7U41f3e5zUmtWaeLNM7KApZZ58/S/xT3T+TlD/mgtr7JhJpBj68ToaEyAgsgLEDow7/kkDWvDHK+TsjmvuA41U7POZ0pP21b17FkSFUBOSrxKc653dB9k8OlBO6WiO/1d7vB5Ta/WWBJgdVwlC4LcfE2ByT78APZTRmQi3WmsudxtbUKyLZ2Wum7cVpmudoWsopg6n3RD1ty6gRpXKAKdj8YTH6/QrhMXDTY284eiLezkCBFw2SL5SqhtCZbUTwNglXeZW8uIkAzmOM6OiMN1O33oYYCK0UE4DtdNnIsP0IBoWSZeNS7dhqfdgBgJn/YtIyYbbXA29cT8Mk/4ty1u15HiGuKMC2w0tGxk1QkkSWejfn2kAnfzfuf9vw7G4pqYW3Xi4JgTDXNKAm1HjRWv7ul+l2pWG4IXSWVnqrD1eWbDYIlqdaFvIQIl3lR6PvzN8wvdgtrSrT4+9NisMvaVxbX0ZNAUkWBpnvyPfznROy6TJ2b3AZQ36tncWG0/NcL/vkgu1qCRpMFZRU6vty0rmOaA2K/o29fWUy/njN9M/KK/OYCNRriw5Ni4YTX73wAyNFnegVJgEtvnTMosNYx5Hc6dDs+DbRkGXK9Hl3lBdNgQ7LFe/cBUZRZwj97IVy8SUhc5TnbkMaTp93xvZOWXL1Lr+5D2N6R3FRtsXm0dqvtNqVIVkpy3pTUUQ3dXZIDJVvOXYEHbFPJ3Zyl4OV9RsidYa8s1Bf0bLU9P8t7z021oW9PX96XP30G5+s4DDzQOeAre7qtPeri5TKiRRp6YwfJR/309Uz/yc763FW6PS5YLG4SwI2O0W3cket9afvly9LsGdBZJkxN0vZ1HM4nd1taz1MsKpjUmNhLcyizVjb4mbG6t7DM+Iuo1UN3EzDoJzee0mjXeaGT/Uf4X1ZpEZJytRxHgG82eJKVCeduVe6eyJvLjTBo09lyk/Ed6e6uJMoU7Pyy/ep3rnwiL2O+ZUq0fvX32+6RdHwCLHuzuL2JAFBHjVZDhM7FNdFQK2vpJJV6YoZkVDQN692S7g/ErEhziKpaX1q8jxgMiRDv7YG7udDj84hWyXJy031iLZMwIRgJbH0gHpjlFjQbRRCtb+2c5DUa18QcVq76ST25vWR3u9l0VYhc7BY8TIVGQ1m+mmC1tX9slqSRvj692saYG330oI3Pvr228/4TzXOyMM6BYsi0c73WPhyUtxe5VNOo7Z1Tcrv74GJGtFTbymtPD6Vwc33jVfKj3fzaqg+MJu+9Oc8p1RSLlUs3GdQ2gWNFrqcMkLvIZZIZGdbYTlmDjhjjI318sSgpscX4CchXtnnI3l3HnDrcrbWHm38F/7hC1RYKkecWgGBUU9P4Mo7nk+bP2vHtWdA8ULKrKdsfFO+3BMzcXPnnD8e/uWcPqVsPKq1W01h+t2AaT/5kxz2b+0G02oYRZOT2TotaTLex0pPnUzsnev18kXVOjCKYnSVaV4EocUNE1XeF6TQtK6EeL8gasiNudyAijksC+4Z6FG3JOCoqRIscJOp8GPAmXm5wudwCqa1iZjiA3s2N+oEIg9uguUcstpRKZbfXOcErbYnKsywEVPdxLbz1u8zdd05RlczDP9u1Xr+bx4Df3WdC2yXZIiqEOtja/NAsbm+BLAjQsWLKbLTheFFSMEOg+ck+4a5up1Eh7NeiRdhrQZlczvlaGOsGadtcHWasSFgW5CBuse7CE0n26WD77v2W0sTUJfb7xcU0h+rRAfDcyPebbftmkVNC77i/u7f6P2A3xygnaAByhAso9XWZgwy5+ZL+s1G2fHfH7XbR+1vmuBXcpwIP/Un2p/+EmE4jvLr1ASMYrXrpRCv8y1+it6chR/gFZd2XgzosizQ32DOr/XA7SwijS13NiQ8/wnGV3d5Uiqwr6cTlRF5lt2EaR+IR+c6V2cSrtONDiUHbEC1wz3Vl7CYQ6H05TpjSdjGM7UCslXbZOeKy2r7p318sCJlqMpsQKUJUiQJK57cxxxIsjEGjXvkx1SLG02Lv89rb93aSl/yzB9lyvgYCJk0liQlVzJZL3O7SMSRYYjVPWEymUQrbQ77MHSvGAAJq56fDeHw3D4uSURknJfpyWMV20RmkW7XB5hErYkEm8/El26wWfINKUl6VB6385ts7RLA4LvWBdn8dYb6+32azNM/54nYRwFqv2zEMc/krSCEAAWRFmQL+BqmjGiHIHB/9ZvriCfTGN0X3AF7f6EfMcpHKLZO4vh78i16J06tX916FMaXUZaG6Iv+i9+bbFdFqZwEVLalPdtLpxEY1euzVRziiNJ6nxu/yFy8IJFDOV1NWbzc3F7FuorQqEShj5hC/8WQD2yGzdyyxaO3LBE1NHEMuYkzxDS4KS892oxiDnBu0Q7+1zy7ASTs8PXUpEHEsLedrRDaa0F5EUKBiN68qUjTUsoiDsISAf/7T8vUMQX9NdXo6ikg6mDik1hJYsliMM/2wRVURZuPlPINknpDtY9XZJJkfI4QBOfpZfXs2c7OKoOg8QZREV0TpFbTMZGzN4DBDYL0nRLeXApzMiJ2RENOGJkowuDiNctogI6YhWhc+AFBQBUnTKLyaxoSyM+B5CsDNJZQxyROAEIwatTwPxIHENWsEXZ29Uk7UwllkzV16sWo03Pkk4Lujevr99PHnDRReT7Mod72SFgct92L4dP3aq5A6EKwstenDXXLukuEqxKJZ4wVAZhzp/+gePmTIXSV5fVPqCnGzwuawsuM0ZzRJb2++9sW27Pi0oSCOi4uaVjjLUOw0yMhP2i3/9TTOcZVzIONGw9yCEriJH/9MO//txpDmW6QP2ZVPdHrV9azU5TAsKVyUZGMkRKtZSPAU9/hJ/t263fO+s2tPH4thEq3v1lXvkEiSbG1XVHvYBHHFZFMLSDKXUT0jvZsgUBR5lpZw+FNpPEmSoGQ5gY+8FKvdNr6+z1iBZpWaUCZeoe+2ioWlOucL2DmpszoRIEow8otri2oSbqmItBfncVDkOdfaq5FJxYq8yhA0ypLpDfyAYnlQFJCTxeiHGWVQzKhXAWb9ffqgUW1cutFhfY/J7PUqger+DnX+Djx5VCYBbRDJ+tql5ENzs92H55egRRPNPbxYzASdTgu5tfgx1/fqBAYwyepMebpQThjv8IjeTCNyOXMw230A7Y3tlc2He8LkH7Zi10gcgmeiVOB4kbbXOUTdx5303f3R0+Rfvywhw7M0yow91rLz1A+B/vhp+p1lCtNVqbYblB/o/fjdEuiUHbWectMZqPf5YGl5iIKtj5rrs2zUKV45tQcPSGvrbLdWpNZxRlC+mwPZbHAYlY4l9xsSnaYUFV7NCI4lSWcZ4N4/Ym+WFLJKQWvuiucXK/PTQ/D6D57S1iRYkeF8kxOiaXKkhMJ3N+Rg9Gd/HPzuzGvss+OXU0pMnEpt1sky9qwoL4VenQdI0SWIASSDRehG8JGmirAkYFmJ1NubikPZ7gmNkPWOeGyEs1RptOlku15EWZpj2myAzbKq9Uhe0bu0Zy9cTqnzEaWl1xfsAz6oWu388o7hyoBpNs9e86MuTiOS8plnUnR35XX4VfXBUzZcbN8vc8lsH3Drd5adsY8eKPY/bNmWAfxYbIItRUMm2wQYZsqLR+jVzf5H9D/8NmYbKo5JySTtdUFEPgJQ2NsBSZxabgn1/V68KJR47BINbes2PqbPZzzHkFWchllctj9pza+K/SZaVNpePZg6aeD7CcIl02jAuChJAjIcGS6y0eMa8oOKJqyrLcczqllOFmj0F9Tb8yqzU7E5fNh//+qd9GKfvfzC7QwNwV0Q7izMqko83CeRYix/c8uM/se/8v/jF8t2N71+vyAJIkqZlkaURRJiVuvoVeyFtR0F5CVZXL/G9R5Ujb4q60ISxpx4dVnSgdP7VE1Wk616LHprJNT7VLY+uwdsmSNC5NI4JeQ6y0stHaURpjBmZViUKGQbcjTxSINfuiKKMcf57+d7f6y+vgMUDqXPu+ni+zGpEIH+ZMhu30xCrLS7I8X63cwtQGcoxqcR01JgGKv73azYbgWw9fIoIkZPmNWG1OnlVVR7COd+bVCd25ihsqAkCaB9uJ/ezJ24KqWjnXTqE8k2oQ52KyclE4vqMFy+DmghsSLmYEjcW+09LkrVQXW7zCmQl3kR+PSgwwKapTIrYwW8ito7tLWkuwpcvHVFnmn1uRSx3R6+eDlZ+iW3d9hoJdbE6/b4xY/xoCmxW1sC6+ksE0+OZdsT+tzNb9fsL/4l9/Y2aWr266sAMEIRY5lFAKaF2DtqEuF2adFDGRIEAZYXSc2ElNav7x6oztiGzPSO4q318OdSOBsnzR02CEtgdJnS+nGsGrFTcnQSlYBstmFE7OihbdUHJIJS5WSgGgzyYDXzSZw0OtYUCPTkJj/+G+3/eSvSTih//oCYfn+fME02ZXcOyu/el5CTzAdN4vubTYQ7hh8EiG8JWQyU0RHwxxtNjKN4sUbGUYOxzl1a9HNpAFxxVzx9W3CsUDklI4r6By3n1WUESKQ9GmTjGNtOyTw7lMrNehu2+xIbvL7l9khnG9OtPe+M3tXzymBmc6ALCMO8ChaZ2eKB2hDiqcfWuDDiCOvOG35kQu/lPV/TWyYHIGQoInh/vvEhNzpqmjX24krS5OLaaqsE8FLV5O2vX0l/3ppOC4I1helLn+od1iCnksvv7grAiFUEVQ7ycOOzo8c6nYdbu5LLStMwz1fBdA0Fs2cMD8zw8sZBtkPSXnLwoCqyTdVp0UkUIaklgsU34UHdWgEZeSmZwp7mruCjpnUzF0c6QUqpRwmlUEcwXq42HtGvrReUwm/m+d5fN/7Ne5FxI+n4mTC9jS7iukoKw0Z19q1PUBTTGNa3znpMtvEsA6SoMVnFNvt1684lDSqB9HKaaUc70vwbry1OfYLja8eN1e83gK4Z5SwRBgN9T5h8e5arzZJ/XM8d5N2XErXfZ8owCJAikji/u0INpqSzeXxoTAOFQ5ReXIf1kZb6kc/I9qw0arzWFKy7TK3LsKqs8yna/ajD4uvTqtFRCEigEpME2IwjhBlluHs4Ql9ckFJNsTYShfNtDOoj2frNW5ObhgRCUpO8sQDT3WtIDLRe3leA4mFOSZLUAW/HuLuj6GyWFqBaRmYLkqLKRxuon/RYqVHPr1/dlkRaVoWwV88qFpJ1DRa+W7E1g7r5XnksTtesQiEGbVwWh1vuWXNzvcCKXFIaqgieAgJHJdv5OiMFtgppvZZPHfmz/nUoFi6lKiM9iMXluw0tN3psHr66LGgaV7yu6NF1yqcxAgTLMCRQdjrbd0uoNumAEKNpqu91qMU5/WHxlUVQhNqinWWB6P2D5HxLHQ9rA/bq9ftQ2iXBsBavQnvbPCYLgkgiieMJb5uLiZ3SiDLo86V2TEc5IvkaGG+0oRKvZoHQ5VYW2a7TFFqv5J7OiiC+PneIxgcDmYlnvixghEiGARjSpVtUWYYax8/2rL+/rNSmHvsEoCtv7UrD3Zr7q++9HJOc3jbSi1lFCcORmNLFbJkimucIiLHeKU/HlabJAyFHhe8EqN4iYIH1HRkqTw7IiquRy6+uOS6JKlJra2XGS5SgE4XtQ5JrUu/Oeo/B0qJUzeDcm3ECMdh7SC3G64QUy5wl0pgQOEBSROUHgJWoMoSaSW0WuVLnaTlaEtrwRPIqg3n760IVtIJV51ceAfMEc2aHXlthgQBBEBTHUNqBfH0Rk0qNqyBdbDyprWSbbffT+ReBSCUhBJQsZHj/kJrfO4pZO2mul9fTUODlvrRZVb7b/UgZ38Ul7LRMIriZEyxLFSRLb8chfXwEo4TnpWo9rRgKBIuEFSWuSCm5yvyQGnSqTFfCs3EJxaORzoEizdyUBIymsYigYJyGjpPVn/ep83chZ+h84nuoKWXrO1t49Jz88eU6pozuzoCNXn7vYn73IbdNSJ6yNoTe4tJ5wrPOMqb1Rr2ReVGwcoFQG9CltWE+GkFm8FRFlEQsv53I8jakOyLgqAKWZaMDYzvgBKNVff+u1odFhFVN4avL84gS95/WwtuJl2IGVBT0vYJmSiA0+4y7zjgWogRKXOEEgTAQOW8Sih//Qlp7WvPmb3PSRhWlSE0lcqdWxiuiVM4TmCNAQtZQjH43urqIRJmmScCIzqSSmNjKD5+t32QatLc5YJqan4iyWFobREvdgazab68zodfBW6yE1+Tz/sX7CLCd3b4CVm/mVI1HHLGaVjTfO1GxC3i22K4tN6dlCudeUTMzLyxwVcm7/NIWhqRVVF7R6LVEksjXs4xnBV1lMcvDyJpNtvjk4+mpJ+80RRKF1jRpt3l89ibvfNocp9GKaRqtRrCdnq0KdbgjW2uyri7v2J02E46DzHcSqHRGPdpf3a+jDJLSQT9zMoQLSCtPe2XJxTd3IUNl+d6n2WVellUAHo+itZ1qDw+I+Q9nuaQqEamKhCxN3viw9tGDwr6e5hSkcEUxseNXGPDdnYHivFogsd9L/YwvbTKtNB6ulzH10Z8TLsmyi5f2eo0AAOY/fWFPzi8DhsIyFWm1zTgHgOsPRo/56btLr9PwEYzlgX8TE1W4LoZP0TSlGbCZZJzBe3FZERTOEC2zoLanzc82nNkhKygQ46AnX6xyUu1oWo2NFouEYHjWnadqi1V26kSQcCRyQn/mUIM+vzlbcyafBC6l06wejR2y0dttFeevUb0vsUSwcoAo15jEi9WRFI/frwr2j158/SXsnHR5MnY3dxZnNrXJD7HytAO10kkB1zPd6XoasO2eyawcWiQm59zDHTIL1pNljEnB3OlzxeZmmaOqojsPGhh5EwvyVKOR+hA5SYUhMD57sny9dDKckx889m+2xd6f966+ni9jfldakTWVlfjt2QI0h3IchSGkUFlVNEe4iwRQcr8Gc28VIObkKY4xHbot053HsZ9hYvTwZvvxMF1Pz69SkqiQ9k9/6k2t63EGCZ5TBur8RxtBqnf0eD98NfGiturSVdzasS4BmbrLWH/SSazQfJp/9aaScFJWAAAKAKWrWFnnkDt/m0qmUJWMSmNl/tYFUosNoKmVZLV2cE3yFshoqLWBCgILkCgGbGAVdRPb14ucMwy8XsstDqxXERC7n47wm1/HrRaDszAha7qsFPMbWzjsofGZx+1/Pvz2N6m0e1Dnw+3sYoM4s5NeJ+YDGagwDDNpX7bdzXncOHzSyG5WFB3fvitHTySWWX1/kZI0JTa7EvQsO66KHLLdJ3W4mpaQBZABJc1kRJlhYfSZOb9dTMIKU4+eJ29X1cO/1L/6dUpQyg4+98WdgQqtd3O2yTkhVFgaBH4JSJ4LZgkmOYWL/QLSHNT6XMWRWG+Lztl0CxWe4qv32z/6BRe8+f2C2VEKUu+3QBjO3jlQFJW9WnFz6hAAmI8+Md984Qiy4BcNAYricg7pKt7E7POHeHLFfT7YfHWRliXCAPACS6uj9nwsHjen38w5k84TxtB05t1pQptGbFdmHdLZyiHqRrmKSU01uzLKnRRyjEZGTkRRBUxdK9OHsn/tyTqbOkkB5Z2H5JtvmYEYRxWJpW6dh+F8bqs7tWJ2lT14tsO/+e2abD3Z44PpzTjAhL5vJiuzH0QEixHbqI3XqvNt2P7oT3ayH39Mq8y72cjPTjq8980ffIKjhVabyxZ+WRVpWtHa4a4RbRBkMMmQrIygrlozZedpez2Z368TwBw9T36Ykx/8Re2bf8g6PYFNvhnD3vN+df3W15poFZGawpZBWJGQZOJNBgCkCFQAfribO2lVsgUYHEnO1Y0r1kmGhstV/cUOfvVN1D3hA6GWZmK5ubkvRAPyx434x/OcRhU9+lj+7odMMaot1a2RURRleQFAnjMvHian7+POTz9I/vCjX1WIkg1dEdU6e3fN7Sqr0xVvsGVCKpJSXs4Lqm5kMaQpsnKsgq0pfBFHrCJgyAgopTttwb2ZhRQnGWK5WTEtE9iruKJpQBKwrGrVdNtvehZoCQFq1GXszxy6o1HR9dL8cI8Pf/sWy8agz1sXs5gg6e6z3uo16hQ+VjoyS159w+64XwWdf/zLpvO7P6xCqh3dFb2HH4rx9et5AvjaoAHs2zXkQJwwutrYazg2B00KYqjyRePZR7O/S+rd3eLi3rLjgtX76Mo1f/6C+/3viKf7MAh/uCm4Yb+8WxN1MfYrTpdwVFaYoICSzkOEiQoAhLW/OBlvvHkiBhbd2+XtM0foCLwo5duiPOyOT9NGLb5DDQEK1WriEnUjhMcH+PROrK3HGd9i1nbFizinGma1jmg+tlMKYuH54PK9A/inn7Qvf+/gCkumSZJag7Rv11xfsm59WhXZJGIkOV0mgNA0BgDHA8hNWRLTbTXfIp6NQqQwuLZfT9+/XZM8q9YUEcUkT6MycRd2BdVevVz4CWocZNOtOIRLl9PqcrIsu3pGopUrd0xh8282w12VVpjbt5HWEvhOh1m8nOtdGrZO6MR7fS437e+jJ//9i/T0794EqfIcXGWU9LSRp3m2dUS9oWDv+iYTAKCbXRqpbVQZcMgQLMNmceeDF/nfrg22FpwucV6xtEOwZDn6sBP/6j338RF0otnFBjNMFcOGFrs5X9fZKsAUz9XMVvjyMmWLoAAADf9G/b+h4ef8+jqE9QP4zm8ckItKYqXqtPV58tLVNOs8ZeodGRbLTamzBXl0wkYOYyx/v6yoqqwgQQBIG83cyhU1mXoAAq4F5zEkOw8aTGyjKqoEkUpjuV5MrUzoKeHGhaok+Itcb5YxIEmWpDi02JRVKanutqwPmRyJpLfdQINVWvxqEjBCFZa8qjVrClosEJMtJxHijo+p1TLWHhr3Vy6hYDfGhNykLdjkPVktNxuq2XK/Do9PxJwGl6eot99QlcLH88u82652H1H55PSe1POL7NP/unn6718GQHjwfP52m5Q1nSFGpu8JCs/gZHHuMSSnDrpVljU7DAk/wPQQbN1CkYVqqxk4PhtDJcMtdFlIB7wgK+X1LBs9YmNILG6cIk3L7gvm/QUyR0qGAGRVrrFfD757k7XLc5vF5bP/LvhfxH0qpeJ3k1x6Tn9ffPTg9tuYVgfUu+o5eVns6NcXBTVssAy7uY8kDjCDExVvCTP85savAE1ClKeIaplhydE49YMCIZ7LQkyywyfEkugOsmsLwKJIAZMHJVR2a9E6BLpKLC8jo8thigCoIth04kJCbXH21GFqiqSLlbV28K6aJWHFKAa9vE9ks94fKMXZH2xVryw/LocPpdDNmkfF5Z2VEiTKcUXqfJBCguy2qOk1arWLebizjwKGWVyXzZ2OqXuvYilDDX2rPW9Rp99YSJFTPPgI/u73W9J4ciLdvLz2C64hoJO6VdY1gFBpr3NYAcxpnU4pG8iF/0yhi8Ucd834asYcH7PLL92TXWfFR5e5+rydRaQsXb0DBypp1sqFW0R2/OKP6Nf/wWkfM1ukMHyLVXri9mwGO+LbsRzbo//K/z9NNXfy3J/G6kfVd9TP+Fd3PAG6zdWdqpFiM728wVpPwDi3olKUi6L+tBPYciO5mUwzqSbWQY5QAAAgAElEQVRiz7VzrsevuUa1KUXKCwlZK9ysqNon6BYdflx8MRUJvwKoAgwDjWNlc2/TAz1/fYW6fRbDMi8KGlprILb7Kio3Yy8nzR1pNXZjfqjkqce0DLW8vYWDvtEyGXT57661fcUOfN84EquI7Rvr24lVkAKMSohJushyUu+y2cahdEPIfIkPwk4jXIRivdHS57+ZMvrgRW266n2ivf37DdEwuBIPpOnUz9oP69n1+STMpRPVq6Pr6rABshJHMVkGrhuj3i93WaJcwr8yC+tubT42nTdvi+Hn8u330fOTZBat75D+ZEQmWBZOf8jaQtI40HwXg9Db+4m8/s2ZbDA+IXHafguS1XaRM4o0v4CrjfxMdKAzT5APcsLYIeZQc2fwaXaPu9kt2WlT5HSccDtNxhlvhZ7LifOg+elO4Ep6MhuvC65eZ+3xFsgH6/dkWwyIfj5OFK3FEtnFLdfHm+r4+fTLfM/0E1wUigEz7aGwOr3FB/3g+5l0VCsjAKskFeDKBq1PhihCwN+s11lN3iwyAFm+Pth4elOrbsfCcUc21WBtvb+W9/SVFcbmSMRpfYdazmYu15DTxbbACKQ5Uve4lZtjUqw12KJKPPz4oLCdnJcl8e23PmLav3g6/d74efPtv11KOzqMYlZVGS+qdaXg3a2LFbXDxILzffRwh8lzAHC2Xa0igNiP/8Qk8hX8TBLwZLn7obh5fxM2PhTt9zPjkZTiRaYrrNJmC7w5cyvduxMeHqJ1IWCXOdb97TgMcSVIqtlpoW0e+VKTiS7PAj/nVLFEpYPooOAaB23WXqfehP2ZcDrB2CcPd7fbVUCxwwNp+tp58JMlTt7Fg5+0y4igIsvJAlc+bPrjhDCMV2+xbLCUvFipPU7Tauib74FOhtRO63JS+7wXRFlcqGDmdT6urV+eZf0+mvtEQwo2UBSzgGftZd75SY8sAVXlyfQ8VKitV2BAHT6fnLF9k1zO2aHG1+XN+TawuK42XaZE6yPNdxv7XGFdOv0O9O9uco6MrVJs9tOrjM9SutkSFDopzWftYBPnFWbr9pu7dcjstCpAH43W/2nSGhKWlabQrNNSW6Gc89uQaQhVRUubc9DryKgEBN6u/W1CU+zx4wHvr+ETfUSdL4aH+TptSlbO4OW79PDDuhQpTf/UfTjMpy+tAbc9WwG9K0esCuJCgFInH48jSmk36IpDDiSIWq3aXF07Ga3w3pbQWJaJSm3/pAlXl5v5nHkxmN+ugoJrt6Z2SgDM7h2kt9uTkzBcTbjRrlD4mIxjgBYLYWQm2zAUiHGIC0YoyogYGTQrUvnlPVX3PbItLcIHn0thHud0dnOVtD8dbN6MgaZJbD4rpWSeqW3Gpyl3lcnNmtlQKAKF6/Pt7lF1v1k71PEH/h+qbo2KvJKihaaWLMeLgNA4J8Sw8SE3X2gvDmrRD/ZQte3ZlOoZybpgYObHmrraEGZLMZUyPfhMvJsisqiaO1Qw/de/Q3zj8OE4PRHf3iqifRczuMJU7XhPKBeX0xALMsCMEEUCR8gqkbieletUnGfsxw8VdDeBT5snxamlyZgUhux4w3PBpdv7+ZAq6XL82v3JR8l3X5XD4fxNUGWUopo6iGMn3n1eXU4zod2hrS0GWDUEWJbBerbFukHMbKR2DFhJNBgMyHT5/tylhz0KLm48nindDDO4APpOjw7YFtjegtGQr6JNgRGl52dzwwSJt4kgEA6YU5siKLqtlQTHZ0nBKszbCdGoefHJJ0xczbfQmm2xfNzzJoXIsJKApqlY3Pq1PSkukyDMAYD67oFBFtb1rPnsqLiznGW6t1+d+TwiaeT6OdtoasTt6bpiyLLEQO2DqQu7n/2c/uFWom078vlnh3RZFTffrJVD8+amlDqtlrCYDv4L+bfXlAKYDz7gyeB/+7/o493jo1cvm73tBGf3K0qUUJDwR0/VbHk33haUXoOA5yoELLJOOraT6bt10b6Hf3TCWO/v4Imwz063oi7RBRXYhdEtb2zhQSddLT2cZUcfV2/e+VItimDoY0lvdnl/MYsPnwTvt3SjQ82nFU+xek3OvTCNbU880CLLDrh2vQLc9r7+pC0k7y5jwEpik3w/BlWeYcCCApPaqBXnBlpums8MlEWbIM30XvSl3zbSlZ1XgG49LV7O6f4OW3pZAVlcmkPJ+WJMtHbibfPTGo5Pf0zKAkNKkwjYUlOsM2mQM+H11txT8izOQyRxScCPelw2vqSeP1fWywAlsWaQ87XjMQ3JXbuw1h9q7ulFACDGkOQlbGUA9P9l+/11id2Ao+BgqGl0Mf23N+qn3atTmx6etLcvl8o/5v5+AiWCOPmrR7z9v/7DJ3/Ka0e3/64ycR6vbhKTgdjxQOvDTpWsb2cRUWsUac3MAzDZcERS0WpNEEw2QIe75e3NBP5s3H3oTngjnXHNaBX0f8JM7yzT3F7YbI1PtKfkZGHHmGrw6wBQUv/IjK8u4v2H6YWvtojJOBRNHrKtZulsIhz7+gM9T6ybkJF4Op9vtecP6uhylmaAjGjZWpUVQbEsW22zimy2SUoK1nyvQ6MyXgVEhkl7DVsGHtsYILa3G12tpJ89dX7cUBUgCNAZCesvJ7B7nI3Bpzu0+/uzjIaAphkg1Y/VGLUIywW5feuJda7MKTKRH3VyJ6MpZN+EgwdDauVVHJHmpTdbuEga6MHKrqR6t8Wu3k9iAAleJEAZlSRQP+uv1rYTkDqPyJrRJHJw8xY+H9o/3qKDD7XX3yfmZ8RvF4ClK/LDv2z88K/Cv/noQn3m/WFW8WyynMt7gVvlaYQPnws4XE4cwDJR2a3lHnDGGSzZ/T3gB5LO0r2GdbOy4X97WjxJJyhd+L0n+Xn82SfE+u1NnbmeVvUOSvR2NHGiFJi9auYDQHYetdDdhTf8VDrf6uX1LIWCxsHmQz3eOKQUTIWhQaTTcwcKKuNtkL431P5/iuCzybL0MAzzG07O5+bcuad78uzMBmAXu+CCFAlBdpGy5aJsWS5/8AdVucqf/Av8J+yyZbtMy+UqlkhbkkVAIEAC3EVYzKaJne/t7pvvPffkfM77Wnoe6Lu+S8k6Ycs0Z0xDZyN35eegutXgkqHdqqcx5PIQGojYt4muIrIOKCj4TofcLBp/sHf17zy5xpO8aO9L1pcXcPeYnC73DpnbNxuKIKzs8hPcuWMQvomXN4FvLb2SIQQIonj8uFp6QQmL2am4JzGIFmxNcJebxaVV8NWu6s08gvlKv1FMh7OUV2qy5xVMtcbRSjVezlxq1Nn1AmkmlLvcxtGaeHq7VPfo6xHdfrp5viEMzwBQN6cr/T8dXBk973oaKtReJO127LEGO53ID/ZR5DsuoNE66TZQlmc3DmBrx/XM3yTIrOnhTaEi+N++ORH5km7scvA4eMV8uiWn58uusHq1bjTS0uS9azunjaOKNbGDrJS3+2C1TPsfoDchM77JGB4xbPeT4/hsSAfmdAgaNeSNJ7kqFnlOWEXkcQlx6ueJk8tSmJqHWhLZKcw8nz8ewMXpGsOsULtMyJuqEdyEteIyJAinOap12fGi+3H77Odx7Y4a+5G2ZQRfXqKjI3Bziqtk6ZcAAGb3U/y1WzuoSIoG7KuLmxgnYZYDyELp2btV/zqpi+nNrd4N11BjmgNmeMLAlR1jVaW+U0KAzZ06XM1uIqNWKZbznK8ZOiMrwTLBrC6mF7dEVvnadkNIQySj4GaeenaIG53NbUwgp4lOZtSC/X0eymA+j2MZb66jbpfE5pY6fB0oLT7nNEpoeD3TdxQuzpZrZFY0zOPADqiWLqLuURX+s6/exNDYKhegXg/XISf1zEIwGTo6LwQqSgQ6PsXtgZrEm5ETZvKWmhWayk4mtPBSoYHDVPjoR/rVV6dFm5/7XL0hBIslqPN2KBkCy2IQhSB3gziRtszzTe8gXnp4bye9vEqPtjLnapSXBB18l54lNVEpU6yPv/AYVXUdwrXl5br9QL9+nffuGqHnhoaRXM64gz0huFpkWVYiQIj47u8XXy2VXs0wmTibPH+dcSjNAQakxPc/lF68kh8bs1HRaa5OI0nvHcDXo3oLxnbMFnHOqjwBZltJ156dKjKTLmdBBoX2Tk+ON6kIIZhfrqGg1DrNmkKdmJOwfTbxCEUsin0CS1Bpxcm9/sUxmxjN+GwMRBl5b+aNAyZrDPjhW4eyDKruSQlTjE6drbZcxGEg6VISEIbEsZ/4sbD3uAr/q89vMubpw9ilwM+zsVUq9e1tJaXW1U0pGlyKRAEXotbSiDVZrZbloEMJU7hTH0AgtqpBzlc/2I/OLqYRUySMLBtsurIzWcOgYiJel2noJv50EgrdI+GziaKHIdr66EHw2bd4qyfk56d+SeVPfj/+esJnOVsXg/GGKQTNnoTAMOLMrDPrBe3sqV7gTRMMk5iptFu6PXITIOLcA+337/jnLjUarUZuEfvViQcwNFqKM/TFv/d48/mp/qCxnLA9c/Qi4rRWrxyte3dr/iKAoc/1mizJgMjGm4JEUc7hcj3zAWg97XHE9Qgg8WoSAKwNdhSOg35EBSGeuykEJIziHLJFrvfU3kf4p5wAQIPbjKlUpvnlsjUguNeIruwkgxB1DmXKosWXr/RjFbqhYIjlauaRImVYnNjMvTsAfvqtV+78UA1p5tvrlRVSwOzdV+Iyur3KOJVLuK5WlILcMEo7iSc3iSl6IWVglFCotNqp29lv1cvbayv2AcIYxDlJ4pRw3QbWRDvUmlyagPB6EsjHR96vl2UJcGX77hb43ed5d6dO10snZJt3j9yTVejksuZZQK7pbObbVsZqCKly7kVUNJUoz1abkoUlZMWKCYK4lOuMs0KHA/82oBR1H5mLoZfF4TIEwjuPtcWvRnf+1Lz+9QvpXjvzGMF6PQGCXtP8dd5/r5NMHBpsxJ0qzRMnywDDQGfocJ0OXlz5oPGwBbOFxTBRwGHLpbWjPooTnGUZljiSWC6FQZhQliVEkLTD7zI/Xpt9l+N4j8a3IfBxT/K1LdWeQLRJibi/zYDEmV6NtXtm6ieqKoaXt2GeE/MRPxyRnWoMB0ui/Wg3jBDJ3LfXIZW4VOqKUZoFHmQgRod7ZElYsVZEpcCubWcTRQWvgiShWr+Zz9mn+03JH40CGCQcl6xdv8gpxdqdbpH4kxXURQAV3vd80u7SNFk6VGlXTY0ZPnekbofjWFBilw6cTWZH1bp9lfAF3Tn0HQU7q6QgssnmuYDTKGIa7KnNcJDDmALAs4wo0zCr9cPXM8Bh2P5O8+2XG6yotk2lZw90uvaPd7zhyxO01yS5kr04iVlJVWGQM72nfWrPk9QhJk/4dDIN5I6K7Vcu2HrUgv71NW1oUn4d6Pwq+8H7rz8L+/t6svZYWmYZZwjuZENhkeWMJuYE54W0rQ2t+t1KHsGYD05chFmDiasDznZkfr6gjXsNlEy/GOd886ASFrGD5PjWKkCJtw/J8jTGEEM5g+p7XS5NUy9Yuwl72Blfl0welJTBJJf3vmfOZ5hozfFUUgsXra8iAvRuMY/4g110s+q8U69pwfjK1fPpvABenJOyBFL7jumdz+KSQIaFao0LNxES1N2t8uparKg8KqzRqhTr1WpV1u3nSZ8FZVLUzJtTqGwsbY8v+nvpq4tNzFZ0ARjK/DZSPu7//DWWJV1lNqtU0rjUTeTtAbg8DSGLiPFs++SLRJTEwstpvdMcdFvIniwX80KGAWxlLyzAIo5HkONqxwMuXtsEZknINvHwzNG2G4L1agV67w2E8PLCjanEhqWJF/S/+eHv/m0y6CB7FbKgpCANcRGkBJSEMZXSyWmaQl3J40Lfb5dRIuOLG9TgSkoFjU0LTVndFr0HdeRdfTkh9WpbBxw5m5UgSihiD566rzLHo0CGSkqh1GnSNF3TahXgdjd/dRJmSYn5IgN3vrOfv7Cw0O5enRrcstCH04KrPrrv/HpoPKlvbtHdHhCldDwp6vLN5x5HcoBAgdvbFebyJMQCIjxI5ZYeTlwC2fped3NK1YqQrZZxkgFW6z3qKxffpLUaS+KgZL21IE6XiEPG3bv47Ntxiqs1ARna9TDp/uMHv/w3jqZrKuctc0Uul+Ni8FB3bucZIkWp3jcvrurvsWN/4UWEa3zwcd0frTxrE2crl6+DZQQZBAkSJSg2eyYJbVRBG5tr0OnlSt7fEtyzG7x7p7CmIUFeLOixzzMJ+NGHb18yDZONAy8PC0ahowBiSiAUWvXV1MspoUStk1WItT0lZara/Kw8lD2C05ShpaxEs7R9v1pYwXoWyYKiKjyyruYFKZG8dV8df+7ShN9uQrEEvChyNM498e4OKKDZtr+5CKMc83Gu/MGuHF8uXPbu0dvfshrR8zce7n30pB/9+Ce4rzpR46npRyWaLVG9UfxyWpAS1dgSbzWy+HRMmKqKpGSFTT2zXAoAJ2qFA+sd0b5YQpUvfNj9/l328nRW64uwCG/crFRVe1GUCdx5WFu+ukqkrU7piOb0Ir/7T++t/tVvqMzQgmFlRcimS35L98MkyiU5D4yec5Hc+5P8V8uJHxTQ/L0/asQLK5ourGDuIpkJC4bFlAiSWIBCbVSZkKni0KPI29g2O9iXE2ucm/LtLGJalSyt1W6vCo5D3SdkjRlBYQtrNSeSzi8dwnJswdXq3qtNCaBicHpt/TpkTR0xzZ60OYsPqinLFSlN1ylbBqm2p4Zqj7XXdgAEka0os5e+DDip2uCDFyeZ9vABCyUi7nSKcDFPCtC9p80jpc2vp67tU1iC6iFTQjY7y9798M3foYrJ3E5B+6N3TJ4+/4slwyCxsdco5pFpDXN1sDW7dcIIdZSkqEhhMN1QrlJXjHLjQwZlLoVFEgNYcJ1t4foswc0mewO2jtX0NsyNhqD22V++8Ep9wNpMagVyRWdWV77+YJAtmcrwLfedH9VWw98s8yJMKt26ppXLREaL64xjcLvPOFk+WZD6fXDqxySjQuPRR/v5Zr6ZzGIwmhKeh5hHZSE260xJZo60u80QmIMsDieLMKTNHQMV64AWrpviVg+zDenqmvIwx3cbflJilUsWU4vIqpCXjFHhN8QMhuOMMvKgo2nk9VeZVmMSdavLTb8OqzWzzrEcda8tSrMY1VjwnSMusCa3kYC5qumcDJOM4tazdjl+bnXf28mhhFr36yxYXYTRhusJy0KFVJOjyapgZAHEQcmZZE3f+eHJ7xDLZZtUevjdapHA25/eYEkRsdjUNtEgeLnhukdaGKSbRJNtH5QM8DwgqJrebrDrWxcXa8yTtQ1AKXV3vVMLqM2akhiNaBK42q6YF433lZ9+tgiF9o6ko/WmzBJC7bX6tJ/Hgng5bn7QOXmzTxbWdJWbd7frYujI1fj0uSvVG60q512O/bLIMcwhK3G8qQmDneVskRalzl1dJpKu6mI8y5pHNZZll29X/Xerib2CLIenb6dRKbXbEh/5KUlTN2UMRdFAIbNxsE5320mcQoGmzsbOEc+Laq3XIraf3lwHJZLaPR4Kizc2I4klu7OtFhfPE6G+24OsCoPbVUGjoFSw8MMjNvWsyQbmuaCw0eR2mdA7HzYyd3nlbx1toMg3eqZU0YFQvHpNik0GCW1uh+OoZJvCcp0RCAFhv/u9118yHPRCpv/Rnr/0o9szt/pO1Rqv1WZO76ZfzrjmoCIkyPMNYbXwiCIlCeIYIG8/rHlfXVGyQFV+sYgoGDzKvp0ScyAzioGdy1TI+UPeS7rd8O1o40POONzSo6SMVus43UjvtRzKkTlzp3PzE/vxPhefvE7Vd++b8W1y/wCPfj7E3RaEnP1mCXGZ0YLyRr3CcSyA4dkctVROx9fXZbVVNYXNid89rgsKX16+lh5Xvcl53tsy45dv/AQbfVXM4jQpgTdJGJYVGXO3Ei2uw04XxkGBEaLx0ksgp1Y7PZ0U8fpqnFDWqBs03iwixCJSys8OSTL8NpW37ul2qSF3sUnzKCGagj82O0zsO753O2F6dSm3ridxdb8vhTdTt9ATKGJerVQPdyQ5/OpFwuDc80pluwrpZi6xk00pSlnBPP6u+fynoC3bFnj4ER7eOuHGL3f/uHX6/BIZVHlcfjPjmy1DSlM/bknRdAUNnhAus23h7jNhdLEAoi9sN4qbb2x8cP/qm7x+r5llEl68XRtHLZy4aaYpkVeEq4Tixv0KFNV8cTPxfen9uu0FKbt7GH35bVzt77bWf72SPnzGvj0R//Axs/jqvJRFyqLReYhYsY1vN+b2TmudSMgdz0GrUfqB50ZiryOyanqzrnebkiCz7nVpouXVqHzwuJZcXvteITYNVMSOW7L+IqMA8kal1weTM7faFbxVLNVFHE1XIeUqhq5AwqYbO8yA0pBi240JhQgQKj07puX6bawf9OMh6JKLSZqXBIB6r957vdsAaQqS0Tk+NClDnJuFz/Wai7mExjGAPMVad/tOrbC+eJ0Yd9q8M3S03YbOzi5Z8HrOdgZp0vr+Tvi7Pw8b3WAcd3aR7UaFn3P7H+2dfXYLGVp7h75ciM1GTfJnNtNVwHrNmBLOy/m5zRw9Dq6igmhKc7shzP/1KVUlL9C/t5uEMbFm66T9yX7ym3OV5VUQ8bJ7uyn1bSPVD2Tv7CsnQjtbhTVGuw+E0+vAz9j735F+8QVz993g5XXlowNiWTEpca8z+8UoA9w7fwh/+Sv9eF+eu5oQUX27VYxn4/NpXj2qeG4p8UCSDQSVCkwiazyZe/jdD6rh5dj1OFHXaLhZO0yFI0lQ8jWDCj1hchbqBhssM2NXjr3FNKB6XwqzSG9gLyKkEOpwsUY1vNrkAHHywbbGxiOyXQ/eWNXt4uVlBhgMcPvxe9m/wHd2JMzgdB2xcQhA6syXEYcT3iALH0Ce4ObDe43s9e8mubh/T2fx5QvlSKJMGMnG5GtHEkrp/tMD8fN/7ghS4WacJCk0LFJobLW6N185DCk798NXG9aoturp0NLrIo5cZKowyodvY1QZwFLM1rzZaNXRzWe3lOPiov6BZkVx5qcM13toTn85lnhQ42K2Z8xGrtwW1sX+nfDVhRMXUg2HQfNAn94qtdVFsfVp//Vfh2ov3mS1QeEW1QqT43cffvOXt2nR+M8+jv/ur/L2luwlcq2x3RCKyLVHv3pLj/bK8aWn7QwYrGRAbvDUefvGTnPuyYeV+PLbG1JtqqmTlLzaGDTEcBbQvCgyjV9OkAnSIkfqjulMrqcRah4yG5ds7bFrhyReJsgwUyr82asU1Q7rKGAVxq48Tn/2Vus3yeiNjzges2b/D8D/5Ow9qBgNjQlW41mSlyQLgjQvUEOLPMeGEss3Hm/D21/dcPV+R8YMb7/MduQY0Uz7/Qe/+RdXJdp60H3W/ot/HhCKIShwpZ47uKKZFSeINzkX5Z399UsHitVum1y7pslmRQYVJUvx/CSATKXS7HlnDmSUKnScFDFibAt1Pg0TWaK8WdfI5ZAwRcGAHDW6pRuyEthscCvdcJGTAoiRvCXbM3pwPPnCM549iH97mmGIZZ1d+Fy1ymNu557zYp3kxz9ozr5+dc221DDvPLnXQv5NpKRvPxvWnmjW5WUgbu9yXI2lWBHo4tWIMJTdelBLXn0+R7WucrNmu9vd7YacuzM7jjI5z6KNXx+Amc8ZQq2XD89uA9TdY9yca/eRZQezSYi0miTK6viL2Hz6nrL49Q1fk/ffufgLZ2sgEf+NRRnV5Al6J/1xLivy9se7KJwPF1kSpAgWtISsWSsK8gruaJLaAevTEXt8T8oSFuHczuvlIhMF9dN3P/tfrpFQazafJX/2ErPQbKol00AXE/lgSw9eThoaj52kUR2/cKHaHSjedSxzqIAsxGrOVDffrADljaPj/PzSSSjH6y0jK4XkxsrkLudjMQUIosyrNkAZTP2ECCIrqSJO4yCMInPPGkcECpqkFgsf7d1bvrBg57t97+2Jx+oKjDyKACcJiBvcV0GK6mo+Pbu+CBU+zO78R4/q5emXURufnCa9PbC8GMWcYSq9Ay2JKVdMLnxNw5A39ez5tzGQ+423K7zV6jxs0uXtxCVSq5NeXfv8/l1xcpmIVNipBdOrVV7bl9OCb/YZdzY6nyaUlXlsdv1v0aNnW9zoz0ewsvug9fWvSKuvkmzqU2o2ci9EwYYyUKj+wQOhvHk5Z9k8LWABMEtKLOByBB+j9i4ejUdh74kZbDxFFIQUq+vrVJMDVpjOSygC46759VcZpwjVnS0JZJcvI6PZlman/v1HWuhDPh29drn2XrucjAnjZ4wsl2mN0zrOl9ckL+QHT4TVxdAuGf3gSAkzIR9fLOtPdMv2vTAuGU7bERJYWqXlEEr5qskhtkycfK97cRaVUDJYgfWsSGnH8whIj5/JxdlcVIKFgyvhKuMkCszf/76eUET8+XTxm1uMCnDv04Nm/tVL0mRnkSRy2DkbZZDF5tNnmjNNmWR6k9WaTOIUYnq9ooC7++mrn5VcvbvTia+dKCPmdjt6PS7l/aOKezYrgrByoNvXy1R+WEMFMmo4uH5z6RAAMAXmDmdpD3Yk+PmPQ9x6sOu+uInZelNjGZGsEPa9wC8zCLBo3rvbRK9/tWodmNC27QTgzA8hLnP4J3Frl1y+nTbaEGUr2gCBIGiGPwlRsgwKyKlJnikDdG0DlsX64Y6QzF9vBA3AIgrSDz4VFlRObkdXidzZr7ujTMtuN4wmpWnHFKXoalymAd57Uktnl+NEOHjQZuKcY4KLRWOHcYPFZJMATu3qtlWIrcZsGOUlRbxgVFCcG4fim9c+ZVhBNqvFfBLxOClo+71dHq5ChV+dWJXj9Jspp9JcPPrToygBOJ5enX25poDh7j5hi2ydCCpJZT1wUn80KyBijGfflW+vCzGfXPmijiMvhSAvAQDNT5OfedzxIS0SIhSzDVuVwg0RpEqnmi/nnmMRXc9WKWEPdxVIWQkH4eLtjID/QDk+LFCvCfw/f7MoAq8AACAASURBVEur7x4yb0/toBSarWqzHl0s0yCmUMLrEMm9ZncQf/Za/sEHnGNthuMMhX4uGBUF/vd+qsv+51YHE7ZQ6sLNXNSrHWIt5ssIUISrUZCzVcYvaJnnuF3jmDKEkrBeO5SUn3wEl1gOR9erQqn35Mmy1szHk1JT7KDfxlHqe5Vy5HFbO3qxOrc6TzpsGhW6RDcuoFESh6EflbzRLDZ2xh/uh2tnZhGCzIaSOnBwzL1+7nMyBdV2jZ2+3WBRM/n6llT4q1iolaeW/p74/KS5F94k4rsf8wkBk68vVmlBABaPH5NpDjgRRLhb94eTzcYnSG3pvT18sZQ0tHyzBAJT5JTBsMgKgFq98cz44SPo3kQKOR1yOpcWssQwulz4ThJaUUnLElJkbm1pwA0BW5PffumB/8B88l6QbVfT6U+v8dbjSvxiHMYZNJqViuhO3DgAxn6T++yKijuV5pbz+fTRP6lPx2V8eVOw0ap6d6vGwP+Bm6Zk8mWkV8wCPq7ZLzaiJtVFz1/NojTDvBoRFTIoZNjATTO2Ypg1RpKz6fwWpeXH7xbrrKCeSwnSlfi06LSEYBVK0rXfr5cuVrWqP7+YMbu7Mlo4vQGf3k7BQQf6tzM/AxmQmChlFT5NgxiYg5rOfPMyLdmdbTCeM4e74KuTQuuVltZtiZNv10zvfofESRJmoIQVdrZmHrGXyb2d1d9NqLZ7aPqjN0si6mJ6S/nWoZqzHJNvAjg4BOevFnlOmcHdisD5ryy1JkaXGyyCNC5YmS09twDSAK0rP3jPTE4v03hs6RItMZPnWOHTjc8yaR5FWQ4A5vRujQk9bGw1Ln+1KGkJUOPdu5Z0rBbBdG6Vmu6f20Ua56Kh8EVA2MQTtrd08tvTgj+odQabX84e/iPywhPJYkNEum4+bFYQ/O+2ouXFybRs7Dds831+/HpVcIqCsCTMxrcJI0hUO7JSKbLjKM4T1Oi1GlzpAed6DIvy+Em6DCLB0NUo4p1LSzQ1BUcxArd5W0hp/6Bmn4DpeVY5qGkckHjqf3uFH9/Bm4urRARuIoklUHRIaMYWa+nwgfrbb7wU3Lsb36xgp3ZzFYn9bW/IdZv6+EtLePBUdC1nYvOawGpqsXHZjB3sCZd/twZIOd52rhy5f6cljP9PhzdaGiv1pNESFK1n0vnLW4AAHDypsnT92RVXq3FhKdAidnJZY2A+m2TCdpWrHB5VmdXL10sit2BGQbIpRUSCecirugLKzSKkHIcE1WAJVVrK1RuIgrBk6nt63n8okzxxpiGHvbEV+xHlRAFTwjElNbu6n1hXiXxnZ0dd/M2Z9nF1VsqZ7VBZjGmv2+ThP7hbuflm6uP9u8G0uV+u3TDOOB4wghYNxzxJMVc9tq0KOHd4nbPj/n7ViN6GzWg4B7QweiAqOdboSUnuvFkChRJBLtK8CEEFw/rTnfybb0Qy9pnOoFlVcOG5oxXerpdJ5hI9fmtRjPlqx4hj8bH048WjD8OvFutF8f49a1wypTdO5KZRjyasrkuj14nx+Ch7m4jXc6hzvHbYDC+Hyc4Wts8mJSbc1q7IVlptiZLR/zjlWjWUGg+EkzWfcc/6y8tpkCPcvF9DaPnzMyrWOyxg84IQTuMLKPjfDLlubbevyXXB+vaFXatVKWGgtwZCsHGslBFks91OpzcOK9JSMjgI2KY0nFYb4SJhFYNXeh2G5pEfISZNFvPNKoacxHAcgoRpdNX0mggnrrx/b4+5/qtzpncgM0K29jDPRUvUr6rwWbNG7JA12otXWZ3JeY0r5zEnCWmYQU6cznKer7C43bi8rtbr62V7t8V8+2WtEjsWSROk15uykM85USBnt7jBrj3A0aSgAIuMufVIu/rtqqtd3xba4LAr0tkV4rCkni66R0IpBl+fJRhwRn8/XGjfUX78+vEHV+exM1d/VL85h43ZqS91KkhRIEiK+GaJGkf1qxfKrj1MWIrku0fF5Qj0WNtyiFkrUa+vVEyJR2V+8b9Nlbv7zinYFmY2XyRHHwnO7YUDjU5fzoKbF1aBK1tKTCiDWd1ggwSDszewXj/c4eZcMzo78zo9k4Ok9O2SWU+CnJHKCG3fr6Tj21hAWOLdSGrsNVbXOZsmjChKhiIxgKbTi6JazRJrY69SRqlwggiKhN3vR9asKM4DtX+4rY5+MhH0nQ6LqBczbLSZeQIV4PcxIVjdak5/MZa0CDYqTDxOBJW15uxdPbmZID0MBXl7J0hUQqAtHCrBF06DzbO8sEJiPHwgJMHFGrPupujdIRezjBRZiViMobk9QJdD853m2d9YuPdeP568XW5vizL6/Hr3Qznl4PkXgcKWrHaPcwtDuxht925niSS1j7LrS7Bln0V61+AEjuNj53ZYVFpGcD43HosnM1pS1O2VTiRwSUFK5XBb5LVsI5i0YNjo6l8F3U92rv7GYsUyALRofLKXnn8dKHsdYM1dOywho7b5KGcYQjQdu34C3CWstzt97uvz+q5yNVTubHGpu/FThPxlKPQ7zsipPeiB8dSn0OjA4br1YButp563KsyqYVYFCMswmJwFZkuGluO7RK2bLMPJJAhVNd6sQyuEe3tGVb3+pS8p3ToFKAuRTq3rRUlZ+K4ELLB/j//dbzOFixGPyjjBPFe4cH83WC0841nya48dvAspay2EjHRCx0KqnntRlJWofqfLRqEbkCQp1G43H82DOEiJbpRJInarAoXNA/3qX94wjfc7q9MJPGpQDK+n3DuGx2jXz4ttM/I3ZkNP3AqaFiD303ePec+aj7I+b0diVUQ4L0W4Gc6hpKGNnYtHvdE6jAk0hYyalSSQZSTUahVNmF3w26VVJv7QOWT4gfurBSfnbgGI8bS1uF2T6oPq7dUSwzzHksiWOZLZwAECTnMMQEGNLa0Cf/cSDN4DF+luHyabsctobGJ5yv1972atNCVvFBR51jjWbpz9e9x8HtPlZd5o6zwnMjD0eTheAq3ZAMulxbdrbOkEQoUPMrhc26RIOv9w2ynIyQUVxKqYU0R9WNej6TDnGVhX+ES8f0S/ek3UzC4gB4qcV6Q46z0BM9uZc9999/m/SXvvmKjYuGATCwnGjKKT9U0kKkJFy0vEIoZgDLCEonVGJ/NC3G2N1rEyaJgVFLH12b+zjcauGVmxpFozWjezWYVPJOVsLm33yPqFszVI/KrmztYgQp8+SG7W81nc7Mowh6CgKeHi8SZjOY7kaQ6MCoGek/Pd0ipbd8GGURlayD0lm06ZAcOIo6+jhx8svRY5nTHsapWVqHYfnAUiK+937cUGwigiIgk9KBuMuyYCwpVmxrO21zC66e9OM2bvIHUblTxJ7EzTUsuO9Tv9IgPAX9+uIcpJZdsEYl/3l27J+ed+q4PLnLIwFTuGfe3C2lHDuTyDPQMmk1lmbplienIVN6rl/n3ZjZNrBwpIEGBOmZzRmMS2sA5hV8sDbnBPfTWkQrZJeJQTXGmraVFrBJt4PYwf/an0fzzXjh4aUZpshrlEJUkpKdhcoC2zZJMgFQRWlFQRkWQ1SWvoZM4N7mZfbrij46qEFi/dFrlM9EaVzxKhIb/9Xbb71Ly8Lpu97K0rVlvq+rlzMIhjniusWRjT3SfsZOaEdHBQieMSpkmGivE6B0qVTZI4IYjheBIzO/uLl6Fyr5Mgns9i453q/MV1IhpPD27+vP8DPXLj9aasZC+HKdXv3HFeOArLtB4MyMllhgmXzpcRW5EzJ5RqOFbq9RYevclaj6Xb310X6oGcqUoeEs5UosksFre3ZFZhvNev54RhWLVSEQ1D9uYRZflykVblhJfiJJN3O5w79TKn1Yluz+NmS/AXTsrv7LU2X92iO1VGSmHpuCkrypSKYh4ToHKZ72Zml4F/zF2MM+3u1tlVBlGZwzTFlQMzp6JCVvONF5Dmp09e/AR2dwc0CVdjViKU5E5QZnDniPP8nBKWA0RqNmDqXZ2k9XSWVO9Whif54fe6KFufnLF9brnOZY3GsXq0vfj1uPdJ7fab6PG+f+LAXGjnZ8lWMy5pSsrMm6Viu15s7KTzg4ObX0ZKhXFTLrgNAWlsF06clWwRlojln/2hefbTk7TzsAlBSdDu0573q5+d5Y0/fLT88n5etufnLr/d9v/2daw8ed+4+eqGkzj27jP26y+KRru2/PIm0wzs2mWlmlrAuHcsTf7m+s7v38//7S/8aheGUp0NUskAy4XPbN9rUiTR8W9exwhitdmo6qYcDicJqzDEKxWUmm0+9MyDFlmME+Y8wmFc5Hy3mi38XNne1kYv3Fa7IHyKkkXO87JZ5qqeWjHHBwHJqT4Q4X95eelhafvO+oWLVJxnMTCaTSEmkmpdBkVOsfrhk9Uv51jbkzZZ7khCBhbzpAC08k4zXrq8zIo48qlR4Znk8jQQaMpvdf0Lu/XdPSFaXF5mhwfEOp8VQp6W/M4z9sUb86P68u1m+4BZOokVVWUvY2GMIWV4A79ZwPq+sT5PP/7Pwf/6t4VgchnkIhfxfK/rrksOc6HlRVD7p3/K3/z0L1eDd7XAcmnr6YO+fPWv/sptfr8Xyd7/Q7+vrEN0p7L8zVnS/HuPytGrW6Ym2mKPm065vePW4sensCVnloUM0XGg2t2p2Z+7P3q/x3zx/64aoudLLdEPAEOjGLbvDDRQlOn12+uIAihXG7VmVUmGI58XiyzI87w02j0WqG0jOJ8Q0bKzkEh8wrdFP6BCs05fvC37eywVcLJYAYUTVIJUNZ8kKriYSTICNQXuzspKU+J32DfXFGUUYaPJ8zrJs2w0L5FkSup+bfR8I+qt7AYpSOIzeTTMWZaY99jJMuVrDclbJbTMoML6VgKAWGmz1krca0pcshpOmLvHwD27yYq8pNi8U7+5kp/U7MmMHexw+Wa44RQu8sIUMoLIt2u3Z56xX1tdwfe/M/3LKcKIlICDjFzvmNCPRC61Q867jbX/4p8YV//3j9n3t0ZDP6P6nUd72/D5/z4cfJQXB1//Vazt6y57gBfXy7z23kExHztKl5vZDEtKuXtQv/35tVBnYehAIXciSWdF2buS//Ghwt3+dVy6q4jTUJQiFpOC2z9q8tBblaE/Xxc0QHyt1zNlZN16Al4t/CwvoVjdMhks4c1FwEBZ0+0R1tJcM5gCJKymPr+A29/dy1fEmrtQEBAQKhKXLUIleznlTb7QJKiWvUfmbKF2uHRyuakcNEDJ1Cu5tQzDMEWGiXkWjF4FYnunOE01kS3KijXleq3IrQYjr8SVNj+1IFf6OcYAA1Ly1QrxuTt0RaUaOh0yB7usPQr4cJ1QJG9V12uuLUahRbt7FWl5sqA6v/FLxDAAi4aQTtdYFeIIsjCKsa6GXkEB1ioVIYiEVjcdXRd9cLkRPvkj4xf/2nn8e9kvhpzAsq19GnLutzOzF1UfLn6z1vb9RbOXJd4m4VtNNo2KardY2pxEaYFNNLpNWBYLMkiKJAaqjGnmWNV/eFTScFgs7dWqFIuwZAWJJuzx/ZpQXp9hk/XHhbxagWq3KzGw8HM2uppkGCOI5IZGkywvw6LIu486829KESK1IsVLi6vufnuFdt9rW1/blCQJa2KPq1clYrt5fLlCPAM1Bar99xpnLzbUPNyjr8bHT4RoAzvV5flGFoJEwFmYY2/kQrXZLi5yiUk8rJOs96CVnFjOKgYACzpJcwqzjAAotcQ4YVUYqE/zWZQ9UF+fc4MqWFwzAzJc5EKjS9cxo3JhEAtdIVJSy6WanGegzAnVGtTKsqJI85xFCSmx9rA2GuZ5xlaMzA4A2+nHtytaVZw1PnyU/WopPX2w+Y0jahJnbtmfLTAtIISDY20d/2DvzUtQpIY8HWa8wnKYqtXQSpUKh9zlOgoASzMgVLQsygnDIkRSL+r8oD9JGJKszPVpzBRBgc2O7KWHD0wQvPgGdYx8pXZXJ5FS1ZmypEiSwpsVkIU05xXElWFcCjj18+bjzuICiQjWts3lt4tmp7tyZ0qzuvrbjVRlAnW3mBSs0RHijR1sliVFkFNg7ZP9018XfBFX7vSFsikEMMlYOgvZYupJlXRTmP3VC5ft9hh7EjFMHlKJ47f3+duzTUkhpRQoJuuEbAPbcd74pOlc3UAh4Y4bmb14pA0njApL6yzdam5ufPWgPrvNGUUIUl4x11cl5gEwe004G1olt3UMrqa0wlluwWFIEth8QocbkIRsq1NESZ4yZjLeQFXPV4XejVy+dyAuL3JBl1KmU3w9zgEAFDe32jzzD7pnX7y2+Ts79lmAypgRAECOjyqNmpQPhwFkmThOAW+KlEBMAceELj18Cr/OZepZ/XBSQJAm/P79mmVV+ypZv/q6MISyGBzDqRWnLA7CQmzViJ+wFTzb6O3CXtkJo0sgI1ytEm1M1Q067zSGv2EeNYs33irnm7NvEr5VZZqD+UWJUa3O+3bkzzYF4CQN7r/H/HLSOSCLuL+j1WRnzZKVVRq16PV5pnSp1fuvd67/7ESsN6hj2YXI+DnDVe9Jb88jSSWigfwIKHy6YR70wrE1+Li6evs6V9nUaETL5L2O7wAal/HrG6mjx4XQEq5vU8zQTOhVpMvTFPI819+tFcPXFhUG97TJBdzR7GWCEIPjnNOCkOXTCPTv12HqrQORvrnh61p2GwION5/eAdfDNVdgIS100Q1CPg1KBrcfHfhH/PnfXiO+c68OCzK7dPgySoKENQe9OrieIY4mcRG5paQJSBDiRKxk86S9n74mcjJ3MCOwmCNMZ6/Nrya02eTT8cUm9wum+bADgskVYGw7E1SzZnCcjOfnYGA4Z9eB2DRFDidRCUhbmAX779BXl/2H2u1PApHQ0gsJrO/tN+G3F0DEQr1Splm6Ga5LZbsBv6/FL+36HcnP2i3IM9YihgQ0euDqixmRd8V1+5/1pv/XhcDyqHBmpaJ4EeG370XfTrgDxWIb4dhPWZ563P274GamHHKztVsoTBDSIJQ/PCIhQFGaX50FYme7Cmg2XiQkz4jQ7lduzyNCUWW3wuDla1uoNaucb3Nm5sWQSzglXkZFxst8FJHDj/tC5m5WXnp+IzXl6DYCnHL4J9vDn51kSlyKmEomKsUWcCvpeeXJg4gZ/voNFIFw9F6PxpMvh2Xux1nB1O5sNek0YEHgA4FaNhQFZbcxnYkVdDMlNW5DsLcJclxRCCv2j2owHr0OWve7bGRtbDuN4cGesD654jRiBwBpdw8UBLPJC6/f5zaXm0qdZ3Q+2dhMSMuCH/Tm49gcGJPPEwHFSclAKj5+ppx9bQFO5I2mSPOMWOe2uduGf+xFY59vY65Rl2AcTqLEqMoG9ke3IM62ea/1n2yFfzbCjKK40yVVKrETCt95lJ/NGjvJNGfm87ykiFeNnQFZnS5YXAgiVIr1JsgI9+RdPkQyCdz15bQYPG2RzJn5OPaiHMmDRrZJ8nXa2waADUa+0dSJ67EaM5whGYFqM7qxMsCpTBiA939YQSBPp68uljEnoCQtsWgO/nBw+v9dcs3C51hgtvLI6JbqJ+zPxr0Hmf3Fi1CXYV5/skOt1cWkjIM8zdndu512Pg6J55SixMRWzAiNx53ZMGLh+CY1tCItvDBLgcxSTh/st3B0+dIS9+6bJAqyCC6n+qFy+WojbPX9G6tofXAoI2K9PUnqPZU4UUVPoCyAIESLm1Q3qrJfJqnK2pdFkeclU9Wc5Nl76PmrFDGyLOgGTHMFT0dEq8J/tEziiBH4tkFpmYULwCsgCqAEJW123eLYB0e8+9mciC12vZgDXqNz1/j00JpYg4q/zjJfEMvFGveODTFZndzmoipJQE7WQZARsP1xo4AG50+t+aV98J5OsvGSttJ1GIVCp0IznF5mh521g0DKMkK9GPmKxKw2ah0RDJ11BLCoEsvnvvMpHxcIJ99+ZgMECICY+/e++3D+xaT+HfD1mkC5VrpKixt8FP/sjVTn42sLSpqQl5VKtM6yHPgErB313d1qK7pcrN2Y0Q1IohgwSqMp+nMr21i4Xw/TNE4SP4MUiRpn7HTZzeU45nfbEFAE8uUNaleHtzHavgvenhVHHzcZlkxHt5HSEDGCPAop5lhM7HXOqIok4cgm6Rq3OsNfB2J70L09aTxVp9MUY0UGlMElEOXkZp7o8D9elSqLeJ1LMxKnICnMYrT0+f0dmb5aVNjW00owXoOkw505PKryuHx7e3/HWyV6g0ssp+T7HfH0+UZ80M+zwrlKDA3RlAEZyZKwMD48FKAgRTfj9SraPRJQMnTRPtlEwRzoGmKJPeKOzMsZRIJJY00MCSmafUwpxbMzm7LNhgTW1yGz/T19HXAN5c1fLwGAEABGgAXY+Uiws/3H/s+u87BUWY/VJZS6KWzksnTrIEHT80jg5jZUEM0r8O1M/2BH16ff3jghkYymytCkAABpNXY1Cfy49RHzhqkmUzfMvBwLQgHqB9Vis9wAg8n0iljats+2TNu24uaxcPEGf/AOV5DMDexlauiSiLLIA4jhNNaxpKaEVTmclvDl+OEPH371P1tHxxV19OtovysIZQoEkfgB5FlIo8DPJfjhhm73VTFbpGUZZxwoRXAySXHvTj4bUU1tHdedEUvspvOGayutZrv4ifOg+MLp3RFif74Aer+jTr8cAb1D+B08WmINZl7EcAqOwhjv7huaoSVnb2NBqmqMsLpN2bvE9sNlxOtI8KaeviPPvThBKuNkxrZ2O9WOt2nJ1s5+7gHt/l3JfXlGEL7zOE6llvz13y4BgBhSxDFFqTzeYrDS3FwycrzYhAUL8iTCjaMPFnb0xuJYSSFUyFeRwEaF3MvPFuL+YSt6cxUkBeBr23VASQpgWXBC6vludu/j2a/NHTB2WPc6wBxPGLVdYQI74HjfFUyuLBHLKxwlbmlWkH0jPmnlYZJhnM1uM47lGBKnqi4wIlNGeiefILXIlPRvVj94l39+Gj/cLcPbE6vZbjeBl0oK8GwqAneV9/o6A5/a+cHjCp2NEShTghEryv7lbb61c3ITIUmtdfv5EHgOtcp2rWw82J58VQ7CK6+9Jbmj2wipSk649Zxgiak9bflXi5JmboSqHQmlS4/l+fb7DfvlGdNv8QTQqxmn7OYrO04isVmGyzWt1zGvpHYMsePox/KbW2hWVEOTJqebQrx3LM9fLEUUq9/r+XGZXJ15BECIMeLEOGcGPVgkOEl2DtRkdj0No4xK+/cPd5e//HJFRRapuPz3AJtaiWTmbsToh/35aw+VSKgP+lLiR4laJ5aPcOE7WW/PvhLqYlkyw5uAshKv12tCYc9DgYmdNKdMrVnFEWFFBnNlCqmkM3mc8arIhmffuhnAoqJUdJknAazW9fWXQc2oVZPPho9as3FFbPL2eu1keqVuQDeQTS6Pi3x9tTY+edZD8GM7vPtQCi4cQ6CEpIWqiJx1FjfEN8sM1Q5Uj5Nsb1NmIRZYZv9R+k2ADA6Gjiy4sxAqbXplCzCmWOTbDw6k2dhdzf2cv3so6u43Q1qUW3+/Ovx2xQ+2ZBotLzZSY5Bt1gEg1V36dpTICgTtLblIONYZZ5VyFAuYIIlnUGbhuqZw04v4uL9I3+0urE20XjgFpIBRVUVd2tRssSX1N4G6t83Mbcsvk7LxR7+nx7/5lzeQ4zihTdappHHUu/YxQyBF0m7PepWa9Y6pawIT3IyS3mPxehwgJnYSuY5dLMoGdM43SS40682qgqLl2GWYwrGjkmt129D2eZFnUBoDDEvWFKlkalLx/BerjEK529R4RclmyXZHW37p66JoKNYVVItFKSlZkKaZ0ORLgIuE1TWW5vbZsNj+5H4bwo/t4tEBsC7ylgEITX1GZAsYTBO6wbJ49Ai/XXFstomiMPRAZauWk2gu6yq7iPKNT9T9femLlxkoqKDp7YOelvjh6O0sVx8dINH6YooRf/wMnA4Dprer5jcTx0WDu4w/t5hS3+E+v+IacJ3195W8lFSwscvNsrVLAzdDhvT/kwXnP5JciYGY33tx3xkZkfdVZ1dV32ySTXKGpGY0Go1kydoD0i68C6wNwwvsDwL8q/8Yw1gYXsCAIEuYXVuSdcwMZzgku8m+u+s+srLyjMiMjPt+zzawkr3r74uTdjVYp9YQ/eTxcFUjTkbgzXzuEiA1TEU3b16vmVYnjfPVMhe0LICcLo1i/bNPlcmfP8sRA3ltg4yjSluhnOc+LDEigGu2vSF9d7fGIIiYcvxkXL8jWasgQUWS1XrQhVhuxpezOEu5Xr+uMTiwJiHN0sncy8WGoQmrkxBQTENaLnMIm4+MlFR0sPjmXVjSSOnoAjJNZmlLipiMQ7p0kooaFbKWzNwCExSz3T7yfQSKQtA47NoTR7n/oC0C+HDN3evmszGsN0CUUyKaWkBDy5LzpJbW1b3zkFWr2cpbXAdiTSyU+/lbQdaNPJm+c+junVvG8c/nOPAps17r1PQ8SJanp7Gy0ywo5yJkRXPb9KdOjMwe50+D2Ml3PiG2HUlO1pK/Gok9cb7S7giBh6takWazVW+DpiEhENt8l3KsIMlavzUYXdnzssovZ1p2km4+vsvalGr98k1WfaRP2fAok+AqhdL+4M261hwsrXMnK1mBkqq07yu7DcY9i8NZigGgGBGk/Y9bFIVoQpXeV2ecCjMEoowksdminSQWKqFFYFbQqkRzogYX81KpmfTapZkCy3zwagEo5bZ+fZ1CYfuh6PpC1Tu98jMoiRUNYFTfrKZzl25yk2lJBR5kGFap5VfjTJEyt36vheJVGMdElIFneZjvb7crsIDfy4W+YM9WoNvLlnn1rvrFE7km8VRoN3ZRNLMjsaeKwF0Nr8VNNYkoPbeAvtOEeHo8pwe728z1UaxEbwNT99z+9zjL9aZXpWZSIWSoJFEbKvHCLCK0VJHjJB5HvUfYybXKfMjyL5fUxmZyhg/MNIipMmPKhSfwcrMplVYQNOvFeuJKt253o5vh+YIxyLjYb12kjx732VlIsgaPxwAAIABJREFUR6ffXbqd9/v+dLTodK8PQ/3HBz8bV9uVJwGAXlDZXq4YIQ+oWw9qeUFf/HJWAgaUAHJbn9YEhkFJ4Ie+5SUJUaQkBOEasEwS5ojBoCqlmaBF04jub68v8979Bgm1avDkhjOld5cFV7uNhtMEKfv7yLYLNVlEeVCKusEHKVG2msibc5vicJQxCj25AuagNn9jca3q2tr+UCWlO5mGSpWPJ+NCbZhipYJT+Id9PbWupg7a6KVzcPCQ/9nP+Wq97l3le1v+8dFMfXg3Xhb2fM0NWtEq4bRoFAidBsPTznXZvDVIrm9wXRyNKHo+0T5RJt7aK+rN0loJG/XIRhL0vLIoyozcfi/wvEvX3KYyeafmvb5y7BQYXWhF3S5LYD5dqdzMSku6PqDXMSNuS+vJOJIe36UXUXY5JSzN1zuVWVTr9Ku+F+c0uXxyQ37j9rnAdXad/+Vr5v7ORRS5xGWMij/fPHhxCWmc4Orj90umP/7ToxQwqMAQ1h/vKbkgJrMlqtg3UUq0SlkKwXCeMTDLIQJST/U9sZlcO6V+jz+3jHvVwNf8q6HHbu87r9Z0ayOdrLNS3r/N27YPORplCysVG3qWArkllWkqblZG1y5Vk06/ybvvmeevI+Nexz5R36+Q0h+NypoO7HOLUhQ65kWQwD/+qL58ezaxUa1Orfk7A/Ll3wbVu5q1EHt1x7YO67+5cfrEL3L1jmrNPaxU3DnmEAO4W/SkrG5U1jOPrgi+RZhoCSRSRKuE39+cH/nqlkGFixAUaZ6UuOQ++2BtOVeBblKJ+dBcv3i6LAhgGQpSZkenQTAjRnlp4TxVzMTFdPtAnJyvCFXf0ZGm37yyQOPBLpNMAo5BHMs7uapyefblWaMt3d41J//bC5cdiML4OAFqU/EXNWboQkgwAfWHMnqg/IdvAoIQIRDKB3fRiNtV1g5mHRchwAoCouOLV4FY4711Ac0eu15JO8xy6ZWNHrFcpSYU1tkqJ1T1gfruCptNyo+ikD94qDpzz6PrSmFdzHGzwWV0TZ7Podraqq7ObKoqnj+Ltb1WdFlID7fC18vdJsqKxZhpMP71OIGMRPklQ3L4b+70yuuLkUdoUwm5fhN/8xeW9ll9sRR1PhCKb5SP269/EdGV99Q344wgnk45iUQh4TpVimUMsJzlRoXKXKDxceBiFY/GuNmLrkvJ0JjI9ikJen5SgsHv9xcz10olNvGU+237ybuEAAgIZEVj0GJDO2LZYI4b+Q3kvCCn+hv0aJLSEEtmbbsVvXkTmncGoMj9ZHWj3Lt/uaYD487B8tdvgr3H3ehnL7gCqDmTzCFXEdLpkmQxhgACDFClWe1svv7KIRBiwBu1ujg9427fQbaDGYHjYA6oKGbmrwJtYCZnK7rfI5Yt39Mixw7YuhGNo8ZmeX4V0FEu7/Uu36ScXmULzxPu3RaXk4UVVttqOJ97ap0NhR49dJV+v6Pn54eBorlfLZG5WSkK0DCi01FlVy6hNxFrmT12CcAMzIAqevC/YqoK9lZhXHaVEHXr+c9/tj74p8XhqOQ4rk6/BXe7079dsHsbL68KmgYQST0lXXk0nXNbRkaV/jqTdZk4aaMSTSa41fTezqHMI4HQLKSyiNBlECQFuvd7om8lWYTydQD0Der5aQYIwgBAsbVZY0LHL6nIUw/So6RwYyztVMrpihLJOqW1VreZnd7kkpASOfPsuP7YtAm1ku5+NshOvvX1/NVRUenskHcukzRrNJteXGZJggFAANCCIOmMFL7zMQKY7tzS8PnQp9t3qtYM9bek3AOVdOQw8UWgahzlrIR+Aywuy90WCEJIC1p0Y/MDcTEHKMq3t8SLr1dIrisozsy9JrRG13Yk9pt8DpZrhgT1TWCzva2mIrKzL4/ZhvTVd0Su10ylzIO17eLWQBGCG8Ys7BVgCzfOS25nG8M/TP1C1WE4SfsNoDTl1b9/s/HfdX51OFzlXKUtXgi3WvjNMbN7c1owGkdhpMl5GGEe+anRkxBO/QioVT7Abb1wbhzYEqYTC+k1dpVARiIY+25Z5gxrbDeUFNAznAVFmBqD6esIlxQmACqb2xr2xsNI0nJ+4I/KxMeyaGpgmZpmcjoHFNJvtZlkOnIixCVhWd3RU6QzCWV+el9y39pXX77JGbZ5tzM+9/Jbt4FevH2DSJp4BSBMp40jwBf+JIAIosZtE7uH44LXO6q74nYfaMsR3KmH56NsmcpUQGhONuT4+jDidZmmOUGr4utzlzU0Og9C8f0uHn95gXlZZGmu3hOT1fjaKYReW5Rq8GqxSrb2sMN3N6qIEde/elkZyE9+VnCyPtBBcLNK05JtbtaT67LGrn1aAmtrlYl3HnHwn5VLC+paOY8Ec7fLkvlPuf/645O/Sqc3ToYqFa+9J3m0H5dvlrjSEY0io9dOkPJC6eZI7tUFiNaJ1pDDlOM1zn09UqtMNEYtyZ4EhOX5GnNhF6W6QU+j5t26WLzNCEFxLG2V306KHBBIMXJnSyfTl0PYbgRJlQ3TNOQaZcojWhlo4zczTAjT2t1WvbOTWUknMbp7zz/BG3UqTvd+2F4dz24W0+myEPp3heWN3X9QqayeDZWqsDpdlYC/vZ37qcaOT1YEIf3+BgD43bustqfFc5dt7ykrl2puiCdv87gwZN9n2hwDrbeTHBLIShRs3FeuX8zA9qet6cupttOj1m/epRREnCR3ekzkLW+skq23Fc401o4Dau3cpls1ocxz9+im2fFfDstCrHZVKrXtIiogv70HxoWBVi4QBT6beHxnm4H/HK7HFi1zBGTS4767ko7af+B++6oRXA4jpLJB+z6a19rxm8MQNzf4ulyOz9ZJIaqpX7CdJlTbgziGFeAsx9TdhvP8kjKr+Zqv+S8twCCq9wF9PLWzB/vhqwvps4+q9lcTpFVFigbJ5HIVFAQxlZYqKtHFZV6ppTPm4fbsyg+ljeIi5jZ2Gt7RPEyTkmnt9yUuOzr2RWqYffDB1a/CwSPu6qLyX35in1z7JhfY79z+R20ynxO9LlrvYlllo/GSwnGzR2ep3lg9u8xprn/HhLXOqy+va9/bT55fF0oNhlITO0Gc02HQOqCtoMPGyfjCkxgvBIjC+uO+fZEY/S19+eqKrRp0eHkWYQAoSdvdpKMkmM0SrNX4QqiLLKAKCCKkSTSTXwwzpOKpw1KL2OyrvIAWwTQoUfM9zY14Ml0QQWvqXpSKZgH/BVhczAitVEwAetrM6WtMZXi61MF4Dpst55jfV5bmR9RfvYvhTjOs3RV/9jqGfNvwhtnW3eRY//ixvHid8aX92n+w7x75os5EmVSxvlxzSkF9+Hl5cn4l/qg1f/Yme/iTjv3kmNnYajD2eaZlp8cpgaj5+WB0MU8ljUvGSfeTxtErK1A34KVPHzzkz65CgoOE39oVy1p98rYUwNvJrUfh37rtD8C3M+b+Q2x5fJtDreMnjY8HYB2NL1giYLVwQ14gyLNSpsIFlE4Nhxkvmp2mvlE9/sW5/v1PyV+/RryQr6Xa6jxU26I9b31WW1imsF65c8+glwlk5ajYbWV0p5pFJA6S0oNMOhvHhKZovrrXQLhInLUfIpVOKXbQkqEVoZjSVYbHZ0Okg8sruNmaHIHNmrnVWI2OJjGQ7zTimImGllDhNIOFUcZg+C/LyeUSSKZuUiHHuD7b1Gh3uUyxiwbv1V7/ZbpbXyk/yX56nsOduku24dczZG63xeVFtsGfjms//Ey8eu4JVe+pu7uNr9xKA7q4aoRfDxmJcJ99VL7+Zn7784rz5mvL+KzjnI34/u0WPH1R3q5ffRFyHGm9t/n2KembMJ7bfHebOTteErPOBh5q94ORF7J64rD9DbBsP3DeiJz1YiJtMydJo1OcB0TZ7iRptQLSe+z/fl3f3QL4zdNQeK/OW9dBpStEdrYIGsY84FniZgyLlUFvgE6ermq3+s5TS6lyy1kJg5BudODUUj86sCyByZJgkZh5yKmKOrNlg61vK+vLm7imOpexCL1VWHIcJZitIlEUCqS2VbCQV9c7lSpyiTvn2wogwJ6XIvLPnVv3sy+vm93WexvZ8OjKSkBVKjg5GMetJhUFjFGEBQX/m2J1s6KaOiqDQucCP+WNNhteXqbGrc0+fvI30XY/kB7ffOEkWW0L3cT5ulTu7AmlFYj+aJqxgw/loUepuvMaN3WTCSEXJdCQ2NNfZiwlPP44/7un5b3HCrX6+SG9LTpxSskbO8zw0O0ezL9Kd7dzL6CXSaea+uE6lyts7Dkp126qhQ0EwV55mdhhl5k+IKPmD5njMLs4iWiNWQtbGkZUYjxqLc5sAta1rfOvHb6p9oLDQNvV8HiO6202WjFe2q3OliVXY8KVE4i3dhreyzFpKetporeM4myclQUUm7VsbENjmxSSpODZmG0WOctrymqasoyisOloRj2Sh6NMpf0gwCyL5KpkrbWmriNr4ue4t7FoJBqhKXuqNbg8Jcl6HVX7q+/YR8rrC7lWeW8PLSb+fGIVBa42gIX3Osz8yuNxAlX4r4t4HSgGWEy8Shf7GaaNbTm7fOnvv6eW09cXSWu/QE1rHs5W/J5yM8sJ07/dROExv2G9m2GKsJrc0qhisqhSsaJSNAVljaHR1c8chhP7d5ZPF9TWQ4Urv3lJ1DLnECnFXc22PHVv/qr4/kf46YsYanIapqQkolzGiOSgtql7Y8CrpTPxxTrnJayBrMHvNy+/HU49wFQzV72na/WeSrN4/MWwos0DwxgeZhDW6qTMkSaNJ8hswLXHs0JVy50V6tSjt1eRuNtXz84pQc2mPt/vsYuhiwvCyWa1uJ4TwrNKu94EV9NObbVOcb0LxmM/TnJIl2DzB8XhnNGRbaWMLFA8DfMEipIh2TdBUO7e9qgxo2mUHxlaGcaoWN8szA/VkzNVtiOWlw62YJay0ek7OydaX13me23OnaySJCkV+K+SKGIrvD+8gb16FjKiqOgIZufXvQ3/ch4UAWjTqFMF06OF2AarlIg790XXShbN/s13awhxSWtNIV7G5sZ0yFYMiSHVFsqct0dAriCGmzkYte5p3ux6CdgcqQLlpxUhjGBve/gSfu/B6OWwgBQuACfDUtKBxzTDG6lLTVdivW66LyeUxBQ5YEm2+zvd07+5ijARH/lvqP1epX9rk54dfflNttWPlqQhOac2ZJvvdS8ujYZ/tBTFwkkqDYkzTeeN29nNfn2DlX5lOcwVnfK8jOY1EqaYwQlTMdR8OAcQEq1dr8uT+EB5O0twe8dwL2fOKgIUrX28n55NsZCPl1hpG3TuK21g20W9ao8SL2vv07O5sVOBHlbZ0Ak5zp3Ylfd64bOLkjH5kuo1IMdx2erFRQL1HfUm6PfV3HUcr4QS/EeJ6wCFSUKiqwJNZIln8hgyqQ2SmwWUKMuDUL27kV0cRWqlzCSld1CL37yM+a56cooBAQAxuCAlt90/HQG1UZFpXkuuL+ekvikt88iKINs4aKyP5ylGJauJTOpnSY4qd+qnr+UPuW9WJSkBAlJDTwOhQY2TDplANZrnjc2W6n13U7At3bejUt5/xJ08W+Z5qf4u+GIh9TvddpscHh0vgNERMRGM5uSJgzq/25s+ZTfZo5cZSGP6djum243JVyO1D45D1lCLqYdEhYQpoCDNcDQQ8lWqt7ng2ishBFpH4g3s3No+v0jZblePR9PldEWg1Nxvs9PDeYa9jKkNqvEsvnWbGz53zA4dOMNAvsWOqfd2OGdUSsBaBEoNJVgyjPi7d4W4pce4baIszJCyuIqZer0czqXBlpxac4/QPPwJia98mhFaXewzIi8ILEzcENDZ2nJoSYrHa4z5nXYxtwWjKiBW4ZkqPzsLgLOwCsRIZYJJgQEU+r2rayIaNYPD2LmY4+qDXnpW4pVH870tFc1v1kGGGA4iKnISzG9ug/Or5tbsKKdgCSVFUkVvXhrs3KcZCsEwZrf2q8Xo7bqQH20GR+e52a8l05mfYCD99sD5yyktyUyexRDmhG/WORYqujL6dbT/Ezn4Gvbpd99lJMvM36pZbFe4eHKF6LQQDA2HXlkCBnk5rzKE0WSAsoljdsh4mpaEknq1JGfJaufT5CgQVINbz/zQ97OSq/ca9PC5nUMkNVpaeTnVHnWoi6dLrn9gWl8upG0B1O/o0fFxyaWOm1f7FV0t/HJ8EhFQb9DihmG/GyViV1iVkkacice09gb4ZhxQkIJ/hKITi5bq/Yq9pNUaA0UuseIiDcMwEwx2dhOXJRFEsVprKjwbhDgMtKa4ChZvrZJv9s3oZJHLfJLSqrpcFkBqNvmisK9Dqv+Bbr9juTRjSbdb5ihcWwWXpikGiZ9D9XuN63NnYCzPI4gAqjYqVDaZlzW0igvCUDBjqjs70urNaUrpd7a44XeuotAFRYcRx3M7/Y3nf7GECpOmgs4mAa7VeSHWOtX4Z/b7H9PFZYKSp1cI4qz5j3s+o5OrV6N8HUqdDrWIeVyUEu0GXI0t07wEouA4WjOf2HFK1bYrsZ3ALKz91uDkRcgqMGdhnqdRRpRBrTh6lzI5MrcN7A+TwRayz0YRrH+wmXxxwfVrHVWmpudDjKK4lDcNtq2tLxwrrYEF16jUutLh14uS7yphLmh0uPCYxu1dbnIcs1kO/1vau5hJDZ3Llm6hbqlE5ueWgibLJMzVAT2Z+qTMCak+eNREWTIagcylG7X4+trJK+992Equvp3pHzdfHwZBCUiSAK2h0dTiOmN371GjsSDTFF5UBjgXqdjF9HJeUFmSlUD6QD+eoy0hPHEwyzJKU4P+dC3usJdWVAIKQqXZ6VDWy1FJV3q32taXY4amqcaOQpl8kNKPzL/5adI0S71XLW9+NRE0sUKJdXX5vNy/g7zIL4MnKZMVpfDRgQAwSFZeYjnqoFpc+rSXs60acjxeQd5wAesblJ3URCr3A67TDi/mBZ/m5t2t+PmIU3EhChQs8iiVmnVwflnCVSr1a7AI6QawxvOkgMZuX3jzFrc6dTsgWF5ZUV7wjXZO36qN3kS0VBFGlC7oBnvy0s6VTXm05Lt9wVqg+mYL35zmdFHCfyUGw3W1RqygKFJ2p8WK5HC1j984WZIpO3o8HJUYE1j78IHs++X1GQQJ12qTo5OYOfhxPx2+vmQe/Ih/cTq5DGumN0n4mqkVw0lZfdhZXUa6SqHoStlnscIUwdK2XSCxaZIXoCr6uNNH0fkUGCbMBZaCMdq+mz59axWUQGhdaxiFdTTFlFi73/d/dUkgpLvfPxCo0vWd3+1br+dZ5nY/rSXjf/stpYkCJ1NRuubUIqMUhb+8VPNlhrE2MJxlZUsr0ijnK1J67SXXEaXUmpyD67x9OAXm3cZ8KLWqAgVKTIpVVMppolOupBRl6sdIoKGipiveMOBinayvPdqoqTzIImuVIYxhtVVTV2/XSse8nlAPPku+fblGah148qPG5Rlf4SjBosRS0tXF2SRq7KOXI3rwsJG6pVzh1qcXgBMx/KeSd43awuy6lKgUbPQFsD5LBuvLLCsz8WAjejvBEEPd6LeTKdDW5zFhGh2Dvnztsfc+YsbDRcJs3pVj9/J5sHu7uLgoZV32xz7ofa5fvC4aWl4m0+oBz8kgdc+v/JJWtdRNypJhMLPXBmR0hQe93C8KJEi1PX328nhKKi0cs5W+6kyHNzmF5J2e/2YOAEG7v9Up4niNTv64nyTz+cWT4Dd/23z7b4+QLKUJU+Yqq7GXTn1X92cFXjgYlEDS8pAb7DFOSEtVOb4K8lOPIEZrmZKYjc6XQDnYDE8zsy4Tf+WB7i4hlBNp7LFbVVDqhhTwMvMePy4VrUzL5c04ApKqiWVgBzmjUgll1EQlezdmbu16Z+mDO/D8xQ2WxTyV92uOK3AFYQtOLMWK6M0mvtl1j1dMZ7OuMhRHRcubQ49VWPgQuv6gnV2tZS7NuG5bCm/WBRVDHMW5smOsrjgBhFmFgsiL9V5+tGQ62wLIncki7e+Vs4xBCKndanr1bLX7QFs/vYYyEwYFePD73LNfZaZWFFmgbSkCHTiBu45KtiqEdoiBQiWk01YYZ+i3+gwsoxKIJhUWnuOz7YY3K82BMh7NZgkkQK8Re40BBjufMrZnZsv5/9DPbbuc/NlIvT8YHwZYVV0nJ5BXW/TU7/bsGaAzLyKIUFoD2Hljg5lFol5Xg6Mlba8LAkDtQTdYWeN1KXW72XWsVqDjxBnsf8Jg98ipfpRZoKCZwKOTWSo+3JlOKmpKw8m1m2BaadJeFCakupFPYaPOQOfUpvc/NMfzRFCK2XVA8VSJWk2mCD0XtzssJ2hi4qwnFs25EeS1ijmoC0zheouXQ6rKw0pZaPeU1YJWg2Wh15vicpEXwNwqThZFrbm6SvY6uefnsRcUlNZmL2z5disOIeddrQQ1A80Kldlgq5E6F1PzoO1+cwM5IVtj/vd+N/v1X/miJACQC9UKdu0Aq1qesWJpL4OSGWgLR2jV6TByhFZb9Nd5nqc2aGoywCxcWVivluMod4KyKGiNi4MCEqJUSVaIZUw+adINnRr9+5sc0oQGmFewFxEasl1mLW7mz2yaRygjjFxva8sJaMiuzUp8U14fLRmYekleSne2YicNVjFvyuE85ljsFgDD3qPYs2dp9wMfKH7E4JTOrh169yM0TZbrVtO+cdcxaX7YCFajCfuwPTsMVENlLqYp6X10p7K+nIV+FFG1VjELdYPF88ma7D+g6WqVTRaXF/OcghQnSrSx3+dJGbmjp2OxIUOJqtXawMYqezNljWqdiQsSV3b70eGYqPLh82xwwENij6cuYVhOzmPtrrgOBDW6nqIilT/cCo6v2UET4IUlDZTz16VUbYLpuvNHj52/+9MVY7R4TABFu2OvREpDY9hstfLikj3YSyZexPG0BGnJ4MMg9heLrDLoVYILnxDIiNkiNCV3VRQpYFFeEvB/Q5BgAKFo1LcemdnLvwuynLAwzbkqG7kJAIwp0/1G8OI84ziBkySgtfi1w2rJJemwgE3sCHGocJw4502TpAyT+0Id2dcuYegCEcLtFrOIYPD+gxukujbkMlWxjpPODx7d/Mlh3rzLTSdOBno/ukWCoy/hR83RK4tAWVxloJQ//bEZXM/O3qXq4NGWcxVTcYHXdizvdjO+ofBk8t2RS0kioXS9VDY79NLjmMtfW5U+D6vNBstmKVvh5mOuoig8x5VJvyMFVhSl5ezoivQ7Nc1/MQpLAKBocuIm8AqZC6Y3OMu1H2+9ehJVm00O+qHWBN8dmwOlKXgefX/H/ubXNtrcr8Zh7LnuKiEUkptNaT3JUi9Hmx8ak+djLKiVmgYBTcdrd2pjrdfyLhclxZp9fjxMB8ZyXZZxjkBJwP8DQoABgIx877/YYee/DsXRSW6SRSS3jHhuhxhV9MaA4/zLS6eUWu1ySpo1hlDpxajXL7B7tVK3tTTygwzQoEwAyzO0vslMXy8BJ/JSnAvGdJ5TkPl8a5rDwMdcrD9Ujk+FDx/+9KcJFG/1kijPQ+NjPU8vvnQ7bWKvw6gkgONLuPePmtYqvnyV17ZuVTMfFisXpwFqtbDHdyiZuvnqPGUqWp7LNZHiKmQS69LoRag0GHhPYxEpIauY+CaWOEqUhLLYaLPhjCRzV0hfnWF9t02O1kXkF4Dt13kpyhkW4fXFGsPqQ/RyjqRaw6CDuNotvzrZ3OZlFMQup5OZ5YPN+818MbmYF2UJCGabe1XrHHDrdVz/fnfx1TVmFV42ZF4T3aEXL1KxWb0eZxAI9z7kRsM5w7kpAmKwKsB/hBDGAADx8z8YkG/tR9WLX53CyC703a10OrpJeVM1NwBiy+DqMNbUxBeapq6VF5d4X4no68OM7fZQFBFOEJA3XCOGk6pbHe+7CSeyIhXGkjyaY0So7S6PvBnm5Jh90HOPslr01RQLG526KBP3uLijZsHVKWk0FFiG1ze52JD9ObnbLQBLwoLXVSrIWTFz/YRR63K05M2Cy4avFjkQqwImolquoUhTtDeyIKtV4B8Uhb9iTKVSY+djimSKoZO83cCjNy4vQAMNX1rMYFuaZHJ+ZmWgeU93LEqiKbk8u0nphhHba0wLZk+NAtF0Xro72zybzcOMFoUk8mHjlpE706M5FkWqJFRjkx2fohoaLaSPN5P587VqUiyS2zpaHrsy7awEzbMyQNV/8iCz4mh4sgJye3/2VQj+I4hACQAy9nel4PLgM9U9/tuTOEONR921PVkSRcVSh4EiA9KzoRNnQKqZmhKPcr2al/zRZQG4ug4zoWMaKj55aRGWp8SePrJZkOI8YOq1ZUJRQVLSZi2/ihs9hogKscPwMsmJ/ogVVC6cn3G3hChzA6EmpoUmWRdFrwlnz2+wolc0swpLFqbrkudhsIyNrs4kc07x1854EeaAqdUlgOOlS/e25ODZFaFZqQX/ZbG+XCqDuiSA9QhkUNPrCiPa785nmbldqdDB0Y24sWGmHpW/uYxy+VH/5hLJsqBzi2u7qNcq0akHGHNbTcM0tW24uS2S9cjGlKaA1INGmyN5OLaIoAqIRqLkDS1SayRn+OOHMP/r03qX4Qq5hpJoFO/0Tn+ZKkIaA2HzR/0gENXZLw6zxoPbT/86A38PAgIA8/62+2LFf/RRLT76uxsEucEeNV66lCkWBRR5QRQLCsXT6TjgdZUusajLyMfxoQMAoVhOMtqdbk0MXjydUyBPxQaTF34CANMbNGmEitA+GdENaZF0N+vFKsYFNS06Aa10SsCVUxt2u/mqCAOisiu3v09ZUb2TX3xzEZFqq25WqTyPYqAyKPfXgdqtU0mImPmNEwdBCcR2r8qnN1dRZWdD9F4eJ7QgNOBvhhEURQmmRUEyjrAVxmxq0f/5NER8p4FEEw6XolJvSak/ezvMCrS3N3lTcpLRNPFiavPVajKMJdGo8TCYOkFO929JzmgSpFhussGqlPSKXJZ+QtJCkGkIS8tKAN/L2FPQAAAgAElEQVRpWe57n6fW/3HdayNBlMtlxAK0u/f6f/VojUqQpN8ZUEzNiF89mVT6zPNL8J+i9+76T2xh46CXjy9WvFGRqWi+dGFNwwjmNBOwVLstUfZXR1BgQSk2KwIqiX9mp5AAwDdVXt/t62D8i1cZTktaN1G0Khj91gO1XPqwTKyLeSnQmO4OOmC4TDnF6h9Y/EpUaRxMM92Q8un1wiOasPDufa7mDmqpl7+0rKiy26koOPAWE2a/RSeOE6a0Kig8iSyH4GCV842eKVLZ9aXPd7cqaPidh0Reh1th/aBS2lM7YI2qKikCpCV5/GfXiNV7tC9tqUWZ3ES1BhNPb1ZpWHQ/HD/PIVft31bc48ucRmGm1jWWQplthwDCxn1uOMNsuFI2wNRKaaOtAwaVmTXOeVagC8cvAF0Z8E77B/nTL4pdNREaojchbTltHRz9yZSV2AJwUB6YnZaOF6+P09xeleA/BfXPmK8mjNzvCyoecy1mOU6zOImQLAp0APiFK2/s1xTvP7wpOYGDiFNbMsJ8fH4cA0bd6XhL1Nxo0Ytv3wQEI8XgcR6lTPfjrWz5bKRVYmvhEQJpsb8x4N4NC4En93fX6SnZNWEwSU0ZL5+dxIDRqWVx/xMNpbg5uPmz9dxp3G/ybBF404tw854G/CC3riOmt017DlSQ5bOCxBHE5cE6oGobBjV7mZqFp8CN/NY+s76YhpkwqMumQFFpVnz3pOC0QX1l1w+qHLV+dQhNhUpzUtgL4wfhr1eMaPQe1RZfDgEOMqq1IRaZZy9zSFGgcke4Tjd64TVtBjPbyZubOi0JhX917AJG09nlOgWcZOhZeSA+PaoMwkDoy77L1yUkZm+PQprnWEWOHa5SH9wSootX46Wfg/8c3alduIgx61WDjpCcjNYMBfjAKUSNdej+/EqRG92a9RdzoLTNbJ5WNytp3FbCZy8KY/82dzkNAWfyqT32CKdW+aKkihhuPDKT1dkF3wgtd50QiJit+xvMN8dQQWj/dr46xwc17F1ZtQ45frYETEVPXG5/jwaSrNXPfr4aJXfuiWUOcWjbLr1piixfDJ/N8+rdHu1BObWRVt7MIiRpSuRKnbqKxq/Z9/1XCO4lrXq5XkGOFNVuRchjGIbWsQvU+7fwibWxqxTezdGkkKt8yev8zSHzG+2vjqDS2r1rXvzU5mGQ6zu1cA3LLPCxSAewzqylvRYMBXa5SG27c2AQlkucs+MVoOS6HC0jTHNSXfLTcl5ojFfwBo85iZPF6N15SgMk9XaV5ckaUY3PusXizeE8weA/AwHiSswSUdOrPMuS0ZKTSaln9oqqcTY6mJwq1TAgiYPpwY68vCjMJj8K7jZ47+dTdavNRH64cgokV9NFodQ5jHg6c5PWe5UcW0d00/WcUUAohPqPjdmzpShkub4hREu0JUfOaMUZchLMY63LrAhfr+PIaLLZcGoNjU+axHYkNky4MsCiWdPx5a+vMqF3dzMP06Bg6/jduxBJdT3wdYNTuNUx/qjy9hLuryGDaNOQmJvVZicdW1hUstxdCJ/uBGduU3WuJ6ukpCp1KuabldGr7MP33jzN2N5v/pD96t+tWJSRwX51fRXpbblIMnviMyBj6zIETXGdVsJj7b1eWdCpMzydlohXdL7wnYxXBnvg2TVrJrOYESQkmwJgWeuVBSkA1INHnP1iign//VuxF81OJxn4/4MUYjMgVkxNVbwRMMFN0uYjF+nMGmuzOXVgjs99yOq1KrdaEFXP3kWN1i3z3XFEy+2GhJfDeaDc40/GtCKyxqYcj63ae2xRupepGIXrmxhwdCl/qL24xhIVZlCoGEVY1cFqnhBQ2axOHL4CWC3HXDJHvR5YpdPVrd1yeupV6klUN8qlJzeM7OiJTRhp90Mx8tcZ6VWn72YZo/IJI4aRUOecYPsefg7fdxIkGjtVnB8f9ozFNOT37ojF5Hy+c09Icsp6MgQAElDfoAJiaNZxvLk7epsC8w//Dfp3/6PLQMD27vfA2SEyNRkvRk4GMIYSS8qagOV29DR+/306Imw2Pz0NBIVGMnHWpax1H9e+fcYY02khaBLUanyW5fOrANIUrQ42GPd4neXq51tLr8oev5hnBPx/QKokAEKKTUtKa1UlMfeq+vw7r9VGGSWJhHIu5vmD30PHs1WiSXSZpgQy66sYyo/vLxaBCxsbKuXNJ0vlcfXp04iryJ2P2rG1rgxCP0g8J81S105pDsb40XunLxIGxzlh9Q6eC+9rl1cExWizl4U5ZRpMHtvTeWx8tJ3hNWgw775b0Y2GG25ssuHCA7x3Os05kTIetvPQC3zFRInjxIhlZO9qTTc7ApR2dwL4BwQSQpsspG5e5aWfUNXH96jzC3tGtu/VkH/6OhU5x8XVfSHJRdG/dhnR9wrA/OYfK//Tn+QIU3r/VpMfPbcxhCQpASYQI14QKBFDtRf9fNn73HDKjhYevnRVOfIwznJWrxq391fPVuTGLrheh2bpvAiLzLIzSq1zpCwAn9l+/Ye9ybJh2CeH0wL8AwhZOsEYALUeLkitqwsqlQn08fOoMlAolqIkaA1vktq/2Aj9869WUlNBTOH4q5gU9OMP1lwnnAUSnwRBgvUPzRd/c0OrsvHelgARWy7C1SRJUc2Ij5ZllqTUvc/z74ZJnJeQ19R0Qf/OztkQZOtUMRQB6n0Y4fnrmyBFvU9kUakU715btFzXpmF/VyoDax6slynSVZw1q7ioKU5CkiINUqSIwvgmFbtVDnlJ9z34TyQxdYvSom6pwxcWBkz/h93FL69BEiv398BkWG7o2fMLot2plBiWgbVISAkAQPv/uPanv4Jyha5stmBpv50kJQYUi0qIAGT0rSZ9Ned73NML6XbNiu7f4a7eZJVsNglyQivNlsa/z15P7BMLKzs7jLPwGK6qB4dDYPSQtczrt8qjpXy3vQw6DWd0OclL8PcgYJgiBXJvr7P85aK7rckCDkh0eFmIvaYslRHNB/Nrl/3tRyC+/HJIdeosH18vU4AIt3d33fuB8O5FUnoekQyzJ0+/OcwUTW22axqXXFhmeTqDle3b7OE0sqxEu7MLR1PHLQCkaVgE2f5jYIXLMEOMURH6HeI5x5erOCvA3mYy6L56JzKUoGtRptZFlASOk4QRVsRkBXBB/2g/JdloGmQxVeWgl4DKFr28Ga5QHf5Apt2ETYbJQT/61gaY++D7+OuXCY1zYLSoVdC/o0yfjICxpyOQR57rJCDDAOm3H9/8fC4+fCDYgpGtZyezrCS8oadugSAm5qN75BeHQq+3+HVq0nay90nbv2H05PJkkRFGbZpsvqFGs6t5LG42pXA4yTl9Y7t89SJUGozliXd211/btCKnoNOfXnoJxhj8A0gDaHywp7HR371o3pYAhXwcXM0SoG92WURwESUrO+3cq1LzN8dZrcFS4dQtAc3KSpPe/pHy4qmfrWOh0ayIlHt6kui9KgCcQK9fpTuV8yGlt3fNdcTFR9dss5osC7pEYhxiiKJY2Knn7iSWq7pE8nrTuXGCIspiq+jv+Gk5YbtMyYktjaYxIGGUZiK3HqcgcUpAd/7JLlKDF8dZvkYGTgFLNwfB61fzEkP4PTZJqkqxdGFGB0kIjB/3jr6wEcIYMBxLmF4LWec22+7TdBn4IaWK+XyUVj/aR39+DgY/eY9bBlQ0Ht6sM0hr/VY+nhO6yCv79/gv3hhb2+SvrpkyIJv328CJWck5WcQlqxlytKT7yslNKW59xJxdTnzE0ca+dvI25Axl7TY+aV7/Ys1wEHMbO4fvYoAAIeAfUOLOnU0lgenJU6UFsYBGpVpaswjVbmmsQnvrrMAlaNewdXYaayZTJkkuVBmYJEqjfo95/q1H0kxs1CRdmh1OucEmv47yiIBlyPF+yNbajQrJVOndKweyUUprmsnNYlgQqcVARKJhsv1+JfYx8l+dw41GxJUX3uCh+82K8LqACb21p6DAXqywIrdN99m0zOKCrd7/bUMw7F+di+VKN9cjoDO1mvvd64gAAn8ICKvxFAPOn8MGHXG7H4Kvf72CCJaQ5nmWbghRXJZSVcjLbO2Czdv19PLbifH5xtVPPdB6sNmj8tI+mgQR5mSl2UCzi4AiZWWwi94MW1ub5V+8gzBV79RpmqwtgBd+DmWFJ5ZDb1UvZ5S09yh9fuHlFI2Brro2Vlp6uGg80K9+lXS1ZXzrE/XLL1wAIAF/DwJp630d5fMEwmkIkaTPj/KqQa/siJhb7YqWrVa0LlOQJd7xq1CUUVpyg/cb0fDNtLYnKeTwRQAhQJLE1Buz80C5t+Mu48inqqXll4xgsGZTytxIss/sHBSEFs0muEqYjHn0EMxvvMCndw+4kpOKZ19a4u12CCjH7j5Y/XwKKVEiWT74pIaXRyeR2ms0q/4vxwwNKLm22fM3H0S/OpEg122nr5xGPAH0xUWGEA0/E1WWIrKADr9Muzqs7bSSo69HmBfSCFV0ljL4FAs0onHix7HH3b8lheO3Y7SxM3/qE0aoNuuq7p2OijKV2zovSd7hHAF2sK17146+twn+9iWCgd7hgSIXVphYVolklfFXOVdTw5xBlUZytUgwQaREFMaM3hITq7pdHR5XH2vnR/L77dMvrgvw/6Jp2bhX8SaLJZS7yC01LX03x4woFmGCQaV7Zwtcj+l6S4rmSJg9twjNCWW+87k8P3m9UHcEGV5cpBARQHGlUKedTLjVXS7SwFf3hfll2m1kYbOJkrnF5ONVSQiiVY3JnbDAW7/TT0fnizXTqEmIVZrc13/pS5u1GGvlTOyj8aELJAXHWf3TOgmeH5FKt1elRt/4sshX2gYMDn/rjypnv5jQvY0KGzrhxbdLLnByzqzCH7MMhKxZrG8O11pTM5pyML3wjC316ru83WYoVSxzWOYUFXtpFgu7tdi27AhzHcm3FxEBnNHfZy6OciZiNloAidE7i6KkOwfEWgXM9m3p2ZsysjBLi72OlOfR25OAMIoQxoQVVa2erHKqjNdhQSAoCQSI1XQqivUDeUg2d6j5VxeVHXB+k5IS/D2Bkvp30NmbNeCVukooIZ8ukpIAQFBZEsDf/Sx7PSdC23Am2oAaX0zKjcf4OOkyZTK/DBW5IfqzUOCyDIGU6jZ4CmuKZWWur93l59eUqVzTt+plfD3imOkaAsQJMutnHOPA97/PB/YqdRODL+IwqT9Y/MzneS5lm6pDbWjFi1d5RQlXqf5pk+DTI6w3+sr6u2NQkTh9jzjz2Wf//V7yZ38J2rrQ0pdvhoswcFKqvluHH5c04RvqlcOsrgtN0Uw9HM67H3Tx2V+l2x2aEZncTwqMKBznZSF22PEkxgRTUlVb38wLQIvtLfnqIpER1WuXCeNfZBWm7ByUcUCw2Teu5rk9DTFgujs1mPpHhxkmrEJHMVSMesMeJhDB5TonCJYYQoqRDcpNtG1yCXt92Tm7jFklJVUwWQMACAAAShjXH1cXry1ACYJKCEx9wAOQ26nExHmBYV1esxROgSBQrCxH0/LD34jfXK/hVpf/8kmqPuimw5nAYSr3PNga1NhIEFwHRCvSCFc+z5Shvm+icnhFMZaLxAoLedpN6vsQNlUShKDNvLtMYGqvyeMPV+n63ZypDJoJvKWX11+7VdUaB9JHG3luXxaNRp0afT1je0aRGHie8J//68Hqf/5CUhlUby/ehiSee6B6764Ae1BUTXP2XLtdHF1DvrZdj4+uOj/spuOn2bZJCopkbkLhkqXKHAO5xi6WWRwBkjFt2Tn3AM1VtozVO19pVKpyarthWumS67QhGTSPSCRiBs+dkIKZvFHFXuj4FAxihg8TrS5gcXlayjy21jlBsCSIBrzcq67HtJGMUUWCcZmEJcGd71W//S6EVEkAQHVsi4/v0JMbZ13QQolkiZYlxGYvZgPJSZPQB0A0WSpVN5iTK6bT4pV7fed6Mi62D+rP/uZU/+2+8+qCCFqtmK+wZgp5VmtTMQgXMXQWpawWKSPTip5HOV7OUa+RhaKKC22vxhRBEblZvfrmy6AiOH5Z//6WsP7zo8aGbriz7l3BebqqafbVnHtwkGfLy3K7Z6LZt5fMRuP/4ghOfi3NDsOwn+Gb5/vdeXj3vnmqqq7qLnax2WyRFKmIHmJKFmTBiAAHySarZOGNF/kHsoiBAE4WWToJokWCxHYERQQkkWKT7GZ319A1vnrjffe+O0/fPJ9zYuT3o6/9opD0nQdgeeGpJZkzWsGl64QJVHYf7wLYFOoNU7l42npI370juHW/Vbx9Ax98qiyHsCM7E6eAACtRpoiEQSwYUkGz1bIIF3nrgfztFRVks7dTfHGHG10T+7dzUNtreN+MuMpurw4WV0Q36SqXTeDnIqJAkkUWbzZJnrQ+0Gcj4t3iqh7PvIJCCAGWVFHaqrg3olS4NM8ZZ6eLLCflR+3l2xkUOCEKSg+vLrUPDlUS3V76nKEZNUvhaJaTV4NjeZnD9bQAWheH8ekj8uVLrtU0Oqeq54zvnPa98t2zL+3f04dvx0yrlYuEcQpZe6Ryr1NE4SaBkxFs7aKpuwrFcrsZJM6UO6y6nqBKklhSso1vF+NM48fnvlXLI8Y6O9LwC/f4AKvrF+jTw+jpvKYnkwnd+44MnNfRUUuX8un5kpbEq3GBOMFuojDmeEOxD1qDp3fTTNLMrf0qgx9oVSUD2Rl/Ql71Kaw8aoGbNyv1yWERIJ1M+zOsGSIMkCVSJnAASYoCnGW8HCTbP9Gvn67LIrEf0F/fEsWSQLSOhMMH2vVXPhCOH+1lN+/SkuhNua0WvxoHuVi3dS73/iM33/8RuBhTOMeGlkw2BQVQ0LSSGcSmkgWyopI4cEPI41kMgFopGTm1BJGf+0cHf/HKOCwlknx7kwqNpm1rmCQrh95NW2acZhuvAOqxGPonj8DvngldS93dR4E/mTjNUjyZ9tV9MJpGQDD4VNuyxeXlGpj3DphDeJzf3PLbH2oXZyMXat3jKHAcfVcJvSxKtIqynKzlx8YdMcKVG+AazvhSfdNfuez+McSr5+GjE3w9BLqcLL3KZ10hvRo2tTAT2GhSKGTmUMBzarVmEBBlfO208ubLUSRWTQz0ugH/BGfjodIrImN2GwNYOa1wq+HMN47qHCPxeh5IigIAU0t8kikKS5GmKDAJJxfh9pOSc7FS4wHdU27nKeExJQWzTvbZ69cZkD74pBddvk6r7HqJ661ycD5nRkNnjCV+nKWFtYNdT7ExSEE0cwvKoFTe2S7erYwqXTG9ojPoj1cBYFhkHEI8aH4gZ4XXPPb+TV9v82ueX2wo19i2VAWgeDQtokRRYB5HYQb43bIXljva/EbZU2mlDSKar1fi8CYoCk7NkoIBgDNq7dbo3Z0P9J0jYQ52zPDqjGseV27PZw4TWnvOKhZbhh+yeL5WevJoltY+ta42IoRisslJUf+B/TdPC4Ba2xpLJvlehYvGvmCC9QD+4LESX10KxuAKcQGtNKkzC5DJE1xt8zRKLEsD48txsXUgRm5Ws+Gfo9nridRSwtBLACe06gwXQtz32qdaRvhwDHCYAkuXZRolui0Gq0I0ykoyvtnIvR1x7aDVq6DUEONZSAEGUN3aMbw3gxioTz6tRtdXfNl5PaVSvaNeDzNZwYQykhYQYMRBiEvdBh/5s6EDCGOcfnDovwpLkuOKktUzBLAcDKW9Y3l46aZhWH2IfaV13/j6b0MIWUhBUjCgbalMkITMiwnIowJxII9jAmqtOM75urCR9421b+tCS11Nned9ggXEUqiqWQwKwdzSvMG8gNWDbTxxW8do9CKWyloerxZM75XfD9HJw3QY0mDtKjvaYsp98Bi9fS7VNY0NbgNSOZTe31BekE2DL4lQh0BMHKIU/fPsyQ/kuysX6vOLlDLu+AQko3neMhcRp4uY8ZZMo2TZJ4/uUycOOAj/GK/fLSUdJDmAEGt74jhEO+r5bfV+jbeq7tsku1lrBxaOnAhW25r/tp+r3RZypqtY3OlBh6fDEV8tZX0XyiBHlZ0yXN9O3UJ/+LhWzPxaefartzmsH+yOn214heUQszSjSJbTlPGV9pYh+lfnLiWUIXmryw+XJI6gzMFqzajAfl/88EP98jdXQUZq92bXfPuIXhqSPw8ogQQDgmWaibrEAwKFaJkAQUDFmgBOgSznO3aQ8CRIarslW8iT2VcjxnEgp3ylnG4So1M38snZgpk7By1xOYcdNRjOQ8pp3HpK2ify8/fw8Y9EL5y9X+XVvVp4i77b898/sz/kV/60H/NSYRmjzJQCoBnbjcLfwJqR+4L/8pIdfKLfTShD/sjNmfDD76XeIkkwmK8pL1t1LUlJQjfD9MFjsiS+S+ATJZokhsYKICoAyKV4OKP79k3f3N3a3bNmz1bh27BzLCSTSa61O3by8qUnVGoG3bgxv3uYruVaMfFEIenHVTOe0mrDpH7grkOpu1svmLStL//mdxFX22nM34aalvlUFdMwFaoGHXu8WW5qIhlcBpQSJrZ7Nnd2m1AEZQ4wqDQkd24f7vWCX/7WBbi3c3tDeamofMY5mwgUYSRpBYgXuaTyEigwip0cSIborgmklMPYrFu55wVUaPWEMNOk5ZspVnCaUd60mJO1vrOFRtfnK7m13za5NIqxIhRhf0pktJyx3pF8cRZWPjlV08uvl/KDbc4ZpbttlPlShdy8nafiljou3edzELxd8NYHvejVoCifdFAx/W0ftR/UxkucURo6Tm7+9FE6Xjb04OZygwTZbCirmBPT+SQyt42cuTMKn5hCSHgBkYKTBUkki/E8rtmzIShtPfmkNP124p/zO/VoOViCUqvXyN+9clXTquooXrBS1d+IBs58RJJFvltzboilc5RwyTIAZrkEBbEprb46i7laHU9XSq/iXYd2HbtrYasGXw0EReWRpIZDn5ICtZ5UZ4OBx0wuwpzMuSlmDCB979OtL/+DA5QD+XqFGOW+/+nNgDfV/G5ANVEh60RTKaJxkWVRDrSGuJznEBAsypUSKCiLRIXnQUoxcyaeZPBhmCNJIjFq32vR/uUosfa7FQ34IQZU0sXp+0VehAlsHFiL1wtcv7dVzG7zxgGbLQqlvn/QkuM309GLmWAd70SyBSkJvzyjxoOm92JC8fHjdnH96ztU37FWoUIIJJGTb2+X5FW2Y3rP3iNL4yKHUFBpBAvfSXjL4MN5Dn9mK3mWEpoERJCqFc6bjVdieXmdYv3gp/fXr+9cv9GEzmDgAKvRboCbt57eqldKSu4FGZklKplFyEAwZ1v1bA5UlEWcnDlBJNYrMp1S4E18JJWr2PGME3P8em1uN5M5rFnh6zHH8wk16mzms4IYD478r24LIPb4fop1M/ZJglEGzB//5O3/voCNPf8y4QTG/+z0r18J2yfS3Tsnh7Jh6lXep0WQ59kqSoQta3kbQQCQrNRsP+JEBqQ84St6OF0FQNf4NEohLoJUNFt2OJwnwOq2bZMLVmmUaD3dvxw6CUPK1kk5enmJrLKeruXDBpu8dwxbbn5YR5trID17RQVrf7uaf3EmHvpPXbFZF4ZjgppHu+D1G09olmkiaaBgNKTN6oRVBKuhZG/OenWULy9nmd6x/ZRzg0Isydk4hf9pQ4mCiKJg6YqcfrKnpf3zorx44zPAH/1A7A+yxqEebfr9NTUbjQq+vQiURkMRFYH4RTKLuM1dKtY0EAq9FpcAXLihZmTu4g7uH9eWTycsz6HUqJXlZCl02fXblbh1qrgur6xvfAphIcsm8zMOS80uunuzIpzxMfx6DZSSlEcRYQXlf/LTr/59oHbs+bAQq6L7YfvLG3rw4+rqajpYofrxaSMZhqyIcxA7U7K1l99MMgh4gbO1DeEUGGVpiFu1YLamRkOmDAMMwrs1Um1lNc0ZUOpVs6RDZ3zr2ffsYHq7yYFU392z8sH73FRgdCf/sJPcvZ0bGhV2aunVeO+7g+eblNt90h3935fy6darIbV7tenbVDytg/BV0mqJkReqFqJJlFdOuLOlcbpvSenNWiwSwMLhqlSK1lyVppATORoU8LBnZ4mL+PUolpF876iE5re5Nnu3oZCJdTXyhPuPzPXsznETpdmoZJf9WLKENFOaJmOFu/AXATQ6RrQQ9jsyoGmwZM0KW78/K/YfdldfThiBuLFfUaV8lqlRv++wyr1mNs25cBMmDGhlEkPKxJLJUShEg0FR+QH4Zgglq63MpxGmKf7swRffijU7ny0LoSsNOTNesh/8TB7OvOfX/PEn963w/U2OQEbTYO71PjLGVz4EthADEok8CoMkioii5WnKlSscp9kYCuTifaD3lMkkB4xTSpalyezuLKhsl5P5zM+R3W42VeIOFky30cw9PRUWL6c8DiLrlHs5QC0pDYl1/0PhxW8ivbd195bq263pS0/6qDy/m+0+3vXn4UVuAZqtktaxEU+ETzo8ol4xHXlU0FNHK4aeYHNAkDFlOYEfcqJQZBTcroHM6ad2AlKfl4aDkAKIMCoK/ugza3G9YFzE6m198f4OyEIcFFK1XdKE4OLaB2Jpy4oH4LAtscRbOaXdKpz99oqd7NfCVxNABXVrV+VwsXHIaj5PgNDaVtYIFWlGaGZ2/BuIiVSCQW7vWFe/Chvfp2+mulRtmbdvIk1lVle5XEkaDpZOyjWVUSDKofxffH/997fZXVA//vhAzq7epAwWseeFQfWhtugnGJVlmmYAZiSLEjdhADDCsCxKVkMlfNMY/mbe+Ni8PFN0fxnz1SqGSjylJUnh3DzZsFrLMrhost64uGqRpLZT8q/WBfMC+wS8uU2AIABYPd6VndeuWW2MvyRcZY++W8CdqnuHH+6aroRfnUkiQ8uleHxkA2lbYTkoovEqCV1mmOpyknEi5jhU5ArI4ZOc5zDMZrMM8oK1X0wzQCXZX8cFAFgW86Co/17ZHSwQokLNzMd9F0o4TwrebpU1Dk3frQFvtGv5HA2y2XUAACAASURBVHUbfDBYEtzpqfnrb2LxoAHAahIwyep2cJ4Rb5Wma5cw3qwZQEI5w2KyNHb894iPkRAEQu/QPPt1WDuKFszSSjK9vk3l1oOTzXiTkyQOojAGphlGSoX0/vPaq794Q7jatlDZtsl0lCQpzcKIMqmrMy/jo1S2xCLLM6zQcT8BlFEKABTLdSUi2lZj/dWy+5B/32/WFzcLWq1mgWDImjD2NLPCbqNSwxTo/NwvolxQeKVmWDxBOaSspg2+XOQFFBAqt8rl+voGauXxLxMo7O6M50Th8rh0VIuiffXt57kiGXQT9rocX+2qMJnNxqlh+uer2o7k+AwKHAtWQWa3BVitlqAgbK58IEKkmJlXQMQJAggDUuBaOb4Lyx83i+km9YRuDY5vVjmn8DAqlEYFM6iw6dRNhFKFA6WmDfpfho16S4uu33uy0q7lGj+79oRS3Qy9gkNZSbocEMbJlq3BnDAEN5vSbrrR+aUTZ4V5vEufvaQdexopmiwsQZpkXO0nR4vbZRS5ASuijPGKyMtV6fR7/Mufv4ule3vOiKgoDoOMYpEHTOS0crUo4vma61VBmBJVzS6uU0YJZQBwtWPbWTJVM7xhaOnuJNbVyElwvbxcQHunXnw703Z6/N3abJg4nl5vCGMMQFECnFqpipolg/Hbi5jDskVizVQUS4y8VJ6+TCFqPoAhXc45pVFubRZ72beXRDLqpdS3pICBykk7+u18LRhqPs3KZUoTrJjc+noYA2Xbho09NZHU24sUc0iECBSEl7hCqmK/CDLLjO4C60FPct3VQPmoW9ycb6igKjgE5arkzeJ6ObhbrjOsSOr2XoO++Jz2dirum9tCM3i5odaryauzTBdISnmtsA6Ny2+WFHFWWc8yRvLYzxWbN6tofBsUXPe+vnh5J343ekoMpfAzKCBg3bsvRO5gFsUJpnECgGhaiNdO9hT3/PVY/3R3+pthxigDACIkChzPCXxDRslymXe6SuqELHNXCeCLmAGGGvd26WoWcwIfuhxaOAnFjAKgHijnS6DvdtNvV9peS3IWUk1haRTMpjkADHK4SJFpc0rF4m5vNoV8cghnqwhIYoYryMXu+xAJjSOdwf61XdUpvl1U6CzirEZVywKepSAAu/ubcytZOTmn2GVpnTCzWQnfvFkxTiip8EmDhppy8T7HWDBQliVU1DSJtw2KsjhxgyCSe10j9Rd3wuNDNrpzcq5kEhdbGhq/8MrtdOqmBUNAqhwfoWcvWG8Pnt0QqVkNw1J560g++01igZhK4mrdPK2k78/8Alm2mmUkC5OcSQJfsovJKi243QMyvg32/un7nwONX0YQc5K8u5t6rFi4hEK+8FPCNffdBWpsVW0tHl1b96X3f3dHGAAQAwYFgcecAOoWovHG5cpWMffCNMe8UqbzEDLl+Nhy/dGIGSaIFHgzycD/z9gz+zOiVDv8IFZrthwtmYoRkuDmbEQxZIJmgSDJc6HS3ipuLyL+ex9v3qzCTNPzTFGhTF+sOb3ZEOR0EVZxxpwJ7pUGt9p+XSJpkEeZhqEWTfE99fw6kbtdC07nuNa1vd++ZmWTBgz+SEOx7IwWBEGhwoduQDm1e2IViEGV37yf5yHRa6XC8zK2swsXMSVySU0CRZfJ5ecrqOEogxACypC1JQznXLfnXAbA2CuPFmZ150P57BdFXRFkNrxxxO5uB1/2Q2YakIRRmBQFNCTCUBgVhHD1SrSM4MPvv77tVKIvF5BjQvtEG14HgFM1XuaDEJYaPfMXl5UTTqg0OX+tKsunL3zGGEQcKCAWsCRz3H7Jj4t0FSeU5JQUjNMaLThwGFB6FX7qLuZcpW0iFbztRwQIBljTUpnkmBcsJdcVhvFmmSAgVS1cnL1MJJWhzgf26v1trjWrNW305QJ9+r2zFwFFdil1gGjVpTe32LBtJISpoXg+jLFVQf1hbVcT8mi9mqTVbb6Ic/vQePciKB03+CKYJoJVRa/fWif2up/Bz1Q5oNNlKiHCSkLkx4wJu5+20iRhFTN6OcicRK0a6dwTObXBOczUdJ3Pgarz+e3fvKMQUYB4BggBkEM54Xv11ThHpZ5w7pS2jw/iL18o7XqdO7/xfKi3j1rZOiS0ICRYewXN5S1rtYwSQguKNTFKIdZLsbZXuXvqYJHVj5rg8lXCG7WqisKIWffbm/Nnzkf3Fp5kQSZo2eWLccqhooAAIggx0soA1bW4gPly48YMIlRQrrZtoo1bFHIZTYdZAeT6TptHSX+WMKLVwvcBlEoVmcuBYh4IQepeTTMAxEZd4lajNW4qSelEyRf9jd6QgLjpz6KH5Zdzmitde7OhSr2OphPKCwrve1yZBRTngqBV8qWkqQKNZ/1JYd+vEi8XtusX70mnKQmYrBartFQOb9R7Wn+mwR+qaLpyU2gJgME0xyKX0+2PayCO82opeD5wEr7cNpO7KRCUEh8AvWLzACBVgdnm619FACGJAwUtKOAwywm3XXOWTKxU/Xd+bWfHdl4uWl2F759TnkFBLnWqIkxXA6qD2SjDXGVPuR7lGHlhgSWcFAxwotnuSSsPmLpuEW8zWQOimVaD9CO5+wh8/sJVnzSXLhUAkuzi+mJJZS5IAEACxwiu1sDMFSxTLryFG1MGIaPaVplDJApDqQqvZwxwWutgD3n+BiIaK6X58ylAes1Crlc73UdpNno+zDHERrWslbTVqNzElMW8sNoAVTLAJgoHRRQCmBt7Zpjy5bayWLmMQIRmC6ZSKAsRBbhVSQvF5oL5YFwwsXlox34mKGGgt3kPKjpeXExRzXCzpjFy9+B/Wcwv5jnFRtnA2dSXbJ3l1dMmjWKkp/P+fIbbrarBwnGABRkQXjB0CjieY5t1Mn+zZEqrVyw3QV4gEdKi4LYbXoBUQ3CufLti68mY3KuuX18XpqlilBX1ozoIBq/go/LyfAqUZhtez6SqNhxHQAZhgQXBqBycVkRFBEyng1dFpVhMCRR70nUgbe30/2YIyy01Z5wAE2CjxXwNNLwMBVOGkG1Apz57H8qdnkqYPx37AAKAO/U8LSDLI75eidwgSPjKXhd5MbNpUmjq8vl1DgWrhDdO87QtirT/5bhAiLeqJavTyEeBrG5GoKeEBU7FLcVZzC4XEcSQLzU0WVHsrvj2wgEUc5L7PuYRbyoZhUhTl36rWwyHG8IA1uqHuuPGTMGqGU09otXF+TzijApMxZjuwn9dnH0xzAAyenUOjW6hovPQ2G9mASezwZz4I+6kjHhZCxyaFpBTZE1DBcNZ/63DKZsl6XzY8ZzFehNjLs0o5bY7CUEMILJ0ZQ5qjSDfl759lXKaaaG8oK2jUra6PuOf7ObzyxEuW/km0arW6mZDRZqYp0ZQ5IWgnv4eB5iQn2cPtDHZXM5J3Ug8v2w9/zoVTQlBjleog0s4jTeozOak0i57q2iS2Xjs49pJm8sxi765YhAIrS249oKCE5CoVspadHFJhGpVB0TXUqBbknfxfpYhuWySAFp2o4bOfxfLkKqaJBitBj+/8YVV2DlFCYLTorftvbz1kxBwBTZFWGnKtf3iq8uch1gwsjcLTirVNAIAZknfM/VoHhQQYk4s72+5q3Vi8piFjhMRSVbUfM2dlscBJ7bg/yq9+dX7DaXyQUfip/004wTR2m4CKLBgHurBkBwZIdUrbJks54VgtvarKA2zzd35QimDObdXYS5DMPVROndzhjsdiIifcVySkCi17kkOBy7uciwpOsnERs/OVovRAre2msLN88RQ81xQeTmdR4SH5o8+WQ4Wb68y+nv/QrHg3fvpyc50uW9/PRBEhdvckno+WAgKjQtaAJAKZZu5a2ZyTK/pfBz4I4/mPml8r46CTGLF07cU2idtuJj4UUZ4UZTsRhO8eJFBVGpqXClelrbLYjbv3/g0x+UqcTO51YvOb0tPRDcI40JodmR35BIHn+6EYQbXTuv7yd/1NQvzyB/5Oa53eLvjv41UNc85lQ2nmdmuiZSkmIvGbpaEGeT0sgy4UrsMp9crm0/8LI+DtIBKvZLmFW1TSLIC/6vG5my4oTndOdL4zXi2znmp0t2u4TiIYmDOrvytUkJK1WLmTiYxVA5+eCy7s+mSX/exwSXdrnc7zc2qXuB8MtrEqNbERexTCWdxFrHWPW204vxpCLEsI7HSrMHR0AkThu176vubWJQJM/UggZQx3Hj0Q/3ddPzlFDT/5Ptq+eJ/GRolquz+hPvlXEeQrgYr+xEeES5YJSTyCyi2j7mbWw/xetmSiAtLZDl3U+7DJzh0Mha7VxOmPTySWTRdZUkQZFipdWrc23cRgkpLBvp4Zh+1hDyYOTJeXoKW7cdKTxqNgtJnW+kyCBZubUeHSeTN5WNxsYhMYb39h+mvzuWPWuni8uUKap16RvUsUmUYJhnLAi+t9CwIeEC4bDLxMsKAftThIly2RdF7Nm0C30+yICkIgVKjIQHKJAxy+LiRDAO5Qufqw7qc3r0ZZ0hrbu93w2lMqZC/uY0khaBKl06zLGYpt/fpfXnVHy6x1y8sQf+ss3h1seZLJdWQ0vlglps2DeJcUKgTFsQ+1eki45PNJoW8XKqWJKW4G+QwyWj94fJdkgPIcK0zHxeCiJRHPz6GZ++efUsO/uk9Q178T19zakU7/Icf3/1VX9RA5G7mydEBSXG09PIghLxWq4f9O59CxdaA6+APWsFsFosfHpPYiVw/mLi09aSCJSFyKEoGlz5f7jb55SypShxwl8T3xbLGsjyuP6i4f3+tbXFsb3v87ZxQo7VlyfTuUjqs4CJZrXAVLm7IcdNpnoLrcfzJ8fLV5xe51OqCObFVXgNp5MzjLCfA7ukEtrSsKC4uEwRZrhy3MCeKogVnr6MqLHLXyyjm41UmNbo6QiKLp/AJv57F1QP+tvjutpAtX7/MhNrBVolbuUiW6PnTkALKsNqGjtTeMmNfbjTYaLAJ07nHVeXan3aHX76Z5pxdb1SBOx54skSSgpNl7y4E+OTDaJ7oyAMbD0FYaigMZiO/ZXsLybIuLxkgDODed9Jnd0zUylt7u0fsxf9zuf0HnygA/R//lnLq7vGPP5Vf/ttXhb1t+5vVNO9WqCQU8yADlkJJMPcKQoFc0rJlZOzWuST0WZ3LjDRJGJgPI+3hNuZE5oGGtf7dtwlf62gAKntS5t+8dbMMcpBAjE5+2M6++nlUb1qPO8//do7yHFbvHeLFddbrCEW08XJRDYZZb1eQbTXYTGpH2fNfD6HSrHpjqVsRMcyK6VUACYPGjhHh3UYWem9voCCSAFS3dFvNs4qQXs04itUkFzlZmJy7WKy0LcTDzRz+frqYxuapeh398EOOkPEvJ9bOjrqeJwpvmuvfXAMBEYoFAcTa/UMz2hBOJtfniYg3qWyb+h/tXb26Hvuw1mpYLNqMQ1wwBBUdTG98IDz4MF0g3b+VFADCVLJkTNcD8GAXBkK0OJ9QyBhEO9+rPP/KQ41tMpJ+9KPrv0pr8tb9WvbfPZWAdnK/h+Po5+eF/fvdeDEZTLEuyrboB4TTeM9bh0DhGSyVBG8j1CWsQAaE4jdxe8sWAbd+fsdqDxoI5mtv+wF+/XczJtdrkqTWaG6G3753CaKIU3h5/4MWufqbgdA7/n7j83+/gpgUQv0Yb5y81C7J6czhNDFcOmTrfllgi1UMNe7uepHxFdubc7W6iTFEs1eeoKJU6aqBsN0Bzt3bEdQUhHiM5EaF+BVbW7+eB1yFw5Ko0fP3IUKcVbU0MMrgT8PxMpF27av1d/6oAjG9usKisJkseAuX66u/ngqtEokJDJJcPN7WwzXiRdC/ICVpHsqGIh4chSB9c0462yWU5rGXUx9ymdzgR9dOwbX25dTS7i75WhkHITYUFN7cqfs9SwbT6e1dAjBkoPWwcnc+o7td51VU+6gY8wY+/JMt51//JeWsHTxelY7fTcAH/xCFzvBqlPKCoMmkAKAoUhrlnG5iptXEqWNyLpM1wzTiv3ZLez2xwOT6zYZ1H5WyeDOWP2zOfnMH+XJVwoSm4nHt9RcOxoQ3DShYjSpcP39bVD75A/Nv/yrQ5SyDQoU4ORRL9SYab2QlizN/Ln16Dy7mEc+v1qmULwvLCubErBmaymfO2bJ+rPixgDO+1VPC0evrWJDM+1vji6BSxsQs6cVlf8NXFJHIinM2yTkJ5GK3hwIK//BunFJUsmau/eefCQBk03ceNwsZzxGzXXy+Ih90ivUmXkQp3dvmkhDyXDJ3pGowLnhRlrJ292Ht5V/OajsVmGRBzIjHQGQeCvPxKIaaiKWuFkwSrWV5M9Q0yaa/Km1ZWIFhOBs4DIsor58oLOmTrrp6s8YyhWa98tkfWc7P/69XhcIDzecaQ6/8J/e9wJu8u8ogz0GxgDznZxhnhWBqHOXqcJbIgUOxVmnU0DCSSkqa8BK5O1tUHrXyyB8Ve/vhV0PImVUNRGHK9VrjM1jjVkFZz7PUsMT05ioTP/1D/Pmvza4cBkkGU7+Aolyp49WaoSyXeBeebNOJjyEK10nbdBMOe4tQLOvlA8lzJ87eB4ozWOYQWzutbNo/nxCu+aQ+HxVKkaOiSOMiB7IuFq5cckcbWtmXr0flD2vMgT++WhUMCUIYoQd/eqhA7/MvrFZYmCgtRCXK9FnJYNF8OYsitr/FCOF46I4TmVslTd0NGS199L3u4N9dwlLDYPEmLIqcUdo9DTbutQtFGqGayqc5rnbBzdrQaU5kVUebDKmC29/kvKXxtR1ZA7MkmJObOcI5qN3f/+gErL6ZXX8dMnkX+3RDn/xMcXzPffM65mUYMQp1OSown6eCDCjFEouZwHJCBaVSF5ZI5vIUSYrB5ktgq4jmCVe13a9vGeKrW3yUMiLLQbi1Hb0f20oaOIWkqZublP/0w+jVZtcCURps3DCjQNB0Od2EDFDcbvhAkWnhFUjGedyoCdRdrgOXSnLpu83ASVCrzhbDWxdgsbONFtPxgillG8ZbFTO4Gc7DhCDD1IRitTY6XOjg/Qf2+B05sPw+/MlsHWS8COKU8ft//BH+3V+Mug94UAUeAMFV59N0tgR0vV7GiXCvlWUZb4jLyyXIU67TTvoRNu7fK7vPpgWnVoUgSIMwB8B4VLsJ6M1SsOgqhpjHnLrzWBu9us2lynaLi511jkqaf+MURrPeLMkiCKLVG9daTAnJYf1HHzSUeNK/J/8Pb6nYlZZhLj54qGcZjF6+pmU9mSWAN2sSjbMiLWCWFxgDgnRbyJKcr5bjFwEnKWVTymmlwnmbnOcESRVh9OK8YKB8bGVM4unq1ql2+elaUxAc39FSW75ZKh811vNGiWYARsvJBkpQVjnoLXOMobjd8pKEyiU3EU01ixBfkv3JCrLML8QHD8TIF6pK6q6vhwUDZtcK1w41mnVuvS5pav/VhhaU4HK3no8HaalhADet7O9KYcrmNzH8aTafB4IqgNQl4OM/5/7dLxL9QQvWhduUW7+x/9S+PE9h6DtJUf7IdiOgmPLy3TAtCLKOxb5bqAf7OB86ukQkOQZoMQyxefDI/zqSlxtlB90OKIAMCd0fdbzfPY1LOz2bObMIcoqUzDaZvn3QVkV08y5JXN7Si8UkJuLeYa2rTN8/sf/NN8g8VibrTNvSeCzx67OR0obLRUrF2vGu6rjBdJVGGYMAIqwaqholSktb/DpFer3MZ2uvcVKPxg6VBaZpOe2fJVRoHpSTQrHx4MWd0KrkDsNqOTzLth6U3Amx8rXco0GiaJEzcC2NQZQU0abgJEGsqq4T4GqroIKokDAtbDvrrzgFThes9aADPUGmGYyvb2JKhEZHdKLSVqvCBVcDx/ON0nKT5WrzqDp7PUJVW6TOhjY+OlKR8+rGhj+j034qGyVxNY4z45/U/vY85zoHQl15kRjBe/TH96/PIuZ7bgp2v6vPNqJu6unFpRMSvrQDF55Pdw40MvAbBk1yVsbDfsA37m+PvwnFwpPvKe/fp5AWAOj7O+RigHotVrAIQl7IkyJxNqj16EAH/S8GHC8K3OOTwVtuc4f2ayeH6VMgfDvIrc7Hx9zAj/uxKDpXs9w2fT8oGN84PW0isnn+JkxyAABU1RyYrcTVmvr8i1jbroDYj2GlXSqWy8jgHawBybkJ+Ma2xfs+XzWy4ZzpWjAMgFWXQlS2bSGJNpNl0wqdvF1Np6PcoglASZFFVDQNJBJvneDOnsqRvi8LHF+uoetBrKDZipaPtoQQZwmV4Ga0zii2t/RE2W5KiCWvv560nxzkq8E716h2xMGlK1ZsmCfrjXD4vS7vX94Y8M+Ie5uKrVp8MQFpatXcuGBKZ6uKzvWa9zb+zsfBtZ/7s1WK7v9AH88EwzbAahFFOQTAdbwIl3aq8IXfrohwHlbohqFYbBueFwRRoHxQGV3ERZgBKDAepaxyqg09JtWbQrhaEuAtcnX3A35wPqEqB1Ly8PeHl+W07zaa3Y+Ms8GKuTMgf/IPeucvRnecyc5vUl7jszghUDdLO/uKyl59sS4IKIDUViZ+9TAfwabtPMsqu0oQpLIsqTiLgkQXNiEAFWEdVxrUyaIEl0qlsgiLYPhuIbXbNiZxoZbFYnzllYtFIG538Pg64nKqWHmEIRDsKszTwNuovQNeZL98L7Qraqmsem/f5DzNUHvXQBNUFBBzUjJNU2qWRVTpleTMX7/+Sv7pfSNe+e9vCkmRkk3C8YIg60HfV05PbXrbl+CfqWjhcLut9fOlFVzHSNEEJFXaJRZ39OnZEjSbUSDSlZNl2x+rmxXVbQ1uHEYKLw6djVfIhiH6g6LSrqjOFGRorzSdwoLrsOtBoZ223GGQbFJuWxx6ACBrR3UiaB1uzW8Dl1LfJZJejqYpwYpMo/z4o/O+qvORUG0el9Z3g8SZEL209Vj9+jrShMWdDzkeFnEBjBrvG4dW2Vo8vYsATbjOjnfmtR+B83W1lz6NO03e9WEJRrKWpGEhy3kQZq0dnAvx2ZxwmJOYsX9kxNO376PyyZZGAyfPBZNbTXJxM4+1XkNdnbuwQOVWvDKbMkMaTpIicNVmM+LZL2/5bl0QRF5b/2qF9a1qjYvjKS8VMeEMKcmTRNJxYXQbarpcXvZ7H2nYiVB2eZsJiijwwHdgq0Nuh5nesEWP6PBntgUj0LbnF6CZ/+UNFCsN3ZQ0U+MNND67m5KWEYqazFFX2pGjpFAtyb+cSXLhZyz2faRpEAqDjbTX44F7txaP27OrNFfvKa/OcqVeJQ4ECWseqU9fRwDw5TLHUGVv+Y2LeYyiAJe1cBMTBAWVZeL3D//+Jas8qa58WDkOo2gxWWJdUR7u3Txz+HASMp4VhBQMN7rFCHRrFa1YOuuUEXtbvHwVdz4pvbkw98GXfqUmemtsk41s0Y3DNKPZSGewK2/Wm1sP6RKNYqIf7vHLi0lhHO7bzF8mcSBIfA5JtEqUsmkgN/EmkVbL3OZumSUZZIEXF6otrzL+esa1KzDjsU6fTUDze01lOfFjUY43mWhLWUqRrBYBrDc1kq3GoCdNMwmpXPRmDCTTlMH8rtja4Vc3nmCIHCip8GeSzTFgso3LStkvbhlntSo1TbQtkSWT2+FdKisAyNUKXZEtPc0KvYzf/Mbt7Ai+y5IkoArC9e/ELybVjmTAi/eZaaYuL5j3pFevUyArPK5saYqC3Ju560WUN00BNNnLBeN4XScx3Klv3qyFkgjSBB3+sf4ffh1r/8lnxvjltJ4aR5fXfpGl2CopWZqvPMBz4SZHjAjtLTYILU0QTFvyYizb0urFe1p50r24VbaVF7dYFtOwEGCBpdxLgNj47vf4mxeJmgYscnDbjMaTGIi1KlqtCdb3j4xkOMmCVNstsxShlACpWuWy8TcD3siSSq+uFjFNJ/NcgqKaeGyTip1m6sgGn78dwp1PbW4yiJiI8k3Rur86c7FRtjI3lS1RYPONtS+9mLUqElb91zPJLilwchE29lRv4BptIaCWBv/rxSrWS2IShwGfTxYpwHK527FKJszS1Xx2t6EcxlLFhu7a3JaKTCnhs9+6R0+EeT/PA6/gAGw+7pHRJBdb2u1TF2KIdLu8J7x5GRNeNY16ryIPvxkr++XJ2YoZFRGp69uECYJsygXa31p/vTx5xI3fboSHP/H/32cJ3f6zf95avjz/P9cti6z9PIoI3O6RzTyxq/iuT3kZcrKMvYArcq573EIMY5wPn46Y1KznSbkj3L50C4QLwjBilBAGYPW7361Mf/FONjSFuvKWWUwvhxEQq618FedZ6eRI7J+FaaSdHtJC0lgcI6uEs8WLO0H2faG9bdEwWd5JbWG+kfJNmAO1twcGtGP6b65h93GHn1yFQCZFig8eX/zSQWqzh6axoEKcrgL58YOvf13ek5AhT8/ikm3xk1crsaykHqntyovALMH//vIXI7nZwKnv8TjeeAQQvtKrmaaO2XrlLIYh5KDaKcNwEbcaAsC64H51s/sDZTAioeMXECK707W56UXcsOdnPidKRO5USvnlWUR5c6stCUr+1ZtMPjwC18O80QAUJ84yr8gpp2PUsrIN/ag3enYlauqx9+vbpOj8i/+sIaK7f/U596j2egUCr8CHu9HNqOg+SC9Ghdaz85GHQJ7lhGscH5ZREnLx7dmCMEG3S80yHb+bZxiTggGOFAASBrSDD7r01bewpeEgUW2BB867QYbUtpLEoZ9bJ/vRxSQOhMN7EVEtIQv9jAcgdpjN3c64bkf0XWfO/bMT7/rbSRZFBAlbj9AVO9pyv3jNykf77eysn1tJAYSKPr0MoLT9Eb4KJJ6D0XJT7Hw6eptatiSZeDoTNIVNB16eMaxYtoacSCvD/3H0V+eFYiscRhpxfCciDKi2KleOS9liugwXG8Zhc7+RB57D27rMWar88tftH5MhxaskCBlGvCiJYjHeYIX4CW+XMmHPjidnU4QY3+oQl6STGABcqeYr0KoWAInRHW1wa18zOYzLKtgziOfDxAAAIABJREFUvvhtdtoZq+R8Fkkf/MlPKkCc/befG9+Vv1m34PkGn3Tc6yko16J5wKzD3fzdHYR5WgCstu/tiPMxJpu5kwBJtyodOVxtpkDEeQEwpeuQFhRLraN9bX7NbLiehhLPVAtPrkKKjJJUxL5PlN2d9aWXaPebc1evGkI8uI54TeCqPfL8Tuya3jqhdPe/qU1nv/6iYARzYOdoflv9Xmfz9Hkq6rWTtvNsbSc51oHjOikzvvskeTfPCk4CrucVmgDTVDRK2820v86LPIxIErLOfcsbRRDyFvyX/vVisyyA9aDLOROYjBNO0PgUdXasdD2cxZuEidZWt5IFYVDgjJUOy8rTn5e/H/u26BXxMoJiFkQF5ElcIE4AnCxR88G28+q5J0lJqJiFl/OqIeerFAlcqcYRVeSnt4WJPV+uiUt8gHCDPrsjtZqnapsV6RwdPbgn4Nm/uv1H5ou34WH78tvsXsV3CLeZ5ITi0s5OcjVBQhEkEAvqwT2xfw0NIYszinnBaqAgQxvIQyYZBoyuzzcZFPXa8Q7zCJGKVze5yFKoG2zppRSZlsh8J2LWQXoTgPpnlatrqVHW88tzX64qotWOnk0FE/lFqYFLf965u/rF24wXkKCUkuv89/8RdW/fuEXOtQ/NNwON8h1zeu2EKep8f3/95nYeYkkR5HCw4atgXUj73++El2eLGPKMZSn+4BNhcL7hNUWA/wBwaH21Jr2fbDt93yiGRFNYToHB8zT316tlyje6tZJCgojJYDqu/LiZ//Vfl/8QAZHyWbB287p3vcoYJ2DCsKbgNEKVDx5yw+t1GG1czOcZk9tbJtcfrlj3o2MyzgAbXUQSlwRcuzwp2nKV66+lLCOs1fEDua5rvR/a0fP/+fE/fvnz26B1gr+82yvnMcyv5wBwqlJvZqM1ZxnxzKdQObjPXbxHWw1EURSmuVTFYcoXWKRQ0k0Lb87er5lsVHfkSdGW+c1vljLHsgSaZbJYp5RXTalw3IIzaJwD87E9vJGq7Qq+eeuptoolbXUVAQShfVB2wh/ec794GkIGsNlen630f/aPYXDzyiVYgKX63S3LtY/ri+uJmwr3H8n9N+OxBzitsYNe3HCVwk/w9meomPWnGS8ilqeo0inlmzVXrgB4iGzTWSBcOT1yn2eKF2p8vMhK2w1vTDQx709puVUCWeAXUqeG/Cn8WL/+q37pD8zRXXHY9Ca34mnyapYBrYFcn+ltbu2AysGJRUl0/e04l1GUQ3u3hI14cMV99PgwPl/l2L8YM5ylsLPtzsXWB/5XWZlPZ0l7r0gkHeCTH3i/+d/Iv9z57e8Grnzaedev6TB1V24O9G0tF/RwElitCvOX68Q62iXvzsDelgQRiT0/1OWcpDmUIMdjqWTy8XSyjnG5vroQHzXpq2+NBmFm6gJViTw/oZiXEQ3jlCEJp0Th00y1Gw10exErpsUhulzkDCCtXcObwKgFF7EkFERrly9uYu30o540uC44Rc+KUjhZRfz9UzS7dVK8vQdu7rzZIueNSgs+u1P2wCJIZBNJuRdQuSST1IuZUK/igFllDm4Rnov5nmj1evD6zg/Eyup6lsndLpyBcoObRrKMRGH0rYd37huUrOMu//XLWN3jlk5WatDZRv5Q/nZOlP39aDBKSqf6cMDsTgsjWb753Uau8YtI6GyHvqUtLrjTfW1wHkmVbLLJ/yPU2c4nZO/x8O9jS4z8QmmUZBkHfvV4evauOOjkk03Ier3ZUuZYPHUpkE5P+IjAxdCvlBHhJErNuhG+vBB6TY2XTZyOXsOyChYLKhsyJYIhcQIP/dmaV4e3ysPe7Aunu8X06vImUusGCwnNIj9VGvzlCNrl9YpQBhTDVsOVS0TV0vh8uc4YQFK5QoIEYi+3zdwjle30Nkgottp6gTVZQBmVMteBXOlhxb3w4ohZJTH35uNEMiQ6GyT2J1ocbbLlGnEkg+WmCNh0SdR6XfYzTePgbpKnoLyP23u6ht6d+VAIbqb/H0HwsSzZmRiI+TfH+5Mnvbne1C1fKAANdDebTdOcGZISNRMzohaK0CNopY02egE9gnZShEIbKmKkaYpj2Gy2BRpAFcpeb/Kmzzzeu//X95WQYwGQDk7yO3WAc6m9+fmi+aLtpGYcH4J3ryNWYJiqopDWGXxqvLHF3T29XN1E+kFr8T4UNYNjJHF1h0dtsIg0S1pteHY1h3ufhv+85lptN0JlVlOo6CiuWzub9zFiAMRU7LdQFgT8IHSdVBBoDapCHuAasiRZOhU33O0pFSmc2xnEdQ3F1qCvQ/v9RO6psta1UP7tV6Q3lPxZJLQtkCEWV2midaQwyCb33HHz/m0x2FEb+dmENPYHLCEVBY4Nd4aTX695KwsqWFLIiTSpMQuB0FCJ7WS4roGikow0Rb//hL+5DcVh7qR+xhgGQM2unEScXM99aKjV1m5xbqebRX3yGbNarnNJLINrn2x9foRYn15840FaQUNjJcVd80OTqYJaFhi4m9SMOtTi0b7c7t3+l7GTAuLGBELMd35kvD2TH6jEaDn/ef34afltvA/Yg9v5mc9bmKNlXhFcFF1lUhxuCwA7t5mumeX5fYF5ReBxUTe2mTzOJAJAmLurWHn0+PV3NdZ0BFO/QBhCTCiFpmAHNYYII2mgl3GaY5VIlVMmJWVJTpSeVOl8vRlHRodptTGty+lFRAAiVNT7IzlebDgD1p1DxXv/tcM22w2cF4Ikc6QmlIR3rrU3EMj8Iu/pm9O0t62l89sYSFtHbZ4WFQvTQm9Fv3/PmlmmtanrZqCohYaQZcjQeOqyrfx+UWFa8yPZetGp787XmQr8KCJqQyCo0azvot1h8cYzRpafGJwbpzOHffSE2HMbK2yZ3dmk9+lTpc6yD197mBIoIKL12FAdoE1Yy6rIQqsy+lvcet09ah3uer/47m5D+DSpgPyTLVEZ/+EeGCLX1sI7cDLK360tNFBfZSE4tkK+DuK04Ou44JTGEPI0XS9QS0LFYppRToZZzQmtQZXnmSB1+fE6dMDhE/TqXUakx1+wZ79fMzyqMQFQ6FrFvV1RAPnRLoptL0OmfLB14dyGjJSGBdPkMq2nZ2OfLzLtUIcYRVeLnJPyrAbG8bZUTEMcRqPnzJvfBoDRdYmTeJEAhAmCOL1fltjYP2Tu5qxWXMedXjVZBBVFXLvfNMWaQsTIWnF6gRkvbeyYmTPd5Jxp0iDDmmDtAU7L5x/v/YxptczjBlfPbiNcOkFesO0WoCJH3Fm9+4S7XLUfW5NLn+VoMo/NvSF0b9ecoWC4HMfGZ8/1InTenKUQYEXJE3mgFVQsloHcaWoclGnrQSNZ2sZJr7fLvT+/vV1VhFTU/O+ep7Oz924Jsdpmo1wctKC3dMMeuCLy6LPcEdM1Y6RpEa+57UYWGnjj5liR4caRVRu1hM08R72nydJNG8efZb9aM0hrNhXn1dtq91+9lL3/9B8qTagAZZp9QWytJ8n9hhjPtsvVrZ2jxv4j3adnG172vRzi0AfGfisIg1nGbh3KPFNOLhNNi4OS9l7sqeTm1PWL3Rf1by4Jki2R5kK7gaq0ojzH5tNlWGTq4xMhSEhlx6IaTMO6poBSqGztcUFtdhpCuZhlWVJSKIl1GGGRg75XyibVn3WJnSnC+JvxcMjJRlVWGRHp2W2GEddqCwSWUYh0+bi9mUjH0uzaqRgYOcRst6Xkdo5UlcfpYq68eGSFa/v+wqs5ramTkhGZNAE08MXuXpODWiENRAoT5oGKur1ifnt2HUNU1cyDz9v+/X1YEr6ppDHPijIj0vnHlBDN2O6Nc9XeHB2jNIvG1YCcrVu9MgeU0cXp8tHufdaS/ftZqP8UX88qcf+5++uipTNV65j7zS/kPzqW2+L5/zFVpBohpn2QrDpDLf/9R9zuidXldYyw2unjSiWkRKugwWfLRUqVUZMs7iqg7m+bqNqc+6oY+VR7eGKx1eUfZiV3/CT4/ZQK3SYbboTtLkvivAICE13PCgLY4bO+SFw79AnyXSALLM2CiGt1oM+M9lpc7tsO5cH4HiAKtQEbZGuHGmoJtvbRGD3Zc3+xPpFIhZMCNre6s787BYomq6pAQZWlrS3abyc3WRutV2Fc1VUlCNTolndrqAmYBUHEDbYbziZzzxYVb7RMU069rCiZ0veA9XTEwq0MsZBBFTNS2fbIDM/Prl2AIcmo9WRUzNeE08SywkpdloXYYV9d04YJR9UV4tfxwb6loWIRSu7rtbzTx8UaDPqJq4BQ6LBFurlxfrqXzVeO0M0mQkdJ8f5+8XY67OUbdGK9+YVd4zZ14YBO+n/zJPvVuFtdQ/JuA7CkI0B4tQ8n1bL6dFh4sXPrGg/k2bjkNGvYBjSY2gyf2mjvWZdJvau3HjSe7C2/nyNrYODQNo5UUuRFmHE4uFoCyeq1mqpSLVe5n9M4YPqmmEVOynEIUKG13cZeEFYNZfFhQSjGfCcPqzRiDD5FVgssym4f3hl7NaXITw1j1J39X++A2t9WiwoSWkTtLdBuFUEqVOul7WWsworVRDpAZ2O5J1OWEAWXHBtHfHk2rxlB7QzM1E4Jy/lTH2hPHkH4nBOSlV8TwbDaPdUUZxf3dgUlJZ7nw8/05aw02jBGkpxk0TJsfsbNkm1upd470JllavNkXyBJIeQXl3lrS/XOk/6WSFc3VXdHZtn0YnLy0lp+mIhKYCt9Vdg/AneOyGxWd6vjf6W8+o/T/pd335QSTbf/9pPoVTpafF961ynExrCElWbqyzvi8T87piy8/PVc2pfTIOUlLEsY1aGT1UUobh814Obiek3k/SP+5mPU6gssD1FHr8q8SJyY5+u1I/ZHFi0RSDcpjvIqspmOicM0A3WKJRaLrSaMIyCK1XhTQmySdZEUCGNFB5Ha0arlOOJbXLdfCjpaEalotm5/c1OIz35iLrxi7SUO3+11O4WHG/Vi4YREsxgc3kon3NsP/FCHHIQGWPkkqhRxtqogwnLDUhAhvLA8i6D25CmCX5qa82FJEMOYW60StvnVfJMBpaNMFtyBFm6IOVTzkmNJtJw4zI9+RoI9Pr3/JijGd7VkHO0zBLEy9acLyhtk6WAV555bygNLU+lm1X6pXr4Ner3JOe1uH7zohvMgX18vvFT/5JD+4+1f/MnXf1fQGHR+9iL+SA/DcXpxVaqaYdUN8kM0eSOyUfRgTxOTf/hGaOmSwad5QSFhRT5de1GNdUm3OPf9NJMOHyjO2S180M19oBgNmiRZSdNCkPgqYzVdwXXu2RErV1keLmtVrfISYkJEsShZw+TqnKSrAgKGUTrodhFXWFY1Pqe9vkoWZzOpL0h9XDNckAeB1b29sCvlz/+Ffjer7sfurOwc6e3FB3Vf9tIcYIWHNE2VLr18B9tCwYo8V68WiKTAIJushgCxxk6fSRB3f5ox5sNjCv+sBe4/+gQBqPakKJJ229GNTeXtrXQcMKiCUqNjRiFkqD31Urr/75T1fp+c/eISZWtDiUwLcrLAFlkWpL7YY2PH8yIACiCIgiGHy50v6/eXca9zPYXm1u6BRip3NV9kdYFkSUxaP92//EfPXlXy80dknSllKry/4D47wFnASD8rvv5+YMCl1FPri39aNnq83m+ROGRpxHal2SSCgOppKIvZ0gOjB83i/mIFH+1ns0Q2mDL1CmwKFeQx9DeZedjB4d1d2OqjPI8WIcU1r8qY8lrlZYxpMBSDmyvCMqyoN+T11KeMrpGQdLc7Bg5uZvw2E6tSGuLEs31uUK4Cqu69fFDMssiffsi6A7Yz/gr0uhzLyhxTEsSJjIJWH2Mx9wWVg0WQ9uTVWFKypKoqxKu723wM4f1ZIZg7owr+uZ6ezwqCLJMVslXK7TxR5rc+2tqp56siL4Rm24BOocB4sS5Ivf0/9Get3fLi55fbeigXE4mmklwVJQWkcJmhzOTOZENgBThQMVIcb/0pPL/2Zd2Puf4QAYYDcV6BNjuZZnXV+fSIW9+dL8MaNA5MTAu3MMbX1l/uCstTV/1B/PPlYbtMRUaDZ+9TScLG7jYbliqT4i73/lrZgnc0WtYsSWhjy1CCy1mAD0+g78ioKHK/VvtqWuEiXm5S+dljZvZmVvQf8GmeL+yckboGXxeyWiUlEkTINbXpV7OKspKsDZj7cclborPhdzq6oogbV9yrT/O2HGfjVUlxl18FAp+rL5p2IUqLi0yXSXP5m1gcWqIsAlgD0WCpLPp3mxpDFaZ5WrV+ao3/Q6jwfBX4jMo1O7gQ2dWkFhhRL+APQbBIamJ9sRdt7i/z5kHbkJ3rjT5gXJeENpQspa4kofSiKEfMi7+VXLFRX/+/5UslDKKCDxaAi6KCCG3RyxioGszyIqAUirDOASHGn2inFyHfYtjBkHHnMaVQFuUj7fT3Lqito9Zd0hyPK0hhY0vlaOgLwVg4eHhSf/1r+pflb91dfc12garM3tgQUWXngI+4jlgC2fnWefACvbl1I4JIrW7rEKzv3QJvP7VYO0ndtI6R3sE5EpLVOqqMZ/vJu/MEto7lMs9WNh7stIDnhUiXSFVSWpoP2tXbb6cVZlntoLV+67EtK/MkjWSV1FAla3v1m3jvUFq/j1WFpSgKAZNluhLD5nYx8xGTseGriBt2AY8hoHxbLYkshbMV3NoVvetNrpy8FBa/nmNZLJwFo2NZZRiNj+Oq8nOVwE/9IKdUOPjMDGazO689zI0H/PiS2daCTbFeckMjjbBSeRGta/7pnw+8KlsI7jejZ2jlUVzEXph5SVmpz7bj23GmbHWis2WJGY4BXgGA8Fy7uc/0HbH1iJuvvGjtyR2T62jzr31Qizzndg7S1y6AiOv3jUZxS+sPJTL/8vnbfyR/RiYfChJL25qule9PEwgYc8sIxf0GRNm779Hnz4TTrxaEQRS3ulwZu45PxJMnBhNm4crOMRbFLJcsJrFD1DvUvMtbu1a2dFoGTtF5uAfc0HULvUHjrMpD5bDHrd7eppBh5a3O+r2Pm9tdns2W4yXQj4aiOH6Xb/+wf3WlDFRvWoF1peAsSkqxu2+6lz7jELJMUKdLCOZoYRzIRVoDd5mIx0+Uzek0lveGYn69ERQUrGysYCAaosKWRerN044Kf+Q5pWhabYWmBASTjEuVT9rhCvSlOITOVHusulce9uwSMkj6Ny/OYmnyWmuxg04+T2QmqdN7L0hz0vhyi56+9dgnrXjhIIvxY+oHDAN0FMWoeyDm/UG+sv1VpBlcmvHILmhcwxo/OWHvXm8IB/THj7rlRRC8iiD5r/+b04lSZObiKxfwVqdlydPfrijLYMmKq+NjmYtv35bPD8XbX86QINBa0bm6LJwANp/uRJHaqFd3LuRVOo+VdkOocr7TQGk2frfmelYZu4W8fdQqXITtuKElM6/OY6FpYhQvpjnHspLuLStO3zrsCvH09tIXjkbIvwtI+0ftN5vmU2N6yuNrX5cSO2LNZushf3kRrTJMwkK1uJJBZT14oqTOyvUzXjt4rMxONykzaqlo7SNYBFHOqiJlZY5ni9CerfHWPvxZFFatPuusCmOoV+NpBMX9AZsBkWZsG6ygLLKT09UmBpgF7HPxLcJO2PjyMQdc18YywyUXcR5GQHqwjyfnK/xlZ7mq9D1mOk6CrNNcLQpMUfdZ47vFoIvKJOJlLho7QOYVzZ4ACLcPDXl6zfP3ztYXh9iJr3/nA/izv3Ly6jLvLF9FNYBbxxa7eL8ULBxFTJrtvTRQlX6wD7bwzR9sRtMrH4gcVNRoDYweO3atx3ptL2pjEL62Oc2yVCxoQpWX8/cLpFtBmHDmaM9IXKORbTjFu/IQrTEn6i0cb+4DAAGqsSaw6vDACs7W3iQZ7YOpjUpuh79J5actZ9yQ3t0iSS0yhhNaX7aDq9NV3lEyO+UElEcpe/hET5YzL4OSMdoTFpcBsrY1KV9+nAVUkllBxTUvYgY4s82mUl48hH8eEqwK/q0jHO5LeehkTKmOLN9PS6pYSlVBpV2+P7sNIMMwKuPEBFDS/smDMnXsDdvmQXQJ6jinRB9JZXhPPu+tpqF00o+ug7I+3HrzdQQhaf6o/88fgGj2pYSB1F1EVJI7n8b/KWZqeV83dK5L3/4u+cEnUWwtfzdOmJ98glgYeOX3t4BWVeekzy7euIN9Ntxs3HLwXArjbJ7vHrDnbzO+0SznBUJCa4hXCSj8IOetTlvJkdxZfu0gVtMUSVPIZF4WQVwhlNVYNRq7fX8um3RTy+44EVtmFsJ2hy/K048lQJJgtIUa6A+G6++WTLaytqp5IhYU5hnmRVJWO523bzPm6LheXYfasxMhvp+G2wdyaGc0cZYef/yokW02BQOA3G+QjV2zw5GI0vE/nFbyqCkKxK+7Jo295Tytue6LLfiny5BwIPMr/WBbAADXNKga8my2BlhjNYEi81Be3I6vXaSMDqfnaYlQ2f5xLwjmPt9Sg9Cb81JdV0Rk9Q6+jQ866fw+PPiBtkhRyPA3H2KKSOPHg28vw1wcam4kDJNpiHip+6PB390IWSJ2RqNep1z+7t32wbR8Zozfj+HjIRElBjhf3QNEqLy9o8GPH9WDBo3XdtnulOtNlqL+I/1mDBRNyVZBSbj+kIuz1LUzirFsDNsKwHcXJaQcj9l2v/7uggqYZkVV86qJuOOD+QeugVzcTj/65skBGxOBzebL63XBaj0dyyqO6oPt4OouBqlh0cKpWbX26q7k3CfqoTV+a9P+897s2zWUdaM/TObWI8N38yy25ytw8MjM7AjiPAA7bRKVAHSHPK2u/v4SDvaU3Hdj40CLl0svhWK7IwjwZ5N5TjHGjNAaqqwg1wxJnTCerYjWUVDpAXO/RWKweL0RXn559d2i1EDSemLUN2dFb4/cxUGibVE7h4aEGnCZbbXF5O5eedaNE7y5jaOgIpA2vjzcRPaHUGai/MGXwasZ5QXt+Wd/v7HgXWgNzeZWdXvjSPUVffJFPV7GvOq5qfDH9L9MMMaEKDsHg/Sfz9SOwmFIRNbdREWSylttUjICzgIvygqh30CoWEdRARmMxK0hGwZ2QBmIaFoNnklvvssVhSVhKugab/MPdy5e6SNug/bYV9fS8ZNtUyvvz7+f5UUNG20xhUPLtXtDGt5dBWjYYvh5qnSZTSCgzSIdPFcX394DazQE84UdAuXhZ8o0azJJSkkZuKt88MDK3BzUySYZbssApKH+UCWF8/591B+69z5hDQ3TwM6xYPUYt4Q/m61TKppddpHqMsSq3GJnNxmfTTN9u4fGt6jZECSuoc9+5ez+hP7+UjiktmKZ3PuzqvUoP08gHW6F44RrmzI/v2dP+jxNkjxNaiSm5x5hmbKC8sMnBksvPk5ydueTXnb6xkUi1+/e6Aemt04K0nqhnN0r8Pys3vlxA7KJH56uPPjfd3/1kTJMmTC7D3eYt1/ZnNpoyhwAbsIhd5mJezu4AOXaC4uCqk1KGoybL31GZJG8YyabqKY1oqRIi86L5vqNrbelYpE0VJzNhae99++3n+Cx323M3oaNx588NMrrV2+IAP0YSkySjw5LT25LdPJqikYjKhOiNtXwyoHOjAy2pPDdyhiqpsamr69oc9Af+adxVkNBF5IkzvT9Qe1UsKpsu3HYIJ7toUe7bEmC8YRVN05VFjVlTOSXQtMAVQHhv43DgnLtffLmNgdZDnsP8HgDm2LosF0rvV4pfQFQMjxAv/uO/6H19bXxDNvQ0MnlXSpug3Gps6qUeyWnW7vK+C37UPKAIYdXN4Up5dMANbQiKKTeybGWLs6+514cyjD7/vsM8KLFusOXBvDe3cdbf9IKZ356eZl1nqtdC+WrtzPX+G+H338zqyUcCXstU3GvxzbWWzpb1ERuIvvaUR5upX5dOp6XU96SfXQyYvKvL1iFQ5LFx0HF8rBKoygj3b22GGWqXE2vyzaXFw77sPf2ev8lvZhhE97MYePlly3GeeM2SJgECabxGg86mqZowuyr06K5VSs9Qxbl8mImZue5ylj5Ld3fZSSJC74/i5GkPYS/c3MKpY5ZVVXJdfrYJwKHylhr0umdW2SNHU1qC+GdQ3ixWPpRDC25lmQJRLUsw3/TYBChkpWd33h5GNej43qWalsjbmNXZDnPG/t97CbWSLr6TXGEPzjKA6PgOrI3tb1MxAlnggzBEqjG8EAvLzxpc18223A5Yzuaf+2ynRYfLRmr8VT78CYlB4+V4ub+1hMZLCph9vATld384TZs/PXzQfDvF6I7hUNW6XZJtDord34oxh//sOYkLCoYN9hgdpsj0TIhRJZRu3d+d5vYGYLxxsmg0lGI8WIbRB/eUCGpIcchUrGqXDsLO0fdvtJuc7haf7iDA1gCwm417i6svejarTHMK8B3hhIv8ry+WWdMhCrvNuC3Hu9wnJi++pVj9hhhx2JRlYNK5b+7zNhdxRGGMhCZ4upsHVKs7rIfQlAhdVunVV1WaosnWFFEtobEPf0YciAl0vaJRdfLuttwnXozq2TT6qMkz5EowE9HuqIJZRquwjTyA7D3pLiD3VGTrzaTxXhFzKMfP16vYFX53zvW5q5g2gOtNeRX4zBLawrF2s/YqmSsh09NjMP15P2UcjJLYHPbCifzVNIbpp9yzhB8F2w1ei3y/tsUCbqYM8yyfjrS6/vTKK0e/7s//uZ/S7Yb6cLny8En0TR0hcaxyS/fX+fGFnJKKsvpfJqUUNrZ40sE6nBadNXVGjfk8H5ToeZeSxvusUsPQZS/GWesoaC8YlUWZI4dShpj7pi1Pzl3+IFIsKxa3PiClQK3AAwELIdREsCdH7ST+RL14jLdzGKu+/y4TgTp+hebtpbjvWbm2uDxgIK330fdlw0n9B2mIUens5oATtHIivAIDvqwAlVWqk2VFyRJhFXk2tcXodoON9XgpCtlS9IVN1G5sqGu95vZJmQEAGBX0UYn1uqjh3iusFdl/wf8lN01CAG1802SAAAgAElEQVRV7F3cZGbvh1/GdyWJ49k1sscENXv6sMdEcx8JLAV4fFthUvM7z/awV6WL69sYAIi5xmDHyGH2wRZ7e0I0u8rSQN4xMFxflC2r0WZXNb5jDJsDq5CCAhweX15JvR3Nvy6LrT/6+Nu8YVpmxpHUKdVRfA9kluSrRVrX4pNPlfBmUqGkbghrh9/pbs7WVDh62FYVMZqWgz7xXt1mwkCL1wHhG8M+mi0Wq5I1DS5erTJtt4NTrmPVd1NVTeIySBmOxZRG81z/ZDAfA7AtkNy2Ac+1WmGxbbrn7pC59rbbwXheP/wpTReLpPFUmF9d+FASay8GgFEUFMe959KawVkOi9LoW5LAYIxJZV8t5svcOJZXc+HhnlYGBVc7bpDypgAlsbIjpVXEsFfh0XPj7ApKolQt72PtRw824VYn3zgFqtxSbptNvbQrBACdXt3Oa3nUliwRsqnPdDUOk+vXS8oRPNzX0pt1HGUVpQBAoTkYyZUpfvMKNnabxeltVDOqVpRlVHSedXFTW4V4YZ2+YcS8QHVZAQAkTu6ZMKwi4dHF94XWOWDekG0jcaBSl5JQB64bVjUwXx5I9ttLxJcVJ9EU7u6t3y1o99M9GaWbiBV7vcIfhwzXRDd3LuU7O4dmHt9/Ny0oI+IsKs1nu3xQGGa5yiy1BMXVPcsVkAPBKhMaQhEJ2cPtcuNnSEpzrmQbvEhCo3o9azXTu4Baz3VO5uJgIIe37xyKhTItCWqd5OuQfPIFuLSzuiJVMTw2RYaUENTZ7MPEi2Fj1yxm3vCBySRBGWVZxbSMaB4xLMDWEG/gH8c5srBXm2KUJ7ado0ef1xfiETO5jURBajZVgUFZzeGaisztP32E3X0JcgCIUoHamixWztvvQxWVzY5QXU6ymmAEMGLVVneLW8+jqQcoFo06EqpS4uyM1LXy7CQWt/JV7XG/nnIyKUFeUAAQC6Gki3IjvFbydSmqHXhLh1bqEVbUTehOl2lBgbi/5RWeS7bzeUwlnSXNfe/9FB0/02m1uSwOGrJSBAFjSHz68TLmDU3oDzUuPj1fhiXHozjXPz9Sy5DwRc4pCLDh2zuMU2JySYzlojIMND069N7WCgtDV9ErN20Oq2h5G/NiHRaA76ujbZ56QBT88/sUGvkiherz/fk0gU8feNdehQAFuTAaNdnMTnGZ+uuZnUN9IDHpmjQlvoiSmpeo9KARvD4tGUFVu/0K/s90fb2qjW6/fDvN8rxi9p7zY89SoqUndC2NZTlaeaUI43p0VP0/vxSPdqSMlFSywrl50sSF/eq72JShIXNwNs4ooUhUGz3WQzvWxT95LAuTmh+0rCMxDy/PaFqWtPWM5E0xd6eRk0MWIpCWAABOJBWVZKTA1EgmKSvqXJB1hIxgau132Mm3tzmh/M5j8m6RwPaT2SzNkdoUtYH3ZmGc9GGRp0uy1wBVHpe8asjF9VUsGnyl9rtNxp7e3a6BwBdAf7Gv1qsFZQRdJnk0ufJoXUNNxVARE3DYje50a/qGPWwEs7U5zGeFum+8e1/zRUIJAchQdg+Eyomwxnq3G/EQnK3L1om22XhFf8tdFSLDCEwasN0dLTxbYog4uvFSoDYlFYZ2CThc15inyf5f7NJ/+rsAMSxWWhL8X+T4/buiu6fdv93kkGLj0SMhmNYsqitOIlBgSRaGkCk3nvoYfj3uPB7IcRoXopl98I8+U6ffXnlQUiyripG/KVlVUDRZ0te/Sg8eLn+byG3opta+Yex0xbP/u+r604iIvSyVhuJsnCFAMWJpkQMA1a3GetrqRyHpdsL3G8R09udhj/pQ4MzjbW78y/cZhdLxy+7y7WnENVCRJznutTXN+Rhu70tVGDaaacqxdexFLNdrIW/sIoVjZa3bYwt3+fZjwWp9U+102PjyvDaHPRXOX99mANQ11lUei1yhPdNnswyvx+zuMDmbGtvUJvxwePVa0OxVBSBFlq4NlShgkSgFE1t7sVdNv/ctJo/DECuEQh4pbSlcJKxhleMlwBBhWldIAajdoKsZ4VRZFeuN88lfjZiz//1DSQnkZQn+6y14/S6T23ThZQXB5t7DHYGG63VAsKgAhiEZIRnD55trl8MJfzQymrHrJZyQ3S/6T+mbuwqJirFtTk4LQuT2dkOqokqwfxnIe9wi0odKYTetpBoewX//deNz5uY24nUvFYajyX1FAYGQAXVNAJa3d9zT/ouyiIm7WecQ6Ice2AXTjOl2B3o++eY8A0g9+OlRefbd+4i1pDyMqNmVcTylBwM2XUX7x/brpKUmy5XI9kymsiPES4ahN3WQRdNX5zFsfLYnY4G6p2dpa39LZ51vLoDIVZxu5BGFedH9VJ6t7bLIUtgzziZyn65ztn9QvwuF0AOAAnbQBIIasBrlxcVl0nh80k5++4qtMwWuQkbiCOC6R8b62itqTqxSBNKAiAKjKWuyMwJ3H5P2YVeH3jLc/uGWEPzTb6Z5zUiiAP9ohM9uK0hK1sBeyI+Oey0M4tnYLghn8RXb0Cy6yES6vpzVjDg4VFGzWC28MkWoPmhdTInU1E1FJ+++Lhq9ptaQQRQjMf35Suk1ccXLPPB5cV1uja7eFOigGy/OsLyKcPsgvynynEKIICY1ZOV2v1h1XpYxTa/flwADyCBZhmnNNno6yvy7cUG45sMjDW7urh1moMdOSmQN1jDAPbP2M8Fi5qep0WOiFatZYprkrMhrVqOhwCIOpmfjCEhPn5qYL9zxONFMSzbZxU0mskjRkLMu/Em5/4kUB15Ny9Bt9eaTWoNugqROc7mqkEKSnDCdtiTLAWWrhjy5yKxBnuJinRTstn69ZBW+gtbDQ2F6vs7iSpAVvranVUMFijbl9nRw8Sbc++MWU6xnRDl4Im6+eTsniioVAP6P0uT1SmHDWBspyRo2B4IBy2DlRHEETBigp59sJR98Dq6WMWDFrR0GSHg9zr07ajZf8u+BaagCh7LJjWs0RAbrSpwQiY3/3t3f59eZyEHqE7nUlNnNXsvZ6Br/MWzYd0hqN9wojGsAIWQx4kRO79JM32fWeb06KzDAUQYRpZzMYU5Wabh2SsZsaVUhyVUUSTuGv8gRqGNGrQFPk6wxij5MEsrITSUstTbv2bXSUBTL0qFve3GwDsoSmMf7EoxDz6/LrBIfbhO/ZAFh2dx2y/Mb+HgP0DjWuGwZnOysvltySu0UlDNAlCsn5UUMiNzsbVnLTc21Zec6G2xdnxOx8piDUXU55kwdMEcnZnI/WWd5xqgqrYINGsibXK0Fjcf2hbP103bmrap+ffv8JPzuoycMRmKwgP+r/4cz/mHTvoR9S4wCIgKRo1GU5VnIW+l5tv/Dg+Qygaldi1wVKMcdFiE/5W5/mTV2DnUbKCJmaZ1PQkV0U6tlcu4mErBzmew9gOcL3uKJTyVt2/1l/MV+cO22unPb4M5sTmxr2WaRQUwpq3dkkjJbXIj67TwoimnAsNxsUjGQKA0Q552X/P3EqUSDxm6hDJs0F3vcxmZ43wbtBqpoEaNR++z3NgNL2HtJ7thdaTUvjY7E6S3enTthyVQZpAXtjsQqqKsoDaLS+mSbKVlAaggzN198bYtPm6RIs612eDU/Pl585ShdchsCwLNl3XyAXtdsQJW9L43TUzwc6snY6z+bn62DsOg+Uuy7u7qxo6g7nXo2tt2MF1iRS0HhUkPwQ3FgVAVLghV5oPk+HnRe/3b0X7XP3mfiYB9FK/g/zd7Ze5838ssxsRo4KEEOBZxTBGhayfh+Lj3aK5YFTTxG5uJlevCyk1cFIG//OdO7ynYjjQhmGMrnIUhXmbE3Et37uwQmadk8FO4nUpevipLfH779Tf7icbW4UHt2JPRW74HS7vDL6xByOK/aD5vJOD6xNtTSeJpFmwxCw/km5TgkCmHCfvpn1fl4g+IwowDxzSYLeTGcpiq3THYeGLlXY6Q18l+/KhvCOhv+pfp6PRpE96RrgQJI0PVITjQU1YSgBp/UjAAdf5HJJ4/kMOANhSV1UYZffV+2nzSrpZ22j/HtO9DM1szjR/l3ZymEiGLdkhYtOPa4z/+C/sMb/OyHXfdm1v4ceOOzkBu0iuVsHotHXavBh8uNu05aI4HFJUPXdski2NgxopxF6fhWsnIgitH5kvvrLxYffWiMUE7gnyZuefhY5PLVdc5iwmEAihC0NVy6M9iRE1/T07TGIMwxrhzX+PGDvKjs1cV9LUncwU41D0oqylqdVKmX1vrjQb66uCsJANo262eGkWWINQ/h16/yo0+44LQQ/JzZ574JObPTyicO1Rqh3XzUD75dPRvMa6lSWoUT8WVhJu8LToJVkpbaD46CxToVlgsgGwrEhoTLdLohKnW0Lw6lYBorhpxefLsSD4TzePQ3rQ+v2GPeVvZUfxFWpAIwzhXWzWsitNg5GRjlxpsk1id9b7xAw5Meyitw9gtX3D1UvJljszvt7GwJEez8i8fZzdubVOBThuYIHfPXM/T5v6z/z9fo2b/dt9+dtb8wwfQs4ntovVraQdHf72hFxlLn0mlt8ZRjeOKvvaJS9vpFxGM2vTlneixl0/UmwJ8+DWZuCU1Vl+AIYbjfLMwOO36/qUTTbJCbG+7RAPhnN+hgR9yEqIQ1y4dupaq5nR+/YOJ4MZ+HhIPc1gk/W8Wp0mDSmimCMoJPD+v5+SQHkLX2kE9a7Got7J1Y8dU3y8ajRn4X0SgCB8OPUyRbW8J8Dnvb1GE62vwr9/HuzCaJYLJZnOVVo8FDpk7XfkabR1qdrCImT6DWbHE1IxTr9SaVtTjZ/aTD+jeBxrt3U5vyPW6R9v66cfONPdrhByPWuZ6kBIEizSjISlqxrfbattqA5HeusKfkpCr1LTNYhKY71gy2oGXkxlRsyrGTkrr3V49jx/cLTXVj59qnw0HpoN0f6P/ff073P98F35y3P7UiN0pE2XXSOPZi+aAHgTKQ3DdTQcWcKvGwir3EAz3jLN5vs/TqHB82KSLOfIUGVuIEFeKH+yo0ocjoIBk8Nzd/uEjE3k7LeztmDh+z1+887XBbnq04gQEE+8uq28Oprz7Si3Q1WYUlA+ngpbZcBlVDdVeUr/0sFx93/Ikd5xSJnSH2SimdBez+iw6//BgA0aDrqk5X8e7nxUUsMxLrOeJeh6dr1AjPlsPd2QzkMVVNf1bi9ucHtKiiyWIFBkME3BuX6bUQlJsCSMvNbaYYLd6Otnc05Fx7Sni9yAgDACJV48fW8nzDtjpDo/DH0wICwinY9XIAEdAGdFwpYlNaT0uh3WW8XG/Bq2t2T+MM7f5boFQx4Inc4AI3SMSXnwlRikSFDaLNx0UqtpqaYuwZpz/f9EYD7g8TrQPdgpPk9T3hIIxydqgFaPtQXX5cAQI0U5MZDMps4+W1rZw0SzI5Sx4dclVurzys80mQVQRZD1vQ4tQszWnrZdc5PY+57o52cx0D6Vi7m9SDRx1yfccPetDxbAcOtngSVwMLc8Xycl4xQtr8rGU7GTTx5Zxh8yCmjRGIKlHlggRiiQkKHDoVMPaGlpDBaF0DF5FwFo5+Otw46TqKa6kzUpjszDloe0vU3AQNOFnz3Xhc7Xx2qOUZrNf3Z/5wmyuuLhNm9NCskYxLZzl2hOOHJtys9YFULG4Jt5y5JccmFYBUOOoy9WSTswLM87JiuBq2d+X78wAgBil90/YyYDWAF4DeMLkph3voZt3q0koxNt/VYoJbJBJlvlxu4rq512Wr2myS9cadOYpGNEuxLPL9Fd8eDqrv7DbxEhtvq+/vIa8oQl4xrE+3DqXFLK7TUrF0mVfFOri/dtjdrRFah9OL9PgBG6/9smQ0NkkKWmeM1YRPNWk8q6gwbNbufSy0muh2UwEgmSCutp600vfn9OgRvh8vU66/o1ZRpYpIFetXHyuhWes/GAROUCnRO1uAZVlRTS6QYZk9Or3PpXxJ2SwlkG2PrLYUnt8waglTJ6iUpy/k5O7S9fjDA7bE2fhOaqUBGmpIwpPbUkSh/sMu4uokK/Lo9J4Zdrn7s4CoR4cywjRZ3U5ytv94l1nPlT5crkqBOMuQUQunBgyBjaf70uTjfUUpIBCJXE27B9riw7zGDK+2DSKGMeB1zo7NRjBTn+8Wi4gto1JucO5qtWw+imYEqsjeZKVqolIy25rvjh0i7knjSteGyt13dLdvmugiMNwgncsvy29nsDHst7B350O+qdYJhHWUMIrAsk0lPD1zobK/1RMCb3ad9lpJQFhIkC4EXs7riVfy8F/L6P1ljSCr6PUmF8xGfWvTEgClLSTyQTv5cMUcn6CrG4/wZlNDSSVxBDP82VkmdrTmJ6M8WMfV9DJGgOFhgfkaiAiOdumiFmZ3FSxrgUdyr2OUHz96nMbhICYCN3za56e/XWTGJw+SFSvnl9O6zMHTF0pZLKa1LsadYVIzqROzUn43SfR2q76bB0A9eSjVubNw1xkV9x7gsS024hVuVVmyAj1magOMAav++AE7/nZR1xBTWhOCRatjksUkrjEvCpB/ImZTz+jkdsFDMDzR48U6yJAuMWxx+3HdekruUqjiyM6gppX5zjG3XuYrV97aWr/ONGmvfX3DdnpG11wt7BlEK9KOFzn3cL8n4+jdlGlqRSw0pSopq7qmogXfvQsBZFh++0kzu/+wEUHA7OpVkepGYAOrQe7mGP4tX5zeAVWArEpWGdvskJtFXhLADrpVLqnJwpOPRnQySSFkIS9UJSfgLOXWy4JvW70HPeguMv/eTqnYbcXXhQjzKivV44cGKG/OHKjrAk0z6bh1+cquKeRQRpGsbh31Bfu3H0nvySiKNLO6vgjLFD54bpZp7ItCNlcEu87iFOzuZGt7iXt9tJrMEtB+vsckNxGfO760a60nGcfGqWpAJnOUkX8ZIAZQvvfHw/zsumZIVhIBrX1OsQZ9PZm6aYHFfAFfPAZvz9hdy5vFUmc04pPZlMiCKVVk+f6m4LtShRGLw1UO9CZLHz/MZusqniv7zbNfFjxqblUeIyvDx4P05tuxai7vsroG2tOdRpgVi1VlWbDWmlxZApoVlIGTNy7LoLqom59u083VNEWVeSQR1xVaKGdVWR6/VuDfFKtFYfabJE5iP8bdDlkvnIwCPNxDQc7mRYatHuuFcu6GJeA4liCpzIDjAb5lNB/uspN56cyilO0+bk6+skU+ygsqdo/3JG+8sPkHO3m4mNGjrYvXEakpAgRArn/S0/jk/LRWByYwWtxqNnPjEA66DMBSySFvXFRuUXOIOT6kaXKbj9q0CJdTTzp6ogYXZMivl3ojuQ6wAAoMGasdu5Ls3CQ8TGrp+EszuIo5BruTpNed3NWs+WBPp97GC5Aen/rt58LpDbU6ySZFaqdrAs+RG4LB0fDNdQQgZI2WAoEzLbE5UjzQVgCPPFsc6Bc/TxiuvSd6vIz7D8xkfp4PlbtfzYDANg71YpKpwE+NgSYIQp3mnArrInGnNtY4EoVsayDV3v2mEGvcbkrOStB5nqWcef++A39ir+v2XkcrV4u4TKguJWnlejXAgwPRTmWEMpcoIOUG2cSlvKExfs1LGvvxtpabmvHkGTe1s/W1nSkPD7n1q1sCaoKtnlqbUugmPjjeK6l/6umWc5MBUkMAKIbD5zyQitoLZ2p3MDAmF7w9sXOm3ySsoWWAK2cTP6iYBhNYT43MvqoPLFqBZDKt+keGN2X6Bo1AdjenDVNW5Dg0m8kmL6JN3i3nufXsobSallQy0o+r5l557WXyw30VZfYy5Zvl5WVhcElCGRaAqoac2VXTWLV6ekWnr9cA0Roq/SZbzaelPBgJzjgQDo7qSala/Pw/Orh30gC5yICmhVY+321l7/5+hRpae6s8v9d6OON6TQHhOg8j1uKrLCyozDI0Wbu8JkN3vs4QqqhlcUVuKkhiaUGn6x585ofS7gFfcsGMSv6G5BExgFMhpI7kua8YLbiO4pCIjdytpe0TdrPwa/PTnV/+faoNdfboC8UP4mBxPWn8dBs63330cwL6Pxkka1HwNku76HVFsx6v8jqIKARIrnMIamlP4yntg8mVeXyoRr8Ojp3XttJQSfsTI1rXklB+PPVq7oH8rnjcC8czbiggSFFsJ1jkIRS0llaly4u1sD9qyDi3PYlbz6o64vazu3JwtMXOrlZVu5vfufpWw7ldwL1dGZfuHOg9Jf5mXDEYUEBrCihiJIuLIqb/uZLC9ddrBsksRD0LxstpouyNcB1NwcmWfVVrZu5+CPndEcG8iEpZqmZJ52lr+g+/zYyHam1xG8dk12DUQ2ubCijxakPIc1brtOswjf0I1pljxwQzICCaLqtY4ZGJiX3t0AZ8zla03YUxDD3NWt4mWQZEnrGUOFbpzGF3j5minE9rkc1SYXTwQHMnU09+efTh75ytTyWXP24VYW5oq+/yP9orpr/84GWUbv+JaTsc50TjDRIErVHHNNn4ACA62HfWTBjU+iMjFY+ij/7wUTP79ivtj8ivo0ft9Qflp19Us4TUQvxmFsuPjLerbTNZxTyqWC7OeBDHKd9psxgjBXnna+V4Wy5Cf+n0R8uznKeNrWQtt5oav/n+smo0iwAaPSu6vq2soVqnmYc6OwpdjHNE8qoGeQl4jZOkeOrT9nMhl/P3a0oVRVObYmwvN7my3WN5pSgVMJ1GUChJUistsdS6Bk4iULsJsrizDy775FM6z2VFQdc3+mPD+zhBvUYdJlgoc8EwO0kIBZ7Gm7P7ErOcycxSxWhqVcZaQ5Tfvk1YCf5FGywcni9iH7ak6YIwKl9k+kErvfEDpxI+2fMQ705CVBdE+kRVmzgMYqbVcC/rvX04WWpt/P8zBB9NsmWJYZjPOdd7k5k3fWWWf77f62e6Z3qmMQMMQCHIQFAkNyRAKULaKCRRa2mjnX6EIhTaaCMXpBASEQI0nJnGmPavny9flZmVPu/N6705wvdtlq1dJfc5cbu5nlgJgPKxbt1OK67hWyWGNdWPNWpqYUSyD++Mtnixye48j4PG7mgk7gyq01/O6/+kt4g61OyNI/7ikb/0IyBuZja/q3qOiMOEyK1IJNZeRVdZIe7USn+T3W3bbx29r8HtwvHIB3vLt7HEis2UUGQSc95vF9yQsbag1lLt0bqSOnLoJBHReigloQfLKCxoEZVIUIoc2iOrFLssVSMvF2WBWWPYFoKZ5QZiR+I6Xdpbm1s7LEicY1oUGVA/0OONFWV2liz8DAPx0/vQtULExaOod8TPLlypLYMqTWHuZXSzFdnisEEFox+uCkiyDW6RddsS6c7Z42YWXF6kmIL/ObM5mRckGVd6q5xZqP3ccBeExqZXI78AtR8rZ7mcuWXs5Yj7rHGLWywqRA5nJaWgeDElBsL6Xd7pCmSZJ4iOp4gmExY481khHanroJI6zPSW0+xliRj1ye71wrNN+R8rk3QgnhadOrf6+/OS/8knXFiWgTu/0X7OXdokxROJh0URh9AOWSp2M5incVphwEkqH9hL/qfGzXvcRil0tlklHhq3l7DFgwbMq3otTpcfiu4DcfrBl3uac7MFSq/mz4II1R+qQRqlMcZI7io8Q6IgyuenFuQkUebRZh3GFaUedGuEaS+XdINTHuwS4zdbnEaYwhmhMCXLoG7dGcfh0iJF2wMAyMOmwJdB4axsdqdDmWu2LsGChm4UbcvWUPE2+KBdmjc/rAEAhMDk8p7C8ZFJtQkr87bxNoF/aZ+sQwAI5sCI0vUSHPxZt1zNQqKYLquybH+qXM6inOzIV/OS+eTp6aarYFYW0iCoqDJbW1WzGbxasDWOYUu2IZcbuVPMXdeMo1y+Z6SlYBDe5CKgizStYPMjYbPww+jZx9aWaYZv8aBTXX7vAqQ+68abBBPRPO0KNlB5mhWTtIwcOw0zmkE4i8lmLV5bpIJKMo/SO0/omw9Cy9yiyMuh0qIXlnAoZbXqct57BDdnC/HFEb36dibvD7KTy6q+q7nXdgaloZKWkZcyHCF2aopcpUmRzk48judEkPA6uLwpBHWn1eLL7ZsrzDOtJ/vRqxHkUzujGIFWxSDjUQZSL92sc7qJzRDUHiglwyHEeuPbRBJhTPcMNsmqMg7TmNuRyWo+bj3HVycXCfgHJBKOdnKixoUFEbkVFuR3J/ABvPUqAEDjH3MvyeQybn1yJEdXY4TcgMcBc/cRuPxmyn72F+b/dVZ2/8JZtcgAaGIVzZaYUn234LvUu8uKpoQdHrWFKpQ6wdnSjQGUen26hAIfudurdQyoPM/ZDs8FRS48JTZEHb65hPUj8uw2zCu6htIoqyqaVkWUciLBC2wYuLfbBIEMcA0UhvxBr7gesUbkMaxA9XXaua3YrYcCu2AaOoiAuiuknPP1fOcx6Z+u5I/bYHnh1g6HzNWrsN6Bi2lUQVJTyCJISUkqClaWNKosy8xaZgLBo1U8eNq6/uusvTusiVx6/YfrHJH6YW21QmwRBKVYExPxOF/xnOcmlXPrYqJZW9vCnzwvAgARprLlu1GKCtS5q6MoWvkkwwsMjTnu8hv5L+uXNxeTBPwDevchn9O6kGeRY3vS/iD8W8grIIgwhapGkxOrc5s39L5eul4S5woVr6snH4EvvsSf/afqu//1nPrISBpatIYcTp2Rx7QKJyLrjeVZwlDSvi7piMQRsT1bYAITzWGzqgBRLVM+cNZbRMAkF406QDTH2D7XIt+tEKMSTuL4SGH9lCLCGGlNOa9UOiYkYjHdhoBUQJipHWzGtV01ulzU+0tPaeg0JOncjnCUYc8tlL6WIrkuFUFufkiGw5yZr5k+tVhnelcgmHwZSpJ1ZQIGlFRdTx1CU9kkDJNKIAFNk3mUAVJJbvInP28t/7fi4cBQyGrz7u2yqjBiWV6T8XKD1RqX3qA/124pMXZCYJ+ZALXas+3hP2snGUkwmW2trxZpmdO7x3Sa2NcmrTSaHKnVuDd/R/zlnU1ufpgsEwCUB52qrc51fogAACAASURBVDAithbBeD34oyP2P0DE9vlp0pJnK+2RXs0tusiau4aKneVWrzPTD+wvhrenRfOzfvDF3834A1XtYj8tk4qcXicSEcaEuitczpEgN9otMcviUYjNkCMKXlD2+Mxf2aA/gMu3E6LFBzY5aECKdp2tgw1jtm0bfkCkZqR2uLGl6M60EDo1BCXW9Um4ciQJknJspTydbLNGnwymbmdnYfJGnS0qSHghC7I8KklJ51JS09KtlRGI44sNIRIx6V/6+pCdm1S3zhHE9nzFCHlCt2rhWqxJAsjj+TwrSkquidEmlHez0+jRz3X/r+FzgVJAYY9HFi6qJGk/60PraiF0lPj2jPiL7gpLeRhW3rsVgF1+ge++qBGEqDDO+w9bHwucX/YMnBbulQlYvd/SW1Lx3S/zX3zmjnwFfDiJyeEzd/LwPsfh8Wh1Eg7/o0+Y/weS8M7da7PdX78nujUmqejNUu52B5L5ajXY04vrVf8OV5UxUw+n45czvVvTcUKgmNCctytUpRVB7x3x9o3HiazARra9ITpNkYgy5KM7xM2aMvSmkF68jVqDZGUWvQFPZht/tUJDY+y/ON7MC7PQBDK8iftN99STD7QCc0K+cZJs90d66JaRmyVm4MRSh6+8UNOWK6A1qbCkRH8LORKSMhe7QG028bUVwVqTdL1RtDOMYm9bSXC1iIn+oyZZJdMREkHJ6Vyw4mm5LhJ4OzHdIFd2jeDS6d/NT6aNR7X4Pe6ziM0x6U8Toqr87OiZFq5Ha7nPOicz8R81nIqv0gyMX0ZUl5lVdz8q0poiaNT1N+O0kvpSkKpsXlTWjVsxvd2OhsPy9cvyxUdXP5T378fvTqufvPj9V8PP2zy9nrw5he0HB9tzeL9qHnsTKEE3wZwE5d7iVaa3etrlH4LdI1Wg8kpXCJR4VBCAq7dFQ+YSj+Gw0KfOT9O8ABj2nvSJyUXCpH4RY1TAzpN+MN7YDjssbXZ/UCaAuLpp77Djs6DkdvcoP0bWTLhHvTJf3Cu820vlbjU92yr3a+E47R0yt5uKEhjnOnv6qVAS2HXjxCmjG1dqykQKSd/JmQaYx5xRrLeQZWoGtbWU4z3t7Bso06JChOXU6gzCJCMo58QuAJDuHrEQuWcmKaqKQgTLKhP7bRYmXrgxY2GnW94GYguMrwLNwDkgEQIlJeVWTkGMBIMrs2hhqV3SHCf6Az6jFNpzkzdX4rPet8GTJ+r1K6KuyGB5aQEsdsQSCKB0reU2J+u7bYOcTqjJDTjuzjag81g3v5t/+vTXLwmteXiM3K9fkf0Gtw3hf11BoXK3Nq7hecqgzpPqt1ek0aY+nOLdXcz2tQgWMVXmdWwm3vWGkzl/Q4mYrDfs66AAuKhqH+8z7mgLEquqKKqo9I+G3vtzC+sdJDTrnO+UtXhRlYljFyXqPuHNiipKvl68nO7erUdvzrgH8snruPZRbTuVnu7mP7zegvoD4s3i/icCp4YnN0DjpfSHM6y05MhFBI2ghm5MpFOOXWCkdUREtfYa7q9OlZbMywLKnIKHKQIkmrxxESxh806bp/Pzi9zotqRyM/JS5WBXAVEE8zChGzUyz7aIdd9fwYYm0LgqE0BxqV3wIimqwFqXlRU1GtD0JKXCpNrgVlejJTXci6KDY6mYfL/lVF5A9jwM6bqIdBmE42sPiJ2hUSPH381Y0gnVHhFG6qADzy/V5miRAuLgpxx58UXV06EXwf9OhUWSB4usjt+vKaH/rPbdd/SO4p2uqG6rJAZNf7PcEAV31HI2kXWL2sJyK1JxxmjQCjAF0lJ5sE/Ga7dIQ0CzElcAY2f11SRFzT5oNOnccilVn3+3QYhkiNL4kTJ3oSQDElyN2F4zPrlMWn3nMtQft6wL7sUBfP37BVQPhbOt8XxHZy5/NW9+rHH2Vzc5qbWzdUrIDV6gxtNCFiDCMTD6GoKKRr36VdpoSZpCgIJgY6cAJcWEN7O0yEu6cdhW4WYea02d9k5vEra209OoOKEZVBQkSxLVljDCr14X3S4qIIPiDBGxR+s1mia90RqXXlU3GC/S2JHNdbuUeXKLNQn27zTpcLNxAcNSir79bhpVHEMOOnhzblKtO/faDLf5m98nzLH8nuzK/lbZb1O3VylOwqBgHr+omNXfx5LO+xb8l3fU1E7LjU95Uw8pe/vSasz1qpurRNY5gtZ6+OpkQUKg78qB66/xnrgE4mIFWL4KMsyQWaoc7+Io9JMsJpqdOrXastryexvjRp/WdZxElBQls8uYJDhFqdDdhm2iqiLYejk2GQlejWNKY+xQ/OggeG0NH9bGbx2SEfAsZu8+aUYvvw93fyoUy9NFWiotcmVXUl+nyOUokXW9J+dAYak0ozl08YfM0OmG4LsBKXAoWgZ0T03ny3VYYqQf9EmMESFQ7vjGkxuarmqoQDQgiWQbkZpcELr/hzdBu5uHnCBmYVF4kdqROD5bTNwsiUu+3iUSjMcL1KijzSZjWLnbpFk4t6GskgVZU8xf3hYVQFBVoeeD9pOPulTGLP7Pbwvuk/unnkQ7tnKgos2tj3h/Wh78kREh/2qeqoK/gg8/28vXEXKWGycnENtscVUmaNbJltNS2BDZTmP0xUKUQpuvCwCnaFe3g+UopFUmCirAq6lNDftkkflJ7KO7D9Twxoasd7rFWOjVNTLmejoxf3nlY4RYo0mGtMyE5HbOy5/sv3wNOHlxGmBBCn36zj6+GFftIZFyYrS01zGx86K3/va2OH6OQ2frhT7WxSpMiDZPsuG1TZC1hwdUCXGV5wSkwOWE0yQFRo5lM0f69CTkGl0lMafTsKyYzgAUyg5Z3I7Ngt/rsRAxAMm0U8p4Ooa9Hka09fo8rA+sORAOdqC9ngeCxKgd1pxuPb+sMNPsinlyO88IuswhT7MtynUFwYW1pphYbEuyvpxhXEFMUhSihJ1nR4VTktPfXGXqi8e+RxWmKzdRZC9jqWlfw6d3SIrwE38eFlkM+z++Ey8S1rlZFyTFMkjUBBzh+RTVuCXu6eLOMP3qvdyNvw9Ivt5RsMzbZ+MAGLXYDpHYbAYXed3gaOxHkQPvPhGzsctJ0YdZWgqHPdlFRwcktf63r0uEENNtUWECtZiIRnr/z3u/fIs41X83I3riaMPu94C3tUJR67dpZ7zdxPDui/rlVxu4fxQVsAzDwAZCQ6ITlCGRWs39gtp93EIQ5CuHolgN3AS82qLz1DWLI2Y8zouYGtZhMpn4gGvwrt39MW9+uaSE9qNmtI5ZzDbgddRrrM/SdpuX3bMrMyK0yMLSsxfy+v1ZCCrMtw65xWZll6gqCH1HzKeLBCJA8iJDw8hNVJmErCG506rTzN+dlxBACJl6jaEax8LSIYrR6Zbq7vfZmAZuxIqhzRDriAk2zIEmGpSZ0ssPAYZw/27bnNNysgISTCTJ9+Rmdr0Nc14s11hRW71dbXKhdNJfTTKi9qCPw3CzcbJO1ze3mbrToM2TXFZEtgrzzA6Nhy3OstWm/eYirLjjYT5XPzri5cn/dEYQiGZbPSpJCzLNqsXO4z+q/rBMGMXejOlD8q09uINmpLg8S8RWnfDdMvaqe0/ls+8swIlA5okqSxY+0dptVIGZiEo2XhUKV9vVRbQ9nxFSvc64McEeGlVZpZ6MYiewr53ugEXxNqwA2C6j3V/ot39vi0r9UDMvUa3M5Gya7+0HZ1Fda9YnP6ySICPLHA5+ekda/uY0B7iC/KAXeH5Y4cSrSEGmPbOAPMdxDFFVuJLaKhuHLFiOcKuOR+c5aSi+yz/aL7aoXix9olpN894RRQiIJsIt6kVeTd7MvTAidULoqr6Pt+dhAeEn/eA8bO7QCV0jLVp1RrAXvltjsc65a6x2elHeVHOlW/z+JAbccEBZky1HMofSh2uPGjTZwhwBnmeoLMPl2iF7h/U0FY3Z2+sESj288aX9o37r/f/hkiTBSfpQqoji1vaq8P6Lo81F6FDcOg8VI7puPddOvtD68TgmEKviiCDSrDagJ+sstWLG0EWmjNabhOvdEZOVBWS0nKPHwizX+9z8el3yDZ0DBCLv9XBVZStCJfPIORtLBohKVqLC1fUW3/2Fuv5i3dJLlo1Xsu6YBcRUsw9Nl2br6vg0JPwQQyA8eNoqT762yxIjStRrhV9wTG7PMojoVrgs1R0N5/+AZmQe5hABJjfTuuKv52YlfHx8dULe67sj1CAcMyUjm3s8iEOCrgg0ch+xhEK6m3mYAp0KtV7lmttNSsrwL5rv31XtA40haTrAQrzA8vbtmlD69cop6wN5/RI8bzNy+eqMqpN8nbM+zFhhOCDeXSb1OkUxpROVHMRxQhZrG4jtloBYybxahGS9d7EsxSHNyrOrgqCEmkx2m6SS/DDJ/PTJc/7CVeNt6DNCvbC8h/389XdIokmewqwC0gxKJQH8lbyTvp3RPYNnKlxsp6F0t4e3y4QBrkX/TPvhvDweOqNVTgiyKiJCbsock1tX3D0FldbFTQEjrxJ1pViNA3jvjzX3+0lvB0dpOMdE7OVCu8YDQPhOLiv+LRKdoOQZqb8j+mfXcYkx5Fo1Pl8HvITd2xADZjfZ1I7UIvbcCEsyT8Vekmd0jewOOfPdBwtJj45ur1KKiJNanw0227TKmx8bpRdjD2i2ZdQ1mcydGyujO/W1yXJpYDuZ2IX/uv7NW9DvcQJRKqjEeVyUq0sTibttQQBMjYou0vt1UCazE+5YQjzeXp45REcntxZRYwA70N2LjC8TM0DYjiFJ1XdElkwszwONgbu+rJ4SluXmFSLVPT1qdFgx/W4szjYHT9A5fKJevfX5phSZaYtOptMcErLC11tiYJrEAOaRuex8Kvzhe3KoYUiwcvp+y3b7QuZ4YV5l1VC+vsru3/NHyxxhWtdIpKSZ3iduJ8LDvkBsLi63YViyAkFi14nRvR+L/sWo81DLzfGJU5AYGE8G8cmSA24sd3DAMmlcSVxJcygIyjSOk5Ro9eR87mKKLdZhWhEG3zzWrVvfiSDPcaIEbMvyK/XecwWD1b+/QMJuz3f9rV/yLUPMA8tMsP7oUIjnq2lZG3AQt8hYSG/NmK4PwcUFTVe49LMm/Nf62zO6r2awiPSWkEdZ7k3nAWC7falRkgqZQQxUIQ+CS2dwwJRJsBrduBVBIKphgFh+aHx3raj5ZBSTMK0gAWuHOkgTq0SUaHS488tOu7i6DiqiJPs90G5xjPtq27q6Ye/pLvHR8faraSXJmc/UStveeCnmaKq9X/NHM1ynSCFdtZ7XPvwhbvIFpCgpvogMjRMFaM5dyNAMWk+rBw/N8RbTaSYabFFsovpjw1wy9TaPl6vZNEaShLI0TaKUvvOIMBez+osuXJ1cOClEyPjxYfj7d4ACSGmLgII5gqhMCAISNJ37m7VfSJ0ubbtBLih5mnoB0/55PzyZZlHJSERJSzgKPTeWf/oYpBj9+x9ypDQ4OguSFPGcQpfOxo1R45NjOH1znnL372uVOLs5Vl3fDpmW6J8lRCrsoA0B/5mxXpEsSFBsc4NW6ebpauojUImNQeMy6fFFM3/DPayXeH5WvejFYeIF84tNiaB02E19eSf5NbVvSDdfOxUJAQFQ/YG6HXkJUxMp6UBN/JxhzYt5CcNSabA7HYlfn2TazXk62OFh/QF459i+pFRsAwa5NZ6nAhkSrV1qsU4KIPXEvHWgJafvQkRwZIFdi92vxViVosnME5tKOb3JH34aXrkUHXiiRhTJwq0/o8uSh5FreUURs50BcKMkTeII3e1nm9il7vRzaxOYVoKRcHQv+/Ya8AJJihoqi7Kmz7e5VJMZUBb+au4WQBwMipWZyj2ZIdajtPGntfn7hAeQgHkYJoUipV7C7j3kiiR8+zbKadWoyWJpm17C6ERUYdOBg+dN89VZUAnPn5HkaHVsVDCabApoxEGS6R8JKwf+tE8WpbUtdeTEtMrieLsKKr30c+HJzusLQZAGwavywaMG570b7xwURRXSzulNBkn10ChjGn5YHO4aO/kXX6eE3GeXTu0Rf36WkXxXg2Vbt0xGk8F25QcBY0DQ0RnBvSWzS5tpyygFu7QFgxl/V0gZgaGis/e+ISxN2GuTVDGaUzWtsdcTaP93Lyueg0kSwcZQy0PMQ3O6YXb1/GaSHf2M34Q03jgKExbAtOoPXqdin17MtiVBUt2nR8XcBjBOXL/ViCIBRiSTljQZr+d+BdVOMQn0o1pmeSwoctzuvBxXUn8HuBWRbLZpgZFxXzHncWNQ47B5YUmfa1djtsFwKAm92QJoGsKAEZuySkwuZ2ZEd1pGW6/m17d2ydKw86BcFoCrF+MrMwTdH9UBphSm4Nnx+6ttv5VHYe9HYBnBnd5QjhfbRK0nqwCLvLf2IXkHjrfox8fXrwPVIKIt3Rns6dHVdcEhVU6ocHTlAVreaRIJNfnAP+gLXenkbyym95i+2Wg7/nurYkVd50LEr+ek0myziTmxtX6VK1SWWWkjGAsdPg68kJIYuRiXTwYpJSlS+O6tb9ScG4/v7w2Zy2+XhDg8bpIo+f4tlvjcz4maIVFksk2JyE1VAwZTG3Q+3aPjLJlaDTRNOewBchwxTSH2kwIR3PD+rmDOSblMvFUlF8jQ0sm8NJpUHkxGbkmweUzd/bzmTm8hioJY7p7MMFGrhR7BojAsMUbSbp90c7Umkcnyw4p6qk8jpa6wxcbarm1MQlqvcRQhH4snt9Xtgun3OxqdLceLCOcxvvPnjSDJ3LWZFN46Hz5hqxD2qIlTj95OQ8Wgifjuc89jYE06VitE+FGDdZMy8V0cJ/QL/ews/8kn/supXl/bQKuxnX668dJVUZcqKl2NQwzEnRaRuy8t6f6Q1ZrbL2ecrqU+rRS3yxKqEqZEALBpRpW001TAza28zydJHlke360ijmdK29xGvNEqL9y7n3KUyMjJu3cmq1NbG2s7+2Lw/rVPNXaVOI02FpbEJIRKWykCBLdOmYPGIJusA8yw/aeHYHa7CIxqmmtyvrWdkqE5SSAzXAqtviHYFzYvMMRmxQhKp1m9PQH9Noez9XiyLSHG+v1jLfV9mHmmQ/YXkwiqfJwAmgBZVRY0J/QGDIQUmXrLK5do0SldN9RqfG5nBcQAYHVXISn5IfmNXVtepq3j+0K0Xpi5RK5X2Z3PO0SQhe9e012iJNuNdDoGT4zxh4Sw3ZSjMaV8fuBtObgb1WV+qFcWEiqErQtbBBZ40b76Kvn0F8LVDcfPRolqMFApyBZ5aTGAqKXjUCU8rquQ5bdvATO8Jwt1yvXLeGnCDjmaVazSQ/OUkVXSW6yjihV3e96I3DP8hZsnUJYp4EeKms7nAd0cZtf23s8MTCKqnJ3OEgpRglphmUfxzRrwOmWGmMgzWsAlp8ikYwImclLceNyYvl5UiCfKwWe9+RunEnKn5KViZReYAly3h9LILzhRasjBJiV5fjOle712Pf/ynDJqEl34/uTUx4DqDDUaljkuMtujjuPRFogcCbIcQ0hWAcnE7KBNV3m48gO7kMQwZRuDhvu7CQAAIggx2enSjNphLlZadmMLH/1E8V6/DxijmtnoeNjql2lw/oE1Sl5VhPTDGHTrcDRVik1AFTGq/+k+niXwJ1No6EadCpycrVWjq4KiUuZha/K39qM/aTgOByanNt/nzaSU7wm249u4RyyKJptRPMctf70FqPVxW5RZGofzsQskaxKQerdl3mRcXdcl63rmYrp/CNZ5y/CvbEpXYIJjJ2Fq7HKVwM5utnD2f8ybJYHZajKzw0h8eODehBXJUpWo4PU4VBuZWUmMIFBlYvuIydyQffg4nv6wwEgW3Hzvx7Xx2qbFYFORkV1QAFR8p1UV9jbCkOs+HPKRtbHXrvawxynhb+eayvIUxNns1RKTSr/DpGUaYJ4pfLpHegBgguSKJAOMVLoF41pYVWHqbbMqgF3DWlPdXf32CxuBElCsRq3hQY0q4vrxdhOlgNx/Ivm//3uX5rIE0zKo/7yfu54bpCXH0lkekgCD1A7b1MTCkQ+o3Rf1LID/xMp67bKkopXJHtKTWKwwKTVl93fXxtMdlAp4dLkBhuZmIiBINjM3Rb1e+lDROESTr7/JANKe39VAgYj4xtT96Tyu2LZBWVtEasZwJ7t4NQnp4T4sAYLuImbbUhAndk5VNG+bBdUfYNvc/zh/s2J4lV+7eWDKP92fv5nHQDloaqL57U3R3itvU1WrodhPowKRpZ/XPzac9cslpoyOOS0O/0Xt4qX05PzbnE58IFF5wbaUKt24BSSozvPnRro4eW0yg3vFSo8/FPsahhhX3vjMQfqwoxRb3/O5To0MfJmV2kTgRCguACnKMC6YdHblyCIoS4h9NNyxT8qDQ+b9Kywr6SaS+vWVafTi8Uz/50fLEZJJUSWjL7/0YQUYngh94afPSpdNr13NENIzqz5UymRi0jpchtC2KsDu3aF9+BPEdfTStjwvLBtciNoSQbNlhlJroR/IBYE2000qNGEu+pcWSychVPuSFdaHKqiiN5dZgYU7L7q5G1Hk+eqe/b1FMrUdGNnMUZG3VBUuzkZTfLBP0rI7tSK+LeUBUbgpVwZl5AG+16TcG+Mp/m5Ecyq/ASox7T7nlpdxkg0eiN5mOx7nYk+0UrWt+otYwFmFEGbaPRSN3waA7x54J2vt3zz/8B+4n53+OmJih+zomSV0edf0cVECuvbgYT1yVxe2PuDenGgyJnaaRJW5s/k6TNHgaStfmUkSqrs1FDmY3hlS4XK1vM2YeqvGlBWBzG/HssEgEuGE6HXTD8v+w+r7GWu0ksUG62oVIOl2nlIPfqEFLOXnVOS8H8VFSSpSasXcw/3CFf3b0hg2029Hyr0eJOYzWLlBBX0fE6RSF1g4pI3jepY4cyst07hkhgcKhRazRj99RdxvFRkKzWUu1SgvcybrgmAAIRqKl7VaHMy3G5Att7nx5J5U2Ak7Oe+nNyUvNQ+tmSP9kWSa24Qk4/ksad+t81p0ceUaD2inpEBREsEooHKiJdHc5h1/XxpZsIAoZnVmtf8wdlI+THfl8PQDKXp21dCTUGrTqznZqrwM8jWFLe3AWiFJVmW4vST+qx+NfsV+tvzeQ86G2tPzpdTFiwWgqyhmjU6NcJFWJaJsfXXC3+8DUuVguXw9TqoCt57tBNOQLmO1wxc4T5VdDQar+dlpBAW1M5AQxbq/H+k9gSaLjBDrKvCm0Q586/E1vcwqyGRJFXu2mwli+16vBe2sdCwbu7chrQLXxeJ+nwwq38kZfUdYTYPWLk2Hq2hlJgTMMkArGq+1YLuSnx6nYWk7ub8wK6k9aIjV7a3W8d9JLxpRgBPPAprEupczRJWILkqyLvuRzGEGJloX3rxeUTt7XaFI4PKMong+jDuf2d+Vxm6tNKmTmzL34kLe21N1cvzNRj/kMYGDgiasm0yh6307ZDenaL8JUDTd5lQbh8nOEawaopnQ0fzM4ruKY0pS6tEqdD2ll6w8qN7lN+N1igm9y+AMwFn4Tz8+O1HulWYUmyFWJeRRInQSBAvf5/oa3FrqQEA08t6+Ip4/qgqGRqV5PnXSpGDvHqQb3AAupxA0nXqNfdbaFGB6uk0LwAwPOV4Mv77tDygAwkRuKyRBeuM4WxMCLXI0xeSmQ+MST1eYoO4+PFLSKvRjglpfriHlrTKKrw27mWmmRUX2j3j3utCpPCnyxSoCMK9ItV/jIQP7KXn4I8kNgpyhVzdYZSLQrQdrDG9v+38sbdaml0JWZLrV99fCoFFWnlcYzdCKSiRQVfvI8H7zTtRZgROYaHwr7AzYi9XgRfglbHHpTrvx5v+2owITYnOnq9KrL+d0Q5BU1nQxYTlEp9cSZ24VnJedfpvejMdx+/HJCu01Bc3A6xsbeeuQ73WiBUmlPmDINFfbeGUW3KF4MU4Boey1cBbjaJ486q88oi2hcBMqaSkJMEtLiGgidlPZYIqF3VIhYgV0/VX08AkiKA5U0Xq68ewADQ6Bx/QosygZnbGX94bhu41xLPnzydSHjT7Q1Op0stvO0tyv2n0BV7A0b30oJJ6k0Zip/EzlKXby3qSEPaPblZnEIyi8nTqwmqxpAWfKEbddJBUF2/ekchGQ2dwjqTJchxgDUusaTArhfRs3nw3A2sRAlpMo804X4nEncrZrp/Nn6nJyYUIO0PXD5ut33M5ekdlW0dRRth6nNckrhx8TL696bOi5tJot07v9WsNbquzyNCWY4T89Tk/+xxFDhKXaagy58vbdhmRpraat1yUIIvXZPlOu/Dj2CkrssKZl5ofD3yzrdxS+JkXvvouMfJ0x/Xpm0zThBoiIc6UrhFEYUIQfAiS32wxmiHRqFXILBTEnEPYUNqmq3mLdpVmQJEhDucsU3pprwbCSW/T8ld3ZY0RKoli0nVjheEG0G3ku70m+Y8ktwlzf7UWzor9bj0dXsxTKyGl1GWtZo7wwyeV9naryMo/NkCAimxBTT2zJlEBDsLgKeJJBsH6nhQNYxO7c5+AcNCV/5MsqDVOvxPU9hcyLdHsTNkRozqNKpSLAtUWCgp9dlsbBfj2eORnqNCPLej8upLbk+QyNHhwkszc3gMZsv3dXMgmDjfPZRciJNXH+221Dt0yqLWVcB9iWXTAwRB9r9TvlJWUUZ4sF+Ff/ind/+J8nR7XRBdofNlJrPvcAYDSN31iYKrPOj5owNvMM1gvTYaTMK/ieeHHJP2hVCN+czIhWMokZQ4p9UhW8BMM45ZsGAzPTKSDHILXOYaQw28uogvt4VsnFeuoSNUPfMaj48o0JQFUpR/Uwct3aDp0WHA+Daag3WS6jeF0JTrZodFOKdJqxvTZys1Ydr+f1PY3maYgvz1JAEqy17h7qRZBbq7TgujsAoTSN4gIQmBNj73bFdvs1EhOZ45KcnWcut38shiszS2yvwlX3btv77rIQjBa5zCuClTXaW2ORrwnrL6cAKGqYZJIioZTycwAAIABJREFUQfhXvw5bnf6uHE5WkbjD2evzUYwEJr/zETez9vvZt7+NhRY7KOqfqTmBQDH7xkFST539O4cTgxgINUPhItsFiMzdbH/wU/nidf1P++uXr1b/8V8Sqx++2A7a7jeT9kf66NYpyjKmtTppmcjgiFafJ4q0pEgdLW6qOnBAXQSzsXS3lTonFyHZ6gWnJqNkVkapTIlZxvcx19BEWOYhrnEFrShMCqjZVU5LXXsKpHCyyQmmfvcBiYmrL9YQYOpgF/hJlGgGD0sa5d6W6PTF3Nogo5u8c3jzJkREngFGIsnhoZqs3kX37jcY5+RySWgczbCLReejRhmtzpa02OxnM7aOs2BDtoVU7BDu5VWl1TS6zKKKljmzzB2sthT/2qOjIEwL9uDjo+TLrwNGG7SrtIxuiR12O+p8zCE4+d0SAFpEeYJJXoL/w5s3KsUf7AjBfJYYWr68OMkQhw7+iovOvm4+q9/89Zz/ODc99qOfQgcJePrKEfY7woe/8Tgqzrm+QePYKRo96C03Hv/Jf5L/u9fNf/6MPPndN83/rLUYX4Uin59+KB/fv/3g01Tm04N67oDGUGMSB0gCV5aQQeYYGZUDJDLfbKVDNb349Yzo3dmpxiuIF+sKsYjUVMZdJ7Qks4TKulmTtR3h8b63CKarlBaIOKkQCqMiL4zP99epdPvNogBIOeqgJIsLgWERoEE6n3P7d/R4PTZRkxxncrZ0kEwEaYlLbve4WY5fh52HHXL63WUhNiRe19ypcKwG5vXYF3pH6puz2p5QLsdgp1bVdvhycbFVFA7MJpWhczAiJBoxqAqnW4IRvFUEa3c/Et/8zkS0dtQt0tUN3lHobKgU1fJq7GCKI0gcZpjpwP+y+b2dFvVhi3btBAhiNPnSRoT03zy/id58J//oMPzNO/bZ4tuYr9VzRzR4exxyL4bMD7+LSVRR3QHvmFG1+7wdz04nZvb037D/9mvq0eeDsy/eRT974FmhIOJs9MY9fB6cLgGJE/ZAq2BN5yW8uoGdhlAVVQW2Fs/7IWBAmTGCKFDLvztFxp2uULiFd74oCICpek1O7JBmAGQa1CavU4sl9yfP/bfjbZ5gsiSpBGoCQ3vbzufwm42UR8tlQbSO2kIVRCSKCsSRvndrEe2PW6VvL9e8YAKFCm2ipZdpkqRRIbWQaYm9HudPp3bJq6pgNJKR3yI3K8vL6INnye/Wel+rruelqrC7d9nEPJuJHYWYXOZ6nYqtVB7KCgzstckPO/bN3Ku0e8eLb5cYsHuHWTA1wc7BgMhGGTV3wkyUUVQBN0bqLrx317wgYK529SrhAFXDyfW3Pnz43+sn28sr6XAHv7tkDm++TgWFqhKCJ303p48O1NX/5xBIMRQ5vXVQ79m+BNzx2blj/NXBry8F2jDOvveZ/U5ZCQZXkOG3I6VPbpcxYphGRyA5FmMaXJ/mR3dEqnISHHCiuwFs5Zd6C1Sihi5+P+FadUWEmX21JuncLVVdl7HrgYSUFbjNVXJhwuc/Ay9PfbIs+JqWXlPtvg5Mc+fO4v8dU1InPg+oveMaX3kuQwebmM02TpzBxrEcI43dxMWiEGq8E9Q0TcuC5OosIyDZurMnZs46pqqC4BhZTa6nKLLiMiuInUfLKyircrmwc4pX7j0sT84Wsdzu6gz0rh0YeD4hNzq8k2IkGZJ7PvJzqN5lT1YFkB7tpeuRWXt6AGfXC4pIK6Ler9wUJy6UdB3WqqKATFEJPQXJVa6yDPHu6/jz/5Z6v3I2bKORnm7VpjuLA0LkgVlkSQol4aAT/HJKqruNypnamO3s7na43L586egd8arYkaJ0NBP3ZJoRNS1zKHly4WQkDlOi3utJ0SbgVZqD1+/d3Wc6l4ycHO+Js029Hd2Y3ftMyqpCfvqdS8FSbPLxxkNCPIkEtdEiZ/MKCCJSYcYK9typ/3Hn/I0pSEDbETanhNY1qm3caU9/fVHwu9zpWrg/pDnorGnZvdxUZVoAQPYagYuGjwh7NMP83YPJm1Ls3Zf9i6+nJQb84KjNFknKCVVUUDxLuGeXQZKVoMRAqEV0TeREkMQOodZ7Le+LHxKq/WigCmzyy1cForOsotuMi1oNiGE4XpVlBhsdexnj7o8M4C6jo53k7MrmOiApjCeN6bLMXUdSWQy1pESckBVkQ2NlUFQB3Mm/P+/9F82xl3l8U4yvHUGVqOB2xbRl/3bsZdxus6NFv7uU+i2puDjPCAoxvad7rHPyEn8ivLmq+kNojr1Bu4RUvUV7y7iBz698wIKSaty/I8xOJmm9IbHu1NSf6tAdO351KJrhYX9xNuc/7mHAUNlmEjPrMXu/lweRE3tuRVCaUU02kOQgvdeIaK0cXVWfPVxd3LINIDXYxQXDa410A/b68bt3U2EPf9gYj8WZXM9XPnBXISAABEgc8P7WJw97cObv7x00rn55lmo/ue/99pukBEiQeYIReLlVw3ECVTa++H4JOSqOM4wxKd3vkYijiGDNNhVU2j+8Tuijnx8yFV797++B2lOTG59hSb4pbQIaeAFJRynf5iw76T+mEWLpKCuXm6JzkMapelwL10t7u6w4UoBSAQiuJWG/4jiBpcyb2OgVP/h/ei+qSCfpNt1ZAilDC05uif4udf71plLv7+lE+N1Vb48n8ercB0Vc0Ad/dBx/+z3z5/3zV2atA21XEFKACLElx7cmT15NclrCGWCOnkvz2+WGUGWO5iO/I+E09uZJm3XBfns8sdHxIQyjogCQk6av4r0ezIvF2JMansPoxTohaJCLx7WQHkij18FHH223Y1ij9Xo1vhJEBDOfuzcEt69utH3vlakM4UQeiuuJVwJcEJxE80YNQf98AjWBUv7sqYit3/9qXD78ifOH2wJCQBIVVOVac6fGZlYgMtMfLov2cd1d26ZXMPtP9TwuGbYMSZhimK3OtuzhZwd8mU/+lxnQPm4GJwuy3+TA9jpi2CwhhSyh99rZYiH0S4qS8gXZoTeLbm/iMVRzqOaLtTUJIZahhABTayrQDXKKZxrOS49uH2yu+Z7MS/6W58zK4HJJWr7ytFabn79bVu37XSZx3oy7D7i4BG7K2tMIaHefai+/5/98dzsJNWYzI/S8ZNkyFgxyfltksy1s1KxtBuSBFGMcQZFJ8I7i0JjgJPu93eJCXx+sRqW8w+dujKCkavTqndvQKFhNT4PdR9Z7LGI/JekS9O/QdlrT/XOnexRFN5XG1trxzXl7sHWSoveijtc/nErH2ZtbqCgCz0Pz1mdFMkrVriTqDMGVZ19tK0Jo/fGnauWf/O1pUT8Gt26FcFYhUjZkraFJbLleVOH5LG893cezjbtcF9qTHk7DUGjwRHyzJnienoyy+scDHrr+Vxdl4/OmtUR1PQ9AYtlhmQWYACVzsM9ai4iNybCoYureofnaLRLAMEr/3qAcT8YBwyAoEGyjIXCMMzNxU68Tb+dIfVDzxqYoR24BikLr6hXNr96BAe0WsPDwcMjHWXx6Tg1aJCZIvkHObwOCFWrODfP5fhJR9fDVssUnElNsHclQvJsgDeOiyc6tnCFKDAVRqClwuZS7NFMwNW32MjzSgguv50+Ipmb5FaXxDZ3PzBXfo0HpXV5kO0/w+y1NFVmFkPG0g81lzIHFhparckPUM2knnE3bD+ZLv3z0uQK9t29hgytsvzAOmHA1nlV9GoYuVRcwp7XqYPrNeQQIeW93z4hefrsGSk9L3Byk24QQ211WJiGnwNGpGzil8OC5ujhZxnFKdR8JXhgGWNWldG4WkJGciUe16jWpqsGTG/2OGudKHc/Wog79hWutEowBqg0aRFUEVmFHABfDj4sP4wyQBM2oz1/IF+8WicyYUGC7HY5i0fWJi/V9g/fsUul36LO3QN5OI5IEjGaItJIv2M72B0uoM3pPyhIcXl7GtNLQeKI5rJfr2XZrYzJgH/eKTBWufmCHcSrg3E8bSoO8vc0IHJHpJm7eS94tsWC0axJerdCAiUlB4+cfiicd9+WNkiwqgQoyglebHYXOI6rbzDJ/Ox7n6lCKthkjFFFC37nPA/vWrvL1IicwTHgpZnrpdsEcbhcpfvyzJpefXkWF1qmF06rJprP3S6kXlyywI5BQw0edYvX2ys8xKwL1mfyH84xuHiqbdYridcqoilDn0kIywMVbG0JCOT4gZiMzgXKnUYN+kvnLnBI0xTE92FNP5ljo3Gd9qQv9CoEyhA3CWVE6Rybu7ZWTFQASrGI0hcgqrG2Gq8YjyTx1KoZjaPH4gTy68PgamEOD2u0zqJqebCqMdg5klANBlauL20oHk9uMIStG4bQOW3Lc4usp29CGHTKqwtuVFea01O6wWpcDZbS+WeVlyB+3SqcIVlmncCiuRCSvCC1p/D4hQFpELvXoR+FvzsvaXpMpMwvrPXdMIprJrfDZ3eV3M8VZpAhiDCnOMBQK8YM2bTkBXowjRjN0HAt8Enme0peQOSUYsJ2GBawqTkxxjSznXqtcJGjwabtFXixIyNAas3RJlkontzQf4xZ/ex2XzL3Hqn07I6nYxdjCz+59e4WMYS+9XKdVHkCWxEDhSq7fBVfvIhLzDUMufMf2pWEH+D4QOPdsndO7B+nlir5/79X3OSPXcURous7jPN+4zQ5aeKRao2F4c7sKKwgwI/balQeDWxdytb1GcGEyQyUteRrvstO1JhQhfBDwdzWwPlsmJS6VAV8QvMTl80LmDTy+WtMqkxVQ3+Egx5rfLZQ60+6TUTIdZUScqO2GnKVUnIsNMFukhU82Jbx1A64vXjqQF0SRJ4QWPbpJ86Ais0h8ej/76kPeufP/EwRnPZZkCYKQzzm272Z3393v9T0iPCIycq+qzO6a6mqmh5lpaegfAJoHBA+884SQ+AFICPGExBNCNBIt6IGmZ7q2zKysjIzMjN139+t338zs2r6fw/cZlJMQReCsRWQLGpuuP/hwPYzp2/uIQAAAzdXrHEaVwyZtjrbUchyIerOvYi4Pw3BmsSXWXMr9BlhO13GW02WQIqXub2v5pQWMQ6HKXpFDwZkjgySAFvR8vPQBX8lv5zmlPu2Tuyncbxbb7WKYPfnwfFwdlCh76OQgj6ksTDAFmNpeJ1+aGBaSRgNAETfWK7x5M5dPa+7V3Vb67EH+fsQ8fjD5422CmCIAQNxtMWnmRfW+fHdHyoaisNntmZURQCi11/QnIjdbQkOr9Mj1vPqsGlnRaNg4cd2SkkfwyA2FCuf4aVwUuVBGCa3xaLHSO9UBO7+4ZfqSFWNWoaBhWC+zY36Je7Vkcu3J5TRsnTTx6NyLsdiq+qsYxISkJMew8YR9MUz5akUAuNZOzkwchETM/NKT3einm7R6bACHqJK1pdmbabVN4u0HJ0WRrt/cRxgiiIHQ7sCwUDttKRpPQneTiOVKuyPEK5vw+cyitXSGHz6V3fHEjZNC53Ch74qQD29nMV3JEhwdHmSLcaYICLFKT7z+cUNzlLeOIVt71AjunOpxBeXebEHv1y6cnTaOHQeyghBM71cppHKoNBpcTsswxiQDokbnmCPe6NKu/FknsEazxhdV526Rd0+Fy99dUxqxUwCUPclPaL3WoqZngSRStCRObiNAioIqH9Xu3/N9/z6TOflh7fqM3juUps5wTAweVCqUCQ88J4OQLSEcRpkg45wR6WLrQrn8YT86P+eP4TCIAcPQihQsyg/wj6PKUXiz5uv12KkdDpjxd9OE4+UytBIWg2CbQsg0Pzbe/2BylaqaU3uN9fcLkNIin7hyZ8d6Z5LSgC18XiWTUBcv19UdlNCnNYFEq1fDgFC8UKSk3qL9CLJ6Q/VXPjCXxJCVnmYOXWlQndziNnu3rD9thGaQFb6PeIGRKhJLJXHimP7WpXoHkru2c4GFSG3tSBe/XzMo80JCaH2vHa9htyVAjAklc9abpGMUbgAkim6AixfznJGoMNdqGiUYbB4FAS5V2ZxgbzJeF71f1nyGduVKcDnO2dKz+vKbl7iuWzOPAMNAfNWQS5T1ZlPRPI9nVquCQnkOqo+119dcF01DGvAnT4sXF9rjsrUde4itUhmNPPhn9n1O8xLPGLGZSnRScHlCG8VlJvU/rc0XrbJ5PQspSeWLIALtDvnxPdeN1qhc5Z1Yae1o0fuhVzMSTNxYwkWeeRGhpAfd9U8rRlVVunLEjt+ME6SUYJoDvrYcx/oxtcigiOIFrlCLQBlwaXWHY5MkH773GKlShhubK3NZmoS41tcLSrG/n1ACJ3OWTeofVO8umRPp/TXTPZTDGKa2mzIsJ6kQsywnF4vhjas+qBHPsjKBAbC025Znz20Bx0GAYQKrbQHTmsRxAAmKjK9f5+1KsglZznfqqn99D7VDY3FDKRrNSHQWeiGqt7gsz+P5wgKP/pIZq106sd/cQVkQBvr4zsa8lKwtBwO+1WuAUJCSy01FTYnMjm4immZgXjrM35mIpbMMA7j7xc797+IjaHqW8rhsRBfz3IV/GV0CQeGkUj8ZxSzwKD6xi+Pa/3NHifsf0+gAXL41lbrEYd82U7nJD2+IwqaiyuZOwXGcwIfbaPfQufT9kEOY1ux5DulSrZi4NA8ppd8Lpr4dAknOiUgSdm2xX352+R+CspJuN6SpzizmqJS2q8mNLdadC0/qNXRquSQMpFG+3bKDviBq1N3LCaFJGqV056l0NxUfwHcTpnvUyLZOlKdJkUHRwC7gOL3Orl9e0TtN5Lt+QlM4lxpVOTFzLvVjgvBmzfXqXOIXXFljEacEV/eg3SpWDiGmI1fEYim1epXkdukULJdtg4LkSGm2+RRw1mzFPP48uBD36+T8T5EmgESWrBWtwtzx4iTI6cFjdTPNFLgNZVmSy6X112OstCsYMObQLwCEkCCu9NED/M3lLjt1XfXPj9j4u7E0gwM6kvmMOe4K21VGu9dYykJw+uDd73xa+aSvis77d2n/gzq38Qv/ZlYp5xbhZIQQRfyIwqbPqnSufSC/nwY5Q+V80z8PISPITOhRVIKNA2O1UvjYBUUmNmkryfLmvzq4/D/nNSVzTHjQW76w+7uUyqXfr9UdMok7xyWKBH7ihpxC1pN8/yFDlBp/8ZNFoWgb0o09ZFugQlaR2utqhX3nV+gQJCFWuCSOU76/y7177usVFCOOxX6YcWWBIFZkExcofDIda3uSNbcStrljwDhZrjJ9t0E2WxzOXajKVcMghS5Hq9EGqni+JYBgJLbbQJS8qSu3KvmG7/fY258ShYscwviW3ONTL6K5eByU9kXPilgaCTICXL2dfv8qkft7uj/bjN2CAABgqaeVjPztRbm/mnnU/sOS9zvyaA5FvlbKXepgn4RJCuff+0wB+A8/K/7dGdSf7Uqb2WiWq6fPKk4gMWffclUVIw5lmSCBwEHJyEGqEOLdgbfMeYlEnB6+WxJOFEQ6AMQjtQNmPFfrYJn4kTwQN4la7h01wq/e8zxOIu207/3hubDPBW4pvEobxpZ+3OdInsfrRcBrxXhc7J6KmCvr9ssJZTD2qlBVkAdOSiGx1tSQGy03MkE9fmViRcp9LLTK3vTShDzAcrdReLYrNotVwCpSkSp1LrSiZn3yap4DtnVUZezRLNePDqRgHaDttZ0WSH924A9zCcRLm91r2UPHDzGAnCiV1MLDFTgFRruuCsVkUUBnE+Ei1/plIQtFEd6+yGplgWV4RlTBZhMoLXZ4ZuP6cSNbxUsnK3IGkfoDPfPc0Ri1+cjy6VI1mwoPIiiIB5prQ6VXVotNGp5PYgzlTz9lv/860B5X2M14ucVI79dpqmOs/uBVS5QgIi9W+MiJUbQM2DJv2dJBJWEMNfYgcd9MC0Hg5VIag4Ttla3btdiRvDTx+FJm4tZBu6Jkr+55kMR5+aiezF9MG/TK7gzejZQWrR3VqZRAbzqNGDGZLnN5vydyLBvfnidaQ0zTrMhAYvlIbDTKzHyqyfba5J/sb68DuqSVjcIZT0Bu+wWGxkcnYLu8Jz3vxiWiCPlWQ4hytUxePvcBUI6ONby6W6LuowFjrVKyXqDVFEu/eOq8MiHEbqz+7DQ9H06tDCKQI5Fj5F41erPePy3TQIV3M2e0SSEj1Af1MuNBlRv/f/d8b7deNXiS+pvlLNCZ7dzO9WM9S5GXZzlVoRZ830hW5spNSgeVyW3E1ks5bbhQlk+09SKBjdNqMC/4eDn0+ZPTTnL5akLVJFVfXtqYhhRQeruwOPeqZU4yQJij2LSBAMKU0cRgmxkdiZNZ02Px+M5lZbYotdMlJav7wqv3rjGoQJSbEFvzcPC0QmU390oFuitXbhhiejUr06u1suONYU3VakIRYo72Vw6CJFj7sPWohAvsj0YBpdbKAspsL/FDtt6vsfO3Tv2BMb8JSoPifisODppK/v43Y+Xk8E/ngNr/qwfJ7dmdp8arDFM0pe205DhiNXj1xiNs63GTTUfDiDHaHdEzcerQjeXzbPBJ271ZrFIcR+qff+S9mZtmAFgYZQTx7c+r4dXN7oc14rKl2fubYVQghm09bijAwjvq4vk3eW9Qb5U4HDlb825DgTBKcf0h5WNUUDjllWCYV2vUeuPmWemTgX11DzvNoMBTKNL7HefKpY4/5gOfV1wzWMFP2+F6dj+JWKryMf+ne45K0oxqqusCCOWKXFaLqAgW60hqSomTcVWjCNwESVK+oWrkbMo1K8lW28MjpPInnT++8MXdmqDEyyLH8/new3A2H5L9ZrKaxZqBQGjDvYY7tHgBswpPAxxvIqEtOiFHA7BdBLUPK/7KcuwwB5ymGxXZGZtJru0NhNHrJRp8XE+t9TpOA9A7qYqa+MPfmvzf/Ff/y/9EjC/+rJv89PU28mO6qzhWrO00Fec6aVUSy0+Els6xyXKLSMFqYmDFwNgV3TvjSRllnjNc+GsXnjyJJ9ifOEBWIz8kdO+XtXg5U/eb+aXbhTc3eW4XAFaeNsn1W/hZ/eadKe1WOM1QqO3Sz+YbNo0LBLtHxMGEkCjnsrWFNB7YPhaF0pNBdDvKuCKD7gYKYPA4/9NSOfmASzFL3w41kO+q25XjTjxI2J8f/3hb0+xliHk6ThlRVqrdGnHD9cSE1ZNWdG3RzR0turwKS3WcV2ubF2tjl7cceVfxMInKvfnIh4bIqZFHl4TZfb10fWHn4lHHHi1Qm7ecEPAPPqGH565aq8soSxJ76vI9zUUlkLB4fosGTX+8jjEgQKwqUGlW/Xs71zvK5tUKNU9PaJz598MFd7jPRVSL+e3XIf3X/93//N8Xlc9/MQDnXwNqOGn8urN6MaR7dXn9PBzsi2lGJZtQNUQEaW8TM9gPbXD0NLtPjg8omqQpgXfP71JGF7SKde0AscIldgiNgx0xXmdiLX7r9WumM8BLCHGKKO/CBdXy1qN3P2LnbrXujyxWcDylsDNWaVactSCn25hnTQtrzWy2zblmv1sF5tqMbJfX7S3soeNe9M2YVfq1Qq6kf7qqdMosRkHgD7cAgOOH83W5B26HASPADOQ5VT/uI8udTCO29fi0+HbINPfK5ps72N1hkSLNzhKJWq4KudNQqXDlCDKX0RpIMy8QO4q7iILJOkf6fsMdbYR+PAvjnNp/JjqLNVVrigxNU87ZiKmrmVyxXI5bvA8EsQhTgihAxEE1DisndbK1AuBfrrLqz3ZxhJA/Gc9Kv6pE61gv/nhZsF/82//9n9Ks/Z/8jJ1eIvHqp8YXu/jsm7BZZdff+YM9vmCE0Q9RbaejsdCbO6mP4Saon7rnzIN2oFcZqa4v/vGlk2Bmp72+9QmSVRDHBEnNOlqvU4Hx+TptkQGODEFKLu7NKANQb2NHegbPTUXZbOmS6Kd1yQuYprY59/Y6/iZTk2nI6zWw2uTqTk/LV5kGZrehKEU+/GtRwvO3S1xQLPPgA+/rO26v4zk6T4rRpIDEaKFUOW7Ovp1zJR0l3jyXHh2ThbmyC6H35NT83Vqs7WjLt2vldMBlBdraADiTdcJ2Dnck824SCRW5sZddXC5SqdymrOki4Xio1YiTZpzoRlTg5J19FMJILHE45psdafK1pXFYlhe+xo/fxwAAhDBg6JzbHeAZ6lYkKraCcBoU5dOyuWTFcLaJ+MdPdHe+2i4CgedqMbc+y379N+XNLCP358YHR8L8hSXz7PbHTaMjsYb46nvSPmqJgGSOadsZcj26nFpynx2lnz9o1aXV97cLJyD1krVKSUY4TiQ5kUpSYNoxxUjlCtgGdI4P9jjzbg7qwU1S71vTvJqZlBo6hVoDVrZ7wEZplf72rfrMiLc5F00DiuFRFrDNXcmdLkG1ak8yBkMO/hdFYd5MIlIQwjz6wHl+T/f6qztud1+9eRXCHCkaz+8N1n+YqINjejK5C4Tjg3CyCjAt1fY7129hpSrj5TiunbS5yM/iOIcxojbr2rN9eTu6WlJa6eRh/JuvV4ilq9V4mu7sS65AbbdQLKx5LAqJD6VKDlGnmy5v0+YnR9kPZwhmLNkWFWP+ysEAQAZgTmWwviculxEgkoE40ZmmSpe3NgKb2w5LkccfhBeXNl+peTew1gkv7c6XpYCH3t2d+PSAzywvzel4OCW6WN2hvn/BHp6UUZYixl2blhfGhIa5cSTdLf/ZY56hp3Psu2tPhG5A0VHMNzgvU/aqq/ttlEGa5UWFDp1tsfdUsZZp5SS88MNoFSEcM3vV1TCrVL1l0n5UwrkR/sF6fJSGlgdy281TQlFM7WE3e/MugKoS+zkBahP+54vpwsMc5ScFvbPjXriw3I/P88PPjMV7O09jUNaksjQ9S6pPv1Defnfj0nsD994uWImjRWSHYqdVLKYBqvUM4rqYYQChGur4B3By2iDOcJwj7vA0/IcfPEiwVIau9vEO76QcxAHxb889WmM5qlACzO8fR1dvff3hA+bazCnEgKBQjeBsEWQFkHhe22HNwtC203mQIqG8X1u/TzudxMkkNl5uS7oVt7C9xeXEtwG6AAAgAElEQVSWsXobiP0ushVnKj4TNzcjZlCVFAHkuPA8y8ti41T403v54wO5yFJKBJ55NfYLAiFUD+tO+olhLrFHJF6MbWdmFiXDDysPoytq70S8GOZ5gUMnFSoClfhZrQssLPdqkScv/oNLs2l68JRfXgZVuDBjoaaoNX12Vf/YcM3l1MuSgs5TXpGqA231/SyjeC5NioLSGvDBJKLrmgDmG0okRR4XqihzW65S0bbzECdhbuhVaXXh0MbDXw3uvr4a5zs77tJFLIsIgAUR2i24GG6AXJOziPAyj7DcoM+/JwcnTYYs7nBgi310PnNTgjhFgJVuWZh5+r7mW5u7c4cWKVBt0WOo1XT7coH0WpnxQE5zkk5Alvlrz/YDSi9Leo0dB7IYm3MvLqj6cWl8lXb77pTqc+Yk2O2YFx6l0lJLoa5uIqH/oOKHl+vyCb+499UqAmWdpYvEy4k/HeO90vmm8XQg52nBchBYry8jKssw4GpdVd8r3t9SklCvE9dfjSzQqvi4PfDn6p6OxysJR8l6Ewg6ZEpKtIkDT2s2pZRuDX/j4yIHn3+4vbEZzpwHOSCwvFeM+NM9LbFWw1lQ0DqHJTYqeDqxsEw8XKSwoDgBqgHk9ZKKnFA7oLzrOX+cbytN43oiRyGkUU6Xtab67o8BT/FPvsBj+8dNtx86WUFAAXk5J1TlgJ6ezQPKkCDUKswmR2yd3iykuqoIeDSnvRUpsZm/tommcSVB07E7SvTD3cizVkOXCF6kPFIctKtMXm+A0hMyEIq5AKi6ygfbqVdEXiBVVIpikm2ul0C0Mr0EtvbF22Em1BlPeCgM7+GgXWwmFEfzGgRnW4YSynLgeMRoahSgmdyNVQWSFKURTu9nqch60qBbFQMb6CLOpucbtkpN1rm0U+Mbtej8Hpb0nb3t83WeJ5lRoilOZxmdTiInawA7DKIooQp51/BeDhNut8lRnUP4+5tgGkKq0/fcUi26mmSAwqhZmdmNh00Zx/7mfukBtaao9GQaUwzT+zA4X4QJoESCYMmDgqKJDIixIieXpqQHfKcK389BgRHPEmW3UxVefWXTEMnNksqfjaudLAMZxgUlqnkB9BPFWp/fJ7zCU81meu3EHmv0d2tkGRcrh0aJkymaSiZDtNvAkgIaeDYsuMqATgJ37CWxu5Ueinm3oZo/3oFShUpBwfs89uo7RuStvdhxsaJTOcj9mC015WI2tWOg95XhrKB5STF22GWYCZqKQ0SCKF9ZHi9nCaSzQjAMVTY4mAYhUoEZoLLkeZ4ZAhKlnV2Zzrc231LD0bwguVIOpq7aQ75u5JZPKKbxmfy771MJRlpdxylXVwtz46eow0Uk86OMkFKZis9vCm2/Eml/1br5rZecBSybESL1d6xXG8LKfPVUOJtpMk9BQmAcj5dUqVwuuXebFALj6Ul+/3pC1APbh+0VkKoCTzPhXGzT1+McAu2gWgwtXolCng2FTquGLn5aQ7GrzLzWwL4rDIahIY0LAlga5EKvx4aLzXoMab5dzeaWuUlKz540ivnk7lbbRXEC9JbOzm+K3SqF8rhu+G7kgW4Zx5t5GKWBz9Zju3tqEOf6otgxsCTmo6LYlI5bIC9ye2IWHIMxzBJA11tKvhwu3ZRt69aW0QWglhWY5tPUqDI0m20mS9MnIl8AimIZrakVGSeQhLASZU58sVf1N1sfkcilWxUWxAnmNXhzj1pgGTAlA4mGd+2IclXnVlPqLz5+87emQjKjI4Wg0uPN23WSY10kEOSYhjGIiWrdZWJTh6W/Un94G2OLYoEfBmSneT+OCW3sHA6k1chfh7goQK1/YP/hjhLkWim3NluPyB894W6eO6WHKw/25znbrOsAR3fCAXN3lgAg7bXBaslUMrYiJTnNiLL1fojqD7p3b8mecm/JIi8pQhKmaQKpuKgdNkNTDn+3AnK5RIfZZuHTu6c7knv+J1/r60kAqxWRThYuXZaJ4zb6bBK7hV6m4jCxz+ZIKIvLNfPxAcvbv7nfHUhV1X9lsVs4GIgUk2/mm4ymcAZElc/oikL5s9uRj3Q1w0qjQhc0xMSZpVKlLOPNYu4XCda4nKeQxDN0HrsJTUmVquTdmUBsVwovdl0vxlqVoxlCSIzTZcBqxcqnK0cNQXa/fg+qT3fp1ZX76S82fzeUEDJKVCb363h1YWOWIIYCHMuwONgsQznbEFERKrVHwbcmbWgKIiy1vMug68d5IT96IkNsrWZeEWXGR0+6wcWrUUqX2jwJnOk8H/yq5l7HSmUTwcNRQZSdAwjIErQa7/6QACAetNLNJoa4+1EXO77rVOjFDVepd+DtHadvSFmgFJ2J3Tw2Q5RhbaftuVL21QoKRoeLqXg8Tfm9093kq7dAbvayuUXXVQgCK1c0bMbGYRUkPpY0Ls3p7R9ukLxb3jh596ghweElJbJdY/Od105GVLfBSche2ykvEh/tNOnNVq9L2Lt5Z1EyXwCp3WUylGfJOsSo0mTdxcYTqizQoE/lHsN4czdOc0jruwNhepcxXK3MUHhxbgOxW4eEoVC82lIi40QYS7uN3G9Vnec/RNzpIz65Gz74gnx1SUFW4AkydtR8eR8wOogQTVQBYVyYXrD2SKsZ+fUdffveFQZdCtM8Xj2/p0rsyimEvQeCmXpemBY+OvjlHhkxzR+/L8olAguCbya9X5Xt+6Temyfwv/yHZUI3HjJIjAPq6fXf+wCph2Xftp0QK19+zrjR/aWgFkHVwEotv/edqNwVMkrgEjtONz6VFLWStPVifxYxenOPsQiYXW2x/ORZ9O1SFFEdLRaxoEASF0Kd2thErtdkIYlYVcy9ePnepuh6OcohV9pt8BAlo3lFvLtQP+DfXJOqJqvQmrl8XbLTnV12Ptb2dJCs38xpmS4K1FQLTqGxaUECyxXoe/E26w30LPSLbBYxYDILKAiAMDimx/cFxSu6qMLRWxdW9ksUxYHcm9vaLju3CnHnMH9xc/SMGv9plNY+3wHnL/f/hXT2PkpomAC12WOiyQoLQhRgECGOLgpEG/zNDXp0uLoXOzQhrrNXRhQVjMfTotEBE0/UeIO3bTtAAAfc8QdqMj99Mv8nU+agv4UatqRjaX1mN57aIfwfz1698/idLqfSK/eL2d/ZEGr9OkncezcF+1/oNLn+KVV4qt1m9AY0V5O42RayFLDY8dN1rvpO1UinSz9FSqnersGxhfLJyGcHB+4wkUggG7EVYJITwtcP6LMREWWx0kRBxAtku964jJQBJmU4yOgdQ22q66swvt4cf2ncf3OFWb47yM9uQa+zWZcHujVSj9U0Cy5v6bKUpyT0ispeDcznOaDkMleweLbqfmqY2xS575alw+C1CWkC5JNjenjjpxQv6xoZjRPY3OdoSQShs81aHWBvEq3O3T23Ww/q8d1oDR9+ypx9d/Cf6s9frDMAErm/28TboVcqB6vYt+2U4kBGGYeN8futWAc22ywjFeUKlfqeM7KK0mlts1G70mLFsO7IYegkpZqVJJH+49Pi9q3F86sVECWEaegsAyICCP8bkL18taU7+yV6PX0S/vsNQGypXJLx9SzEQqdVBdOR2Ehn/E7/QRv6m5Un63S0zXQxi7xVrrtTQ/Xmq4Jh662yQOOZScTCpFgqN31C0qK0S9YEOuucETt7yvAqogVOa7JBQFjkhwUlK8Fkm4tsSul1OWucGuZkebt5/KuK+/67oQ9Pfy6//sbp7S9u2VbFM40HehhRw3dFpx3bxcyB9addMDqzMc2XOCJBNzz9LDnfiKXti1n7S+bluY8I0h7u86vJapMRtlZLJhZhd6sZ4GQhTzNuoCeemXPYHY4TRm1VovlNUnqiDN+e/te1v/2/bAIA23nUVcF8JR7p98N4fWsVSKRyrDzYXb+cF4Cmtb3ylj3UsHt352RhStdO1CBrtKjRW9Itzhc0inJGxFFe+eUA5eMpzUYbH8owywCJC4KSAv5ngHFnC6+QDBE5u8w3c4QgZEvdqnlnhYDRenwY7zSn3weVk8/3qTTJthmVLu/C/pEYu5aZ+yYrIpqnk4BlRFWhQ98hqlyjJ7dLDJMclwfpWq5v3zu03Owa0dIO5CqHYJpgAjEjMDTrX60KBW2K9j498h9+pqzXV9cHv+rk9vmPt/CzXwjvf7tsH2/eYZX1s/JBrQCS9cqrdu0Ns9kA5fFDdPOTSVhZSWOEtP6n6o+vvPohfrvof8jPX18mgCkf7Miutxl7Ad1ve0OrUA9QWBR8ieeo0g5rmSGMt7bvBinTPlKH3/tUTfVnT/7bwf/xP2whZPWDE12Ct+H+Hry/X46GAWFlHqfMo0Pr1TBCjFhry3PhF8108WoYppiiFZFRIG2o6zNujx8NoyTCLJ9HefWZHnO+zyEKW0GaJoUkUwTGdgp/DegiTBLbyRleeCj/OMQQkIKt7PGTpVNA/rBB+BZz8YPNdx9386RZ8v3IPrtK+0+reRIuzTjNgXHc59ZXs0jo7msom03LPS24vgtrNRJOXaGIS4f01QZw5ZaaeauFNuACAPI8ydmyDHK4ubCZCpzaxiN9dIc+/yB37t7Inz8Qs+n37/mfPcbvX6xrj7JXPktypFQ0qVkP3t3w1ZWr25uEDD5Xby7dgi+r9iahH35RO39lF409ZjSvDOT8/sUMsuWddjWw1lZUCCXWM52s1gkCCiNZkqVun5lPc+hv/dh3C7p1dDD++xVimLz48t9S/9v/mzBSWeztS2pxXhyV4vXw+t4GHC+yJGIePaNff+MgJOkKTMtfdhNnlaxmVJW9v8sNGLJt0RUr/Ppm66dQ0FOraD7SEmLCCiF8as22GdJqGk5nawD7iKWpokg9HxNuv+GdbSAkhPD97mZlhYA+OJJL+vbdO4tR22oATvcKz5m9mYl7TS7FJHTDLEmrnxyzq1dvXX7nYUfBV2dyOXY8j3l0wjvf/RgztLFjeE6OWU3MzZWr9tWEY7IkIqUW7UVwcWUKdd6c5+3B9sZrflzaTm6S3c92uMXXF/JHe/75jV8+Ee59CrIsSXNpv5eev0SNjSmlfkIfPhNufANlgjG/jus/253cZHTKV/ggYGhKCF6e54zc2tlFo0uPbzey8bZwirY4CRiOZ1hBOTyV18uU2HYQJpRKC7Lm/4cZy0ap9De/fv2/zoFwUHXLfV1Lh0yJNu3VcuSzCocJybkHH+ijf5wQwtAsZHu/bOVByk6vqA73/G1KoRg2exyFwvkiLwhn6Mkirp6UQLEEtYLo4vZiBnl9p5au3y8B3MW0KGQFyFYJBkarOXmXQYABVeulQbyKQe2Tgyaa3r2bAk5Tc2awL3rm+NpuH7F+lEGQRHEUyR8/41dvX7ncweO+Yj6/YEDACin16ANu8od3CSPoDSELwzBBHBWEUK+KnMYmUSbUGmRhEne+oAwRL012B04C5qCxXZmp+uxEjc8uikFze2nh8p7oIZ7lULCwcPdAvPopqRYrlnKTwadyeMMc6z5AN1f0s8PtJJOJHbAlra6P3krazasAcbX+cX32W7fb72QX68wSdoP3PhIFXuS43Z83/eXGNdcxFDu1jIqHw9vM6G7X6r/58I9/u6XFE31JtzqVyFWIMwmY7NqEHI+TAkiDXc38bo0LmoVQffqJvFnk8nTFV/JLMwrzArUOmGBrbWOGQVqVj2ZbrS8LvBdyOWk1i4t7QZF3uvHdT8MEPs5ZjtH4Ih3OMqqx0/J+b0ICAODbGlI3Fwnzwa8HwXhzfh5Rss4RbacVTzduZujQy0iBYBF5Lmg/1e2Lu5A7+GgPvfyTRWe0ocZp/1F+9nqFKb7dKALXi/OMogjQuygW2kIaUrKmZUsrDx2LAEK7Nq6VtzbRtNTJGGm3xfHSdkKxy1HMNVt5WlYZENu2F/ODyvbO4hocWi/Tzw/c+UQ/rqSFN9qQh5xDq2J0MwGt3oPGxT/gnvt2BfhqtzvIfr84bJTopbNZ9Xr28xXgKaOpFNwnB/n8/XubEgS5XQ8QuDmzSelEW6Yf7X/377eQrcp+qPXbSSaD9QRX8vMloQ3s5JCvVYzkclsQUUdF5Zfd6N1lRkVMW59PSO4EOT14wDnLdVjQAleRcm9h8mVernLb0A2U/bq7ARlsPBDWL3704S8wTUC9IdDLFzN+cKRZ/3QPEACEajQZRRu+jqv/+pPwfj2/W+ecyEG6OoBrj0FJnhcUzwBOJOuVTzg28SNMVQ7a8fkYMGxJopNIqgZzy8VIO22btutnWYAh4PYOgmnaNlDGKlLu+Sg3fUJtZzlJQP8ktxyLAChJiOWAfFTZLJeTFdEPDcur1OjU2xQFjrGikpA9GjAvx6QuR/d+Z6BQRej7JsFyt8n7b87zUr2tW2/sunp1k/ONeqnGX47a9TKXJvNpew+/e5VQTG9gRLbel9NXv3cbLS5nKgUlxiaAqNFKF0i9eO0TxDIgFbpGRFTeMuW6eznPhF08CRFUylUw26ZYafGF/ml988M9yNHuLn55TfGFl9B7j8rEWoWur0hiETuuCyi23C0li4VDqh0FZttI7jfy2csF/AXDQ6FU5nn846XWbgrL7y2KZiFhJCmlG8Wf7tHP/zk9vrcdx8sQgzDXlJOUgnmY02pZIqzOrpYry80IgQAxmpiGKRJqXTaNvBBjIZwlbONpa7XIcOFZEcVo/W5+O5JrGidKZB4bNXJvisrqxwAR5cE+XWzOQkozuNDLkLTfg7P3Iw/1nwiTJVNTYbimKGDN0lJNa/RL7CZIR3MOs0pJUggm0XiSG8d7YnjxzhNkkaKcFd/yXjpMpSyKQrxgK10Rp9a5330GXk8C4bCjJKOg0eRf/zbWyzKFOAbntFoRUl5n5m8jf+oBhBBNq5XMpdtle1sv+cPbsHQM7v04V1oNxZs4udCSY/5IXY8xH1E9afxmFPNslqLaQU8O1/50W+ISj2LSbYK5ek+wN0kcI1FVUUi0BnQV6kf4jBeFqg4yUCzCmgKJs2LlArK0QJItVsjZu6T/zxv2eJZi20VcGhPNEHAE6AwLnboYAiELEmsxjRHCgACapRmQUt1DGYWLeay3Fm9zra4LW5MvlbLtihJVw2BHb/JqR6KSzZx99qlwf0f45TdbSth9yEam5yCupCJnE2GxXaXX58tE+/Iovrz1xHKJySAGm5FNlartEiuzovDyD/xpeWbLu4AYwuJ+y+wel7B5MYcyj6lkkXWN11e5wFO0Xk8dqlam0835Ah4eMZsVUzM0/87b2c0vz7dcwdblAgVb/aDJUbKRvHyTEdeKCAC0Vma9LT9oOXOjw82vnMY+I28uw8qgX7HPzFxqURZTzye2VKE4cTpNxhZkQUE4oyTALLBAD9271bo9yaBSr2dmRMdhgtkSl2m7HTJG5VfwA5bBspFHBUGsDJJsa7IGS/FylY2XCV2Yb03p0ydoNkpgHKvqapqpLYNsc5YgtVHhPIC2Hk6teQxRgosUMLLBe460d1DxbhZFRZrcwqoSeEEuHT5RnPtULGhd3IyxVo3N8SIRH/x6P9xstrPnYUXbawWjy9TQKKnE+XaQCxU+dYYmfvovSuuXL1dIarekyMexa/uYFwS1Vxaku6/yD3Zf3sgfy67cAeuZK/WaQr6e+JIUJakfdU5GLxYEIqk5oNc+w9O5vfHiTOhVAiRyKt7mO21nY99ZKderAW9qM+2DHSVD1vsly1OhaQc50+jL3hJ0mpFf6tDLVSxK6s+m33rqzgP1/QuzqFWSTONvhmnvoUJW90FiO1CAWcIbvi81cpPvRjfgULhYIq5iyGGCYjfOMS3Rhf7wtLpYpEP4hKVTzEKIClrEHiGWjaq6wCpNMbi3MST3C9L6qLRaA46hdc2+iso1QjKMSCY1NSqXoDtacCAufDek4pAwRqMSj5LulzvzS5eV7ElIVXnPcjLmo78oLW9zaOMKEzMsB+4vpiFAwtHnA2JNRhfMKc/L3tvLrF2NiVHBQYYEAQfBdMH8q89Y+8ev1pCt7FScmc9KmW2lBAo7h6K3mQf6jrvUn9SjqCJ7ow2jiCwNogih7SZDsPMk+emVDZR+o8SvNjgvcJp7XkjtanNYpTidUdq0Sezn99A4qVOLkRWC04+i2wgmoaYxAnDuFvnBs3I+W3M6LZQp16MVspb+I+vbdd44oX58becijyol/7XNPf5EjpfWYhRV9DwK4v0/c76FD5LboOIuSjury4xWZd7ICilZbAtA0wxhu88O8GY1gvui6K6IqKOYEfIQQdtheg0JIT5f32wJq0dLrO6qLlAkCiNVCl05tkNJlRJXrKkJKsvR+ZA2WH82TekiKZBUaWgetfth9fKlqKYXYyxUxAxHc3PvF52VS1KLr+aJwGPrYuwRgArh4LNKtN3cCw8hZr3zm7TRiTfIkCHNybzvkOU9+ItP+XT8ahomqNpOr5ZQqRYbOwWoecxvIuTH7UNO0Ngs47lstmLoOIGKIkJvOg94eeeUu//9EO8+a1H86n0AAc0U1izqfIH+MCkrfEXXG94da/7gUJUHRrJxCyf+xZ9Nv1+CAlfqhKlo9o+znQ8reDF0ZZWBYSY36/Ro8zQ8n/hqB1zOUkJjpPK+zcj1J+04Wr8c4Z39aOGCz/6afGW34vstHbo6PdwApcYmBr9lpY0ZF4DQCMn7j1v5agS7mrqYYKlJ+RSds3yx3tCDfT2n09lwlgNKZrZ0pcEKdTXZhElRoj0YRYnaNFJf0eCsKBnFykQCWk4tzAo4SJlSp8zWu2Xh/Gujal25nC5wQp3/5k1RbUO9QgqddTxQ2JYZQQYTUgg7dQpRG7zHAxJMlh63y8zMXNLqZZWxbGRfeQc/63DAW53dunydTC3C1cvxMgBiq1oQibVWnc+EAkcppXJgPYIoSCCtGbxzvw6gvHsiO9+8Lo5/VYd88NVrplSWgXnrPfrY/d21XBalcqlmfZfEZk7JHXW7lYwk/2e/nF/8NA9zo87QWou/fc0e1sDsZsNVsk1sdPea0uqdb68jzGvQSQtKSFKKwVKr2FT3RWZ9sUzEHSmItdP+8nVUp904yRwcrFK6scPbUPJzhWSeFwWEY4XG8YA1Tdg21PG8UDp8jEgq8PR8VpT6DVpll8NhkhGKSpXuTm2/U9y/mW5dGlCyyCRMo4lpPru5pcolOidUaq+snC1VwGpNGrsVulzi0e0LQG99ual6hdHnf/88gDQ3OBBVNbKdyPUwRppCcOy4tKYIjId6Oox9y/eyUsm7X+Xa/r4CTIcPL5bMg9OOCrbf/uQDAcaIp9U65RU5XUGp0GD9ZfkpWg1NWG5rtDPaEiwwBebkcJZkPuwcGttvr3DnFwLa0X/8d3bpoM2ES79pXJ+nksYArWmsf/DSWCjRquGaXJljTr+Mt3/81oH1lgojrhK+DnYa1OLGpEt4RdTmbkv1Xl+YCWAVDSVFKmpkmgKmd7B8U5TqPcaKrXVR7mj9jvn2BnUqxcb01lGcANQdKHHC05iligh7t55alxldZtcWbJTV5SQXOiUG5jFCnDPyKEUR9zrSdpjNJilkaztHe31m+PxsGuYIinpNSXC7xbLw/muTM6oCoqV0sfS5ck2LZ5OkulMFlCQz/tBae9LhoBin3X30j3+MCKL7B4oqFpEfIkgwKymimC/nDpbFLOA6Og6jODRjocXc3AXczkMhdmATXA0T7fCozpi/f5URilJ2u9kWcLTkmDQBekPIA2Pg/+ZFptUGbS5YmrlUQRFAyA+FYhHU9uTxj0vIKbD02Yn91Tvc3ZUhDYOL67xSF2HM1tBq6nux+sRgRHvLaHTe+HMh/O3/HWtHO1yyXCjlu3X3RBiez1lVzllG1EWSza+sjDeqKgWzgKqW3tg+PTie/uQgsdejee9myh2ePKwOv7rXDntguhgNY4IB3e2LsGA0FiY5y4fvZ+UOiYosnTiwXtOc61jotvXCCwHh/FEIGcBUKipFpMvzRKwb5c5Jd/nbF2YCIIVottxRUKvGpOaby4QvVaWC8Kwzs2GtAdeWnap1HUGaYTnvbpy2nrUDK907yv/+9yGAVG9PogSN266QXPgppqqHtXgx2QARO1g3JJwn26kvnDQ2dzZlNLCZN05Y2/J94aBNjf5xwkEgtfq1dLymNcFdEZrWy7wiSOLq785pUa62lSRImBq3drUyDLGKbxdSV7176UBYQL5zWluvXFrkxAo3frkppF5V8AEFAlBMZ8zhDs+YcV+0R/K/fJh99XdO76CUgs1F0Qy3B39OP/9uQQmaUZKFbLYoc3erTK/znKbkYWQ8eD+du6396NLzMqXVakZXw7j24Flz+pvhzmknXcSTdxHOcrbX4xEoOD72YVnF67VoBCvHC3wCmw3FnZNGx+C8RYA5frPIaBHjPMGVPeluDMu6IOhN+frHZUwApBQ2Uw87tCpHd8N1Aku6QBcJI+WLaSyU2CDKoCAygEJ+IsULF3aOalySazXvN28hm+PmroDYkmFPaNGcR3nCffgzzR3dewib20LUjQpl3prCp4/RfJGLxFpKTx7Tph1YVL8Nr//JURhkNHU6GC9pFUekUw0czO62ZZicfWsjrlyWokjQqv6ZV2vJWSbi+wXQ2+b3CwIBx2BjUK8C2yaQTXzGusx3+qIbI1nkifnGF3XkR6Qq2yb74b/ZnfzurlpyXIW8s2pVtvtz9E/fz1OmVG8aZHExblRyN9ObIFOVDLjoi/D8esLviWk8m+WVR/vB/e2KVB/23Dfz2ml1vlaCCUycWOxUKBblBZ1HuaSrOOXx5NLMCQbwSTV3aL2qMcF0HQGOtzdEYHARx3nv5/LVDIIUCSUln0/8lNCUul9x+IacuK6zdnOkdcsUxGGI82gd5JSgsYAWACEMvRgTkBVctTNox7bjT2/yRs+/QjstKkNinqjB5bpAGXXyy1Y+Hy22gR3kBKqH/eJmDnf2a3AdSuF4O/joIL0c2xt49JC+OwtFxGoKla2XmcT4oP95efxmmtbbZebK9CkAAB85SURBVFZUpi8cpapwsS+ywmxYlHQZJTyeWgndxD/NC7p13H65HDzaITd3jIrdRFi9zY4HlBXASrnKWJcrx4tziiCaBnTjk8/E0ZDnTbdCj6+lqiz3qKv7xSqXdprU+tqOaLnOULVWZkM2BknyQLy7nhT1XRWPb13h+AFrX1/HsNxkfRv01ftARpCLNkmpwvqgLKdRXBQJ19EEafHTNEUkB/Avge8nOauI8RYTAPnYRWye4CLHrS/b8/F2E4uVnh7dDbewUWf4hpxBFN/fuyydpUTa21dQ7JtezkTBNuD3a14o63nBU6trGzCaJNafNc3p3ftZavzsofu720afdgpOKmn+2V0GgfzogxLjLkb3K6/IC9D87KEWzk3TkRUnUGgHP3ha2f5w69levY82YUG4usEUmemoZRyKx3vsduGE7ijJqrusB6p6ZjBpuI2ngSDxKp+DaG6FVIO6GaX8zz+qjm5KXSV8c9d4LASu+e6a/ayeRYnp631pbjm2ExU0I7EEUUZvrxxv+RKyPUgvk4JnJBoU3rdrpt+Jr6YYAr4jcs16Og65lKROwIF1ABp9IV+NPFQ56hSXZzGASk2wnZJgxTzD00nK1kRnGpX6/GbJ8F5WbRrZykqCOM4p+K9x5pvbGHN0Rks8QEUq0IGX4QzUf96z5/MZNFodNBsvE+2wRReAKTBi4uk8p0gcCHsnVSbarsxMpUJri7olyzVqhSsZ2e1tKLcluveZNByd/bBlH//LTvjb37M7EtRUAhhq+sqFTPNhLY0R5U9HVp4m3Jc/kzkqWZ6PUsqxKbkmlVU6XP7/BcFXkyXXYRjgc/qczrlv33wnz+zMRoAAKFAgVRJZFl12ma6SXSWX9eS/4xc/+1f4xWVbtkiJopgKIBaLjbOTZ27OneMJ/r6luF1SDZUl54rbdPU6qDpWsUIHAwMiUMxefR8ht/vopBFNWo38fltkSlPmsg1pdLsMVAs/rBnp/LkDsA43y1lx9FTZxNHNzD3zJVH8p++xYSnSahsXwNt1sjky/LYhRHynyZc3dUvJN5xR6Bnlyyu2sw9vR0wxO2qh71r0dsYBDLcxQZRox32hXk5DoHR2+dWw5kDt+uOlKNU1kDxNwIZH7u9T+bA3H7l7+ShRbY7UcpkxzYd/J9JgtU0SBrjVtquMMscRGdlOyu6pljAS1sCyi1VOkNeUGJCUPDYOG/G0gvlyiI+PfJzMZ9PAbkAepIa4LbqNZNE4Um6+Xjt7Oj7+UhsOv/smtf/Dv1VXf/zl1tvdOXRmI2Stv50i/7idvBtZz3fKm1m5jbR/9yIhspycz8s6WlbGiccSiiVpIHy8VKQwACIE1lmzTqADFrexf7jjmiiLh68mqqs8/tS7u7Ea6XWOXd8hNbVEnJ4PE4RZVlQ5a/esM2/x7URp73aKSSKWzDYtIbs6L8RasXUap9Kgq95+jHHvrCfmS3FHWsUZ9yyYFsu7au9Ev/iu6Oy78Zaq+/10KHY1YXIX5mVYsBpyuXfWEbLpLCJMc/J5zAATPW+zoohTbu9aWDb19Po2xZ39ZGm0letxAWRbzSPiHB/Bv5VAmSXRJipwd2CWiwya7XbTSK+2ch7BwQ6Y3nENAFUBDGOAFUwC3tuBtaFU96+Fw4FFVw/jSaB1XK3c1CSiu51o5p/pt3+amF0T9Z66weK7r8v2v/8raX772wv85NMjdj403O33K+d5Y3l+n8snT/3lKhku9Z/tvgqNlhSHgCfDQDnxy42gW+6p/Pat6YVLs5ksxCO9rkQ5n1+msu03OwLJFpf15/s16jnzB6rmc6oPOijfRtg26ovrnFOGhTrBg7ba9+e/n+r9AzNYLBXTMwG+fB0rO3BZm15TZKYujb6ZAeB+dYzLST3g78JGRxM55LfvtoPPum9eg1bDrmukdXfZkimVTNazyTaGIqxo4/ior4/eTgkgELAiqCmDWGQ5g5AJ7X0kK44aX01LyW7RhCA7nm4rQUKU4N6nLfjXZSXKdZJuS9kxvX76QLWGaA/YkIjvhubTx+zjFdYJNC0QiDZmRQ4qbrgoFdve8lX56FAKLq82GVU8Q4Z5WpVgr5+s/ANxcrUQTRmZjobKt+/J7hdHoCCv3pH9Z53VJNPVzV159lX4uwfB50L/WFxF1xP0vP8xTVVZyht+dTkRDxtpZDdEa8AuF6bF4X57er5WBSCZIICWFM4qR8d1OAp3frpP5kvmFoFhrEN01KLxapUpPruZlgKkWBMN29cK0c7eTmT7RBwtSaNj5oD+8wibDidys+eBDVP1xes1FNzTXY0vE4/dFP0WrgqsxJf35mnjYaxoBJTI1MxdCSrxLTCkeB1MakNNyu7jdsMYf7dWYZwWtrHcljVnHHOIIQFuLzcMV9sMa12ivChLosr5IucAQiAo3T4cZFAWKOclVzHqPQUfCttM6g4du62rsfNkP3o9b5nbRHdYqrXwOkgkSVT17J6fPKYfyWknfvt2VmOk2iLQQVjUYLBHK8ul27hgBUeYYUt4uKy7Jw2C9Kv3lbXr5BUD2SoW//yTV7/Pn/5N9Ad24izicBpae83NecAF0DwWLydy38ySvb4oCvO5aGFk7lvj97OqlFotsrQ/68SXU5RVNBzlgxdHxubtypeY11ndw8ddmm7DRSjLQQgtOQF+s2kwXhJlfVdbuBHdSnuuRtfAfP09Vy3DbPmWWk4S0axm0EAcyI5apJwQURVoXRDTHF1jGxCKaVgprlkCydg17j/Qtlcm82Fh2VHSOpZFmzxUPhmN631vGcUlqZBtiDqdJIpGBKzjLGv2YJmsE8oxLjPKOAcQcqRBuZK1rAICgEiQD9rBA2k0klwhacufpUYXzcek09hkqpwWho/XEddkbMnTufXiuXSR7qlXf7gvoCgbJkKGEm5z1u7IioXLAgs0LGAVA1uNxsQ+alYlHi0yjj1Lqmk8StWfNf/+Tv7L/0heblvKpLDSufKic//Hh4yw1qE5mioNSZB2ujq/ekN8C2iWV0832Tbx9rxyA58dCMu7mLBsPUsk/ehEHg0Fw5DR/N747AhEAQtvMq2OmacmsNk2UVbDEkzWUs+vzsPdM42SDdxL/0fsurrRcWSp2gSJAisoCLQEvs2Silk4KXldAQterlpazKBixAv8yL0fkrNP2cU96ijzxTZgrpsEsgkEz6qsQ/H6fdSyizrOCGjvmTnPHlYMc0I5FPSDbsXwckVoWRdQxLyoIQQcQpkgNa+hwAEXlGMyKaDXhDUgyJISznkQEKnbKKBZr0qIGOG2AgUDzoLeiyf4fKvXk4+TCmmOImG1gaNpBG1TtzxEoEoII/V2WZqqUBbKc2/0UHEHRnPQMYiKru6Vn9q/vJO/+FJMgZRuJIdlxr569/pumYDBsTpdiLZq2p5tkT++4g274WKSpGJ5tRo8a6Nwap745fXQ6mS3w3VGGk961VruatF0tHG+OBXnKxM+bPR6ttV0Ini+ypO6iIq0xEdPogvi7siQZUqX/PrB9mTZMyjWyGotcF5nMs4lV+MJldU8w2KaiHB2T87sRQjbT+rX4bPW+3fw+ePiIWoYk9uS1NzdEWYhhYKoSp0Xvc31MEISqAtqHe3Ah7VQjkMRVTWUdK9rJLQhZHmwjirkmHy7IYIAOLQzgAmTISAMKMfVsBRbTcwgVkxHyCeLsBZF36zVFp8VJNhg01coEOOA+odHwfcxksT1tBRNl3Ox2RHiZYIUBlTHgaJMKollq5iKkoxK/NT48KbwTkwymWNJ7NmTy2zvYPI23d1VzQ6ahIpV57pBgyiaD9ngVF/PBEXUbcO24+9uK63/yNk+VKq8OV93v/rMWX8z7p9Io3vrGb7++JDk6qCv4E4LT8+HWfPFIZ4MfTeOZTqfVhKkumcKJL+bc0iEs0/pMudAciSmN7KX95aDNY9suauUUVbzqlCqWLc1NSAKAKolrh6ybJ4Ie8oyUXqPhI/JqXN9ATotXpqN+YfEQWHlnHibq5xXhOPOF6d4c30eap5WZO5+I3q/aJm3EyxzrjeaOhMI7Lbo/G6UYqSbwmqaQwFy2MopIkCGvKJAOrNvJ9z3dQp1p71n5B9voKOAYJzoTTmnMB1Xhq9ClgXIwEzZTrnc9/KgEGSJcmO3Wdd5imCWMttFsklSoVpsJZVxWdPUNv14kZt7e3729pp0Tq3Z3Qq028lckJE5sKKCwiorCG64ePwhbZy5yQKDWtCshjq7XdX66TPp4jVtVNNFaf7ox630Ty/lM3c74k+6o6v1fCUYXqvZ0cjsZsV3zxrs9p2+66K6rKIM81XuOCJd3aayQOVHT+S8oAHvmIXmhq9mlgFkI09rVitCUUoYo8lCank64DnXdJ+Mh3ESlFQVCmb5aho2dtRwVMm6ZrfCl7PGnjyrTNshwyiPKBC7X57g8PZ84Zw4Wah54t2H/KA9v2aGoVuuISSS5Qzs9LvvlrIHiKRU0aqkkMKWoJCSCLyqGRcOTxbXseHIXPa7vmWI66Gwo8nf/r9INEUkaGayYJYrk6i05fWaSWJdnz6OVjUgEOq9Ji1RWgqoqImMiWOXiyyZVw2L5J09F1Tr2TRDjaeP0Ld/SHYeg48PKVebvkCyRO11lCqoefSQdp8eyXcfA+2gyXIVpRH1fHI7Cpn/yUH57SvSqjaiCg9eWGz+OtwdxA9Zv7NeZOM5V6XGUaderVMqPerL+ctXwu5Jg2S0gja4G1mtchWnog6ZePAE1yhb1ZpaGH7yYYtgkRGrF62zStB0xWqW5/fca/oNmBYC9PlwU5bbPAecQqedrut2RxSCLXMGDfHNOd05VJZILyhOw3VCBGP/kz1Mlhf3yplfxgUvbsfiyXF5Vci6IYlyvW4eDPaLq1++F01FhIquQbqchTXsST5f5wiEJQPceYZGWyQy7j0aCEHY7AAiY/m3/5giUZOJ2DMnW6UnV4KMs4ct6u8uRs8+WQwLxCVjcFDecTGmkiDJgNSloiR36yyRdjxSPTpR4sW8jAOiHT41h9+uGv78PGQCVnVDhbnWd5UqzMH8Bh4+P4GjYWzsNoUKo3xV+o31+X0ud574828uSasBVYeCHhTE20vpRF4UnhrM4yCFElRODrJRAKB/YvL1767Q/guvSopc6Wv3H7yj6K4Apgyg4H3CQiXIYAkqyUBxuk3joLIfCwW9X1lHtmgn4yVt+G6bJiHljrxOk6qqwoBw6A6SRWW7GLEkVXf87futNNhVNkAvM6Var3KmtTruriuk5+fV7jGIpmEa5tbxMQ45zSiEYDYz3Ec/if/lZWbgUnZaDlaM5OoigofU8JNcFcJ5wgA+2dmuK1ax5vNWOboxnvfzjLGXtxkTm1pctvdYyCxOmt10PFvXe8cPty+OHz6Egt8xdk/Gb2SHESJKEqZZjWF0Oc+o+7QDxX6TjheJjIIQyb2B8DBG5HZacyCpkiAaqulqEJTL9XJjng56YBkrOx1cFQUtMuo1b18ttZbdkMbvFsA/sqlANrTWWusP+c4OJQ19fhNwxmHNeydoERCxv4eK+28D7eiFVedxIrfwaLR/mK0JpTWDgn5W3nNogorECFPINpssrKXdQ8AfruuBT2ghOqImK3IZlxwaalHVIipX7yOEmrtwvtEUgg1QChpaz3OlO1CXaxEBsVhmgtlu87m1J8dX49o7s9YfNxwTf6elCZCmaZzQcA2IcuglyxqXAXe7Jjba9eX7GB4UQteRVcDH11sGW6dSmNO69o6kbPOQ9Y9pVuUzSre0adXSYE/jrFpnXnd7U6aJ5c6DT5oXVzHs7ctmJ1hYXSPYgLoUhVpwnfziw5r2vvBFTcuXW2ia8mqu8sBqprO8DoOKAqtpZKUqyYaBJX55ERP/iWWDQDo6UYJ1mBSgSq3+u9f1/oFUJrM51NWWmyf5dsO6neA+1XYaku2MLxNVyOuSan0vCKm/5/Pg6lbSW3stqSxKksdr+LRJicCqLIXVxuCpIJu1BGIAghqmNSpDaO16uDq/kRtkW7a+8uNKKla1KhSSlPN2EyXFm4ta398RxgsFxnoPU0RJvd3gpotXU0GThWBNtZ0jK74KHKkICbMP3fj9zLMj7LZMyBkn2xgVK15k3O7oCK/vCFJUt9PE49cZ9GvqHXuYyNt3M8KVox1QA1Y77jYkwQr1ZJLnYMf9MLRabmvPpQzn15PSYGvOa4lF6JH4sMq5PdAFCKTefnf5eptGoix2nnWzy9+cV3tfWBTkd0tr70TP7sdmazLlLK01uU4yud3W8xBXpWJiTZ/dhAnac1wj1z8Z8PntckPkemM03k/QzoEUr2a500DYoct1Vqhn7dX9ijZPTEEJR5UhBAnhsq2Hsbx/aArJOLSFEOz0RaFaLVKmdE1Aoa5V6+jyWjs0KgWnNa0EYRbX2LTkRcCNH0qbm1sgsowY//pgnaF4oWvVNNa5/QN3lnj5r1b2frcexQ7aaDu4RgSr6RI5ZRLlioZYvMhR87RXTB54VQIZN3eUejRto4fU3FGpLGMacWk5l8Eqw37PVOaXKQCK7+toNaygzLk8UCnE8TRnTNw70wmtuKvNViKbVZZYp7XzZe93L8W9k6YnJ4mYfT8sgIQYl2VSQBtFWc1Qs6cjSLvPnmS//H5biJL7wx+Z0f2vflsdfqEVRTAn5v4zPL6cKKfg6iblgtG2o0htaRhUMF9TUVJtzNnlrdrsdSrxh349fztccBuEIphmyOuo6XLDbI1Ku1qwzGr9s9b6/j72f+jONwAipQoShmVEowgPHnkoL4BVXlwKx/tuMqlbtggArUirLWSrP7wC+23BlbPFPFH19YbaNtaKae7/583X45gxwrnw49MsBCS07PLl3DQPfmH8brWL/u/YazlFAltaSGWoqTVSq1SVRvPadUGGvO3bDT49gesliUKgWLs9XGeZHJxvjR0WtJqojIEYxIY4DmG3LbLVuODAbogM1iGDasUlh2SAMwYF5Ax8ljFkNITlRtWiVK6DrTB4gb+9Im7/8Ei4WLbZn2YAYJEhU6VZxgEkNYdyszfQxuz5l8qvfznhstz9yx/j6fU/vEYHj2SKBS7k6JjdDlfCfm/1ag0Fpb/PAsFEAEHANxGwzYpZbvxqpTasQvl5s5x/fzcX+3i1ZSUVDFuMg1KSYSU9GaA4CsiTVjALt+BZ+/5WbOgiywpFQ2EdziqzZ4i17Q/gzb/cqIMdENtHpgwrktPWjlKkf/o/+WAXtfXs4TxwXTavsWWL+nbc/rvV199nkAOBktPP6GhNibJr/2ZsOM//i/bLeSv59brVhCHqNLViNsxbB4iJEoTR+Vg78pKt/VT8zRvaP8FxUgYRE70nOyzjjM7eh5ZbRk6Lp4kgQsjoNlc6hsCCSc5F3ylypgAVtkrZbW0mXJIR1lRX3T4E1l5P3ES5ZAkV3S4rqe3H85yndecFPw86+C5RNUaAa4tlHGdMADUFQOk+84erwxfGm39ccNVvHZxmN/eXmdPXgbvnoOJh2pFGq7D0D9BtYkqZsqflREQcQYBJXHXwcKubZjldVHVm/PxIXL66zox9fjfhiDPVBHEhGTJLyfGZw+KHaNAIC41c46PtPTM0rMhG2ypusuohRqgW8NnjY3n8q3NBt2XebCNJ4owhs2vy4OWvklZvi20hGmetlpSmuTcAnv7t9KvW5O8DpDWERb73KXh/UQvS3vGrB8l+/Df1K9bYvgs0ry6tHRXVd28zaaevY9Mobt+svb4chJ2n3uWb2nJlVqTblCvO8SFI4pwv7jPTpDnWQZJApIlJSqDZEJFY3Ydc9a2KMNmQ4Sm3+s3hB23XKFNFVsvlddQ9a6TXIUCqhvNVKmsmCitd3U6pC5MawZrZDRChgVbxPMhEVCcZZMg/dLZpZ1+8/Lip7T+TrsMkJaLVUOuy/wOveDifuXaYhblx4BXmc3N4L2iUAQ4kUAiGnOHkLrJF3NC3w7tYfPrFXvrmHoC28nBODCHDep0JZkNj1cZ43uLLq7qpJ1IXfFgcoPtY0HTLPtiTVu+WoFjXZUyU55910d0brhdZSV1HklQZU16bPXX0uwsqo7oGjkGQxSUhnik77V7r6992/iL+X2vvWWd8QTp75uTNGgrWyXrERbeXF70+yIMYMNVVgYjjDyOmdxqG79TD88BzyYp1Bk4w5DLGEorXiWKJStci47kkBqFt8yQVULKtgaZnCRU8T8JWcbWEasNQPBwKGfyEIK+bva/3uzxnoGZ8U3T2pNnrDRBEGdaVpEBdzQvTylZJXVHGAYNGR9pGVkeTsrR2tGK1ymvgdNWQek0xiOLt/i/O/2FDubS3B8ow0g97xeu7TDcxKNL+l8JMeHbIr+aQE8YoTyM8OMqD+V3karn7uLH45iPb+9keWUbhhHfW39VH8kQwoy1u+jKQVulxp7x7MLqIG2Z0XRwZFzNgd/um7/OHiy2G67jMqdLtmiCEXS8ajTPN1mTNUVi1STRzfhOLTZJn1G6IlhZRabOoW8cD5epNdrr74bbzWflygoz2ARqNQyg5bBVTwKHU6LWdZJ2FisK1tsamb0PJRvaBj+v7IReLRO23pHUoaoKA5HIDGkY855qaZVTTGJJRPONatgprJHMKcLOtK2LwcQkU2/SewPfrNfysLpUd9fzGeObLIFyLGgTqQPrwXcwBADWQWmgp+7jUDUZBNEko4BzKjpzFoNPV8wJ4PotX4TxROsomUVotUGTxD774n7+nArB/fBysFjNi+cVVxARkW6D84t+k727x4345L+oCm+ViOEdPv2TJ5vYBm1z7fB/c/2F7+iO3oMLoeqtkF/QH/kZWLu+Flito1iZod/nVutmokcWnM/2Z+P09azz+REtrMptlQFxOKyA6DmBcau1Y6fVVItuSIKi2g6NgGdQYWMf8YSt0GhAZZUm3BfUbTMTpddDfrzI8+1jLvPkDqyoizBOIZre5gGTFaDVBVY4CATq7NmKjCVG4cLqrgtG7FQCCtdulw8BoqzAL08LsK9OLDdX3DnEQCpImx2umss0qohCLotLummKymIU1VDT/KH2zyeDnYs7ajevXdPCpmcWBaml8o0v3DxWiNSWC9yX4p8L2BCxJgliNghICCCQF5gWVXM9g0HBUWK7Pl9A3woA6Ps115cz737cA452f79bzqw+5ZQbzjAGgtzX2r/6ab97dmx1hkRWl4vHJhwl4/IUO4fR8SKDywx+KxWV41hcKJE2v5kEeFKcHOt9+HEFfVZvyJnf76iZWSIwdlMylA3a+5O6zz53JKMmlPGlv366h02+SpNBaDTn6MCKqiKQ6lR91qmQ5LbB0fJy8j7yjQU5wuIwrSW2lC3eHvL7i+wfBzbxQ1Nr5rI3rAvFc0SbfzrnR0yVdZEUdTHKOTdPp69MpINXuMy0bny+ooLd2ve1V7Ox2pOWbGTB3zMkoIdqLr/DkMjUdpcgoFsh6GHMoqmavbQubyTarGJY1KdyWDP6E1sRorb9PxV43rUWjpa2vAggI1KuoZuKL/yT8tyFydIBEAaA0LlRPSllWMFZx1O5jUcVIlubfRaKklWmNIEXNfbf6ei0o9vGf9VD2p98XrV3ysCGMK10TPPlJS8uHN+u6ZGUlybi6HtPefsPVsvtvl5QPft6uh8FRtypEc/6wXgs0bJ0187uLNXRUvx8H3OgZdRIsY6XbBtNAooVYocGpvR4HggODQ/vD+cbeb8NVots2v/1YtZxVIuQpOtuHZTpcAOdZI78JB58PhuMkizmSLOUufLS3/W5YaQd8uCGiLGmHxzZZlZahkMXlTdZ+5upSHCxzZbNOCy5a+8/z9zEg5lN7s15uaiA3GtJyUuqNg/38dxc1dtyCIC4enWw/FJ6pyUVOgYLp6D5lXNS6TU8PrreVplKKqyQvBfiXeVrAlnCzgdRu60Qy0XKaQ8wEA22yWv+LvyX/9ZKLFuGqyBnj0D/RN8t5yeu8Rq19FQuEYTa/pSqEHDFeUKVzKJajVDXsZs+Xspf/HOpH/WTNNUQlCPSzrt8U373JJDmOSY3EOGUSkltNlHw4T5jxxTG7u2s8l9e1Vcc5Ma2CmwZd3CRYFVvuNkNC0+TRdJKIOwNrPaqBZucFch0exEDRQe8IXn8o/JYU51CQ4ov17ufWcEmnM3C6S0k1XAuOhxjH3UN0e1tLFGKnPfuG9sRVkSfQNHAYEtksyZPP8DRrt2EVL+9nzWf7Co83mxAI9XRcQLn5E/+7m0IwfVxSXpWkZAjXGRWkR19pf/hTRJHV7Xs0krXxa3bct6WsyEtRtdh0vM5LplmtQXG3hv2jxUoCeZQCeFzSmtneYkmAeOileU5AgTCsiNfYzkr5q19U//2GAREyUWcZQJp/4JVBzoQ0XVTekc3LHKN4GIhmTZEmkVJ0XKUWPE+SGEG+VF798Z45B3qp+nKS5FxyRKFzmI5YU50Mo0xQREqSpNC6jrj+OKderyUu7uPBYxAJEHGsOnqZVHQdY0wKWUMccssRkuUm54rrkVTiHEJW14qap1RwrUbXL17PrI6W5nlczZb6589RWoHg/WrHjiqhpkVRcNbYs6X1ohYxq+Vj//uvM8JUo4g51CwUJbIWxe5PvVXVbiNQjacr0PvM2AQEsTjT1+cRNJtfDt5+EzDZEAVRxqwKQgIRRap38li/+OM2qc1HpxYJCJ28JzuHFiJFUom6paDg6iGqgWB0cZzS/c+3N1QExTb7/+KQyH8NeRFHAAAAAElFTkSuQmCC;" vertex="1" parent="1">
          <mxGeometry x="230" y="80" width="388" height="361" as="geometry" />
        </mxCell>
        <mxCell id="4XN7BtDAy905C1iOqgJM-2" value="" style="rounded=0;whiteSpace=wrap;html=1;strokeColor=#FF0000;fillColor=none;strokeWidth=5;" vertex="1" parent="1">
          <mxGeometry x="364" y="270" width="30" height="30" as="geometry" />
        </mxCell>
      </root>
    </mxGraphModel>
  </diagram>
</mxfile>
